<svg width="20" height="10" viewBox="0 0 20 10" fill="none" xmlns="http://www.w3.org/2000/svg">
<path d="M5.18973 0.0381193C5.00657 0.141059 0.0343432 4.80764 0.00753875 4.902C-0.00586348 4.95347 -0.00139607 5.04354 0.020941 5.10359C0.0611477 5.2194 5.02444 9.8774 5.2076 9.97176C5.43544 10.0876 5.74816 9.82593 5.68115 9.57287C5.66775 9.51711 4.66705 8.55206 3.45191 7.41973L1.24948 5.36523L10.5462 5.34378C15.6613 5.33092 19.8518 5.31805 19.8562 5.30947C19.8607 5.30518 19.8964 5.24513 19.9367 5.17222C20.026 5.00494 20.0215 4.902 19.9188 4.78191L19.8339 4.67897L10.5372 4.65752L1.24501 4.63608L3.45191 2.58158C4.66258 1.45354 5.66775 0.48419 5.68115 0.428432C5.75263 0.158216 5.43097 -0.0991325 5.18973 0.0381193Z" fill="black"/>
</svg>
