<svg width="43" height="73" viewBox="0 0 43 73" fill="none" xmlns="http://www.w3.org/2000/svg">
<path d="M29.5807 0.133809C29.8108 0.311706 29.8108 0.311706 29.8564 0.508536C29.8592 0.741396 29.8251 0.894418 29.7467 1.11264C29.7206 1.18671 29.6945 1.26078 29.6675 1.33709C29.6383 1.41729 29.609 1.49749 29.5788 1.58011C29.5484 1.66543 29.5181 1.75075 29.4868 1.83865C29.4207 2.02387 29.3543 2.20895 29.2875 2.39389C29.1816 2.68715 29.0767 2.98077 28.9722 3.27452C28.7498 3.89883 28.5261 4.52264 28.3021 5.14639C28.0433 5.86753 27.7849 6.58886 27.528 7.31071C27.4251 7.59901 27.3212 7.88693 27.2172 8.17485C27.1535 8.35333 27.0899 8.53182 27.0263 8.71034C26.9974 8.78946 26.9686 8.86858 26.9388 8.9501C26.7186 9.57402 26.51 10.2351 26.636 10.8964C26.9102 11.4234 27.3138 11.772 27.881 11.9582C28.4779 12.0356 29.0084 11.9415 29.4992 11.5808C29.9779 11.0168 30.2114 10.2841 30.4564 9.59406C30.4862 9.5114 30.516 9.42873 30.5467 9.34355C30.6107 9.1658 30.6744 8.98798 30.738 8.8101C30.8387 8.52857 30.9401 8.24729 31.0416 7.96607C31.33 7.16709 31.6173 6.36774 31.9039 5.56812C32.0797 5.07764 32.2564 4.58748 32.4337 4.0975C32.5009 3.91103 32.5678 3.72443 32.6344 3.53771C32.7272 3.27738 32.8211 3.01748 32.9153 2.75763C32.9425 2.68044 32.9697 2.60324 32.9978 2.5237C33.0236 2.45293 33.0495 2.38215 33.0762 2.30924C33.1093 2.21716 33.1093 2.21716 33.143 2.12322C33.2461 1.92132 33.3534 1.80332 33.5343 1.66692C33.8229 1.68414 33.8229 1.68414 34.0984 1.77187C34.2999 2.04598 34.2999 2.04598 34.2917 2.34421C34.2533 2.47516 34.2099 2.60468 34.1634 2.73301C34.121 2.85101 34.121 2.85101 34.0778 2.97139C34.0309 3.10028 34.0309 3.10028 33.9829 3.23176C33.9502 3.32258 33.9175 3.41339 33.8838 3.50695C33.8127 3.7044 33.7414 3.90179 33.6699 4.09913C33.5569 4.41163 33.4446 4.72439 33.3326 5.03725C33.0141 5.92688 32.6952 6.81636 32.3733 7.70482C32.1766 8.24809 31.9816 8.79195 31.7877 9.33624C31.7135 9.54347 31.6387 9.75048 31.5632 9.95725C31.4576 10.2469 31.3541 10.5372 31.2512 10.8277C31.2196 10.9127 31.1879 10.9977 31.1554 11.0853C30.9312 11.7289 30.9244 12.1707 31.2192 12.803C31.5615 13.2431 31.9445 13.4969 32.4991 13.5986C33.0336 13.634 33.4415 13.5361 33.8518 13.1901C34.2503 12.6483 34.4822 12.0673 34.7098 11.4407C34.7414 11.3548 34.773 11.2689 34.8056 11.1805C34.8739 10.9949 34.942 10.8093 35.0099 10.6236C35.1175 10.3298 35.2259 10.0364 35.3346 9.74302C35.6433 8.90922 35.9517 8.07529 36.2571 7.24028C36.4443 6.72887 36.6331 6.2181 36.8231 5.70773C36.8951 5.51319 36.9665 5.31842 37.0373 5.12341C37.1361 4.85126 37.2371 4.57999 37.3385 4.30882C37.3673 4.22796 37.3961 4.1471 37.4257 4.06379C37.6311 3.52473 37.6311 3.52473 37.9395 3.30977C38.1765 3.25616 38.1765 3.25616 38.453 3.37563C38.6761 3.53841 38.6761 3.53841 38.7325 3.65933C38.6654 3.88779 38.5937 4.11216 38.5174 4.33756C38.495 4.40501 38.4725 4.47246 38.4494 4.54195C38.3773 4.75815 38.3046 4.97414 38.2318 5.19013C38.183 5.33633 38.1341 5.48255 38.0853 5.62879C37.9654 5.98795 37.8449 6.34692 37.7241 6.70581C37.808 6.66438 37.808 6.66438 37.8935 6.62212C37.968 6.58616 38.0425 6.55021 38.1193 6.51317C38.1927 6.47741 38.2661 6.44165 38.3416 6.40481C39.1439 6.07638 39.8749 6.24644 40.6568 6.54099C41.4046 6.88363 41.8923 7.46888 42.189 8.23051C42.2566 8.5125 42.2805 8.7794 42.2855 9.0688C42.2906 9.1742 42.2957 9.2796 42.301 9.38819C42.1446 10.2807 41.6368 11.0965 41.2019 11.8812C40.918 12.4267 40.8927 12.6494 41.0762 13.2532C41.703 15.448 41.3274 17.3024 40.5645 19.3876C40.4955 19.5783 40.4265 19.7691 40.3577 19.9598C40.1686 20.4826 39.9785 21.0049 39.7882 21.5272C39.5829 22.0911 39.3786 22.6553 39.1742 23.2195C38.7737 24.3244 38.3723 25.4289 37.9704 26.5333C37.6437 27.4312 37.3173 28.3292 36.991 29.2273C36.897 29.4862 36.803 29.745 36.7089 30.0038C36.6739 30.1003 36.6739 30.1003 36.6381 30.1988C35.9808 32.0082 35.3231 33.8174 34.6646 35.6263C34.6274 35.7285 34.6274 35.7285 34.5894 35.8328C34.4637 36.1783 34.3379 36.5237 34.2122 36.8692C34.1872 36.9378 34.1622 37.0064 34.1365 37.0771C34.086 37.2158 34.0355 37.3545 33.985 37.4933C33.1996 39.6508 32.4156 41.8089 31.6327 43.9674C30.7525 46.3943 29.871 48.8209 28.9879 51.2468C28.8936 51.5057 28.7993 51.7647 28.7051 52.0236C28.6819 52.0874 28.6587 52.1512 28.6347 52.2168C28.2621 53.2405 27.8907 54.2646 27.5196 55.2889C27.1463 56.3193 26.7716 57.3492 26.3956 58.3786C26.1922 58.9358 25.9893 59.4931 25.788 60.051C25.6034 60.5625 25.4171 61.0735 25.2296 61.584C25.1623 61.7679 25.0957 61.9521 25.0297 62.1365C24.3061 64.1562 23.1842 66.2474 21.1435 67.2152C20.8604 67.4613 20.8308 67.7895 20.7593 68.1425C20.7256 68.293 20.6917 68.4436 20.6577 68.5941C20.6333 68.7054 20.6333 68.7054 20.6085 68.8189C20.3523 69.9762 20.1039 70.7485 19.1215 71.4528C19.0619 71.4859 19.0022 71.5189 18.9407 71.5529C18.8822 71.5316 18.8237 71.5103 18.7634 71.4884C18.7421 71.5469 18.7209 71.6054 18.6989 71.6657C17.7822 71.9817 16.9368 71.8288 16.0794 71.4151C15.5321 71.0526 15.2142 70.6146 14.9263 70.0306C14.8616 69.8561 14.8616 69.856 14.7499 69.8268C14.6987 69.9617 14.6987 69.9617 14.6463 70.0993C14.5194 70.4321 14.3907 70.7644 14.2615 71.0964C14.2058 71.2403 14.1505 71.3844 14.0957 71.5286C14.017 71.7358 13.9366 71.9422 13.8559 72.1486C13.8316 72.2134 13.8074 72.2782 13.7824 72.345C13.7106 72.5259 13.7106 72.5259 13.5642 72.8087C13.2093 72.8952 13.1039 72.8983 12.7904 72.7279C12.6222 72.4207 12.6554 72.2116 12.755 71.8914C12.8098 71.7355 12.8659 71.58 12.9233 71.425C12.9536 71.3398 12.9839 71.2546 13.0151 71.1669C13.1157 70.885 13.218 70.6038 13.3204 70.3226C13.3907 70.1263 13.4608 69.93 13.5308 69.7336C13.7156 69.2158 13.9018 68.6986 14.0885 68.1815C14.3864 67.3561 14.683 66.5302 14.9781 65.7038C15.0811 65.4162 15.1853 65.1289 15.2895 64.8417C15.3535 64.6633 15.4174 64.485 15.4812 64.3066C15.5101 64.2278 15.539 64.1491 15.5688 64.0679C15.9386 63.0458 15.9386 63.0458 15.861 61.9986C15.8037 61.9115 15.7464 61.8244 15.6873 61.7346C15.6383 61.6588 15.5893 61.583 15.5388 61.5048C15.0833 61.0502 14.6164 60.8992 13.9857 60.9058C13.5113 60.9721 13.1479 61.2514 12.826 61.5967C12.7291 61.7806 12.7291 61.7806 12.6573 61.9888C12.6129 62.1081 12.6129 62.1081 12.5675 62.2299C12.5361 62.3168 12.5047 62.4038 12.4724 62.4934C12.4384 62.5852 12.4045 62.6771 12.3695 62.7717C12.2959 62.9711 12.2227 63.1706 12.1498 63.3703C12.0345 63.6861 11.9181 64.0015 11.8013 64.3167C11.4694 65.2131 11.1398 66.1104 10.8107 67.0078C10.6093 67.5567 10.4067 68.105 10.2033 68.6531C10.126 68.8623 10.0492 69.0716 9.97296 69.2812C9.86641 69.5739 9.75829 69.8659 9.64979 70.1579C9.61858 70.2449 9.58737 70.3319 9.55521 70.4215C9.52532 70.501 9.49542 70.5805 9.46462 70.6624C9.42659 70.766 9.42659 70.766 9.38779 70.8718C9.25593 71.1002 9.12453 71.1914 8.88971 71.3082C8.60762 71.2557 8.60761 71.2557 8.35779 71.1145C8.21328 70.7831 8.21015 70.5894 8.33339 70.2534C8.36177 70.1739 8.39016 70.0945 8.4194 70.0126C8.45164 69.9266 8.48388 69.8406 8.51709 69.752C8.55018 69.6605 8.58327 69.569 8.61736 69.4747C8.68936 69.276 8.76195 69.0776 8.83507 68.8793C8.95077 68.5652 9.06467 68.2505 9.17807 67.9356C9.50083 67.0403 9.82676 66.1461 10.154 65.2525C10.3541 64.7057 10.5521 64.1583 10.7487 63.6103C10.8241 63.4019 10.9002 63.1938 10.9772 62.986C11.0851 62.6948 11.1903 62.4028 11.2949 62.1104C11.3434 61.9826 11.3434 61.9826 11.3929 61.8523C11.5941 61.2778 11.608 60.851 11.3997 60.2744C11.1427 59.8125 10.825 59.5377 10.3199 59.3794C9.75096 59.2863 9.32284 59.3331 8.82061 59.6369C8.2956 60.035 8.11344 60.7109 7.89594 61.3064C7.86356 61.3939 7.83119 61.4815 7.79784 61.5717C7.72781 61.7611 7.65796 61.9507 7.58827 62.1403C7.47792 62.4402 7.3669 62.7398 7.25566 63.0394C6.93953 63.891 6.62405 64.7428 6.31042 65.5953C6.11838 66.1172 5.92506 66.6386 5.73092 67.1597C5.65718 67.3584 5.58393 67.5573 5.51116 67.7563C5.40954 68.0342 5.30632 68.3114 5.20271 68.5885C5.1581 68.7123 5.1581 68.7123 5.11259 68.8387C4.85316 69.5236 4.85316 69.5236 4.45705 69.6948C3.8758 69.3954 3.8758 69.3954 3.81236 69.2594C3.87713 69.0373 3.94643 68.8195 4.02039 68.6005C4.04214 68.535 4.06389 68.4696 4.08629 68.4021C4.1561 68.1922 4.2265 67.9826 4.29692 67.7729C4.34424 67.631 4.39153 67.489 4.43878 67.347C4.55491 66.9984 4.67157 66.6499 4.78852 66.3015C4.55165 66.2153 4.48343 66.2822 4.25653 66.384C3.43955 66.6971 2.71262 66.6287 1.90816 66.3011C1.14839 65.905 0.639951 65.36 0.371499 64.5429C0.0964765 63.3636 0.532761 62.4145 1.12712 61.413C1.5232 60.7617 1.5232 60.7617 1.61162 60.0226C1.54817 59.8192 1.47745 59.6179 1.40019 59.4194C0.67935 57.4473 1.29574 55.4023 1.98015 53.5335C2.04916 53.343 2.1181 53.1525 2.18697 52.962C2.37593 52.44 2.566 51.9184 2.75625 51.3969C2.96145 50.8338 3.16563 50.2703 3.36995 49.7069C3.77022 48.6036 4.17146 47.5007 4.57307 46.398C4.89957 45.5014 5.22575 44.6048 5.5517 43.708C5.59858 43.5791 5.64545 43.4501 5.69233 43.3212C5.76297 43.1268 5.83361 42.9325 5.90426 42.7382C6.56088 40.9318 7.21786 39.1255 7.8756 37.3196C7.90039 37.2515 7.92517 37.1835 7.9507 37.1134C8.07631 36.7685 8.20192 36.4236 8.32753 36.0787C8.35247 36.0102 8.37742 35.9418 8.40312 35.8712C8.45356 35.7327 8.50401 35.5942 8.55445 35.4557C9.33914 33.3012 10.1227 31.1464 10.9052 28.9912C11.7851 26.5681 12.6658 24.1453 13.5479 21.7231C13.642 21.4646 13.7361 21.2061 13.8302 20.9476C13.8534 20.8839 13.8766 20.8203 13.9004 20.7547C14.2497 19.7956 14.5982 18.8362 14.9464 17.8767C15.3426 16.7848 15.7397 15.6933 16.1381 14.6022C16.3412 14.0458 16.5438 13.4892 16.7454 12.9322C16.9301 12.4217 17.116 11.9116 17.303 11.4019C17.3701 11.2181 17.4369 11.0341 17.5031 10.8499C17.9786 9.52879 18.5001 8.24508 19.4917 7.21679C19.5409 7.16428 19.5902 7.11176 19.6409 7.05766C20.1381 6.53906 20.6828 6.04271 21.3367 5.73368C21.6762 5.47499 21.7138 5.18339 21.7891 4.78378C21.8217 4.63385 21.8546 4.48397 21.8876 4.33414C21.9035 4.2592 21.9195 4.18427 21.9359 4.10707C22.1682 3.0345 22.4146 2.11302 23.3371 1.44428C24.0329 1.02847 24.8376 0.871095 25.629 1.06505C26.5354 1.38236 27.0969 1.75426 27.5464 2.61551C27.5934 2.70491 27.6404 2.7943 27.6889 2.8864C27.7239 2.95422 27.7589 3.02203 27.795 3.09189C27.828 3.00513 27.861 2.91837 27.8951 2.82898C28.018 2.50716 28.1427 2.18601 28.2678 1.86504C28.3218 1.72604 28.3752 1.58687 28.4282 1.44751C28.5045 1.2472 28.5824 1.04758 28.6607 0.848034C28.684 0.78562 28.7074 0.723206 28.7315 0.6589C28.8325 0.405293 28.9063 0.228998 29.1309 0.066918C29.3112 0.0294505 29.3112 0.0294506 29.5807 0.133809ZM23.9817 2.29381C23.0101 2.99415 22.9559 4.33509 22.7205 5.44151C22.6915 5.57652 22.6625 5.71152 22.6335 5.84652C22.5551 6.21191 22.477 6.57738 22.399 6.94287C22.3155 7.33363 22.2316 7.72432 22.1478 8.11502C21.9877 8.86155 21.8279 9.60814 21.6682 10.3548C21.4403 11.4203 21.212 12.4857 20.9836 13.5512C20.9489 13.7132 20.9141 13.8753 20.8794 14.0373C20.8622 14.1175 20.8451 14.1976 20.8274 14.2801C20.7235 14.7649 20.6198 15.2497 20.5163 15.7346C20.1698 17.3574 19.8205 18.9794 19.4617 20.5995C19.3568 21.0735 19.2526 21.5478 19.1483 22.022C19.0502 22.4679 18.9509 22.9136 18.8507 23.359C18.7895 23.6322 18.7294 23.9055 18.6696 24.1789C18.6289 24.3638 18.5867 24.5484 18.5445 24.733C18.3597 25.5855 18.2749 26.3297 18.7523 27.1087C19.1484 27.5709 19.5908 27.7797 20.1949 27.8346C20.8323 27.8147 21.3348 27.5644 21.7669 27.1016C22.0428 26.538 22.1728 25.9133 22.2997 25.3025C22.3184 25.215 22.3371 25.1276 22.3564 25.0374C22.4185 24.7468 22.4796 24.4559 22.5408 24.165C22.5853 23.9555 22.6299 23.746 22.6746 23.5365C22.7704 23.0864 22.8659 22.6363 22.961 22.1861C23.1116 21.4735 23.263 20.7611 23.4146 20.0487C23.4402 19.9283 23.4658 19.8078 23.4922 19.6837C23.5315 19.4993 23.5707 19.3149 23.6099 19.1306C23.6898 18.755 23.7697 18.3794 23.8494 18.0039C24.2312 16.2066 24.6164 14.41 25.0043 12.614C25.045 12.4254 25.0858 12.2368 25.1265 12.0482C25.3616 10.9589 25.5968 9.86961 25.8326 8.78043C25.9542 8.21886 26.0755 7.65724 26.1966 7.09557C26.2411 6.88976 26.2856 6.68397 26.3303 6.4782C26.3914 6.19653 26.4521 5.91478 26.5128 5.63302C26.5393 5.51187 26.5393 5.51187 26.5662 5.38828C26.8787 4.07014 26.8787 4.07014 26.4893 2.81746C25.8483 2.03571 24.8807 1.81556 23.9817 2.29381ZM38.1752 7.67317C37.7094 8.20158 37.3794 8.81043 37.0561 9.43181C37.0063 9.52618 36.9565 9.62055 36.9053 9.71778C36.7403 10.0307 36.5764 10.3442 36.4124 10.6576C36.2949 10.8811 36.1773 11.1046 36.0596 11.328C35.8087 11.8045 35.5583 12.2813 35.3082 12.7583C34.9164 13.5055 34.5238 14.2522 34.131 14.9989C34.0983 15.0611 34.0655 15.1233 34.0318 15.1874C33.8993 15.4394 33.7667 15.6914 33.6341 15.9434C33.4674 16.2602 33.3008 16.577 33.1342 16.8938C32.2272 18.619 31.3158 20.3416 30.3983 22.0611C30.2931 22.2583 30.188 22.4555 30.0828 22.6527C29.6431 23.4773 29.203 24.3017 28.7616 25.1253C28.584 25.4571 28.4069 25.7891 28.23 26.1212C28.1493 26.2724 28.0683 26.4235 27.9871 26.5744C27.1042 28.0177 27.1042 28.0177 26.9811 29.6018C27.2338 30.195 27.5401 30.5863 28.1525 30.8411C28.7134 31.0184 29.1701 30.9433 29.6971 30.6907C30.1554 30.4013 30.3963 30.0927 30.6401 29.6192C30.6771 29.5501 30.714 29.481 30.7521 29.4098C30.8784 29.1726 31.0029 28.9344 31.1274 28.6962C31.2205 28.5205 31.3137 28.3448 31.407 28.1691C31.6508 27.7096 31.8932 27.2494 32.1353 26.789C32.4754 26.1425 32.8174 25.497 33.1593 24.8515C34.0498 23.1701 34.938 21.4875 35.8257 19.8046C36.4981 18.5299 37.1708 17.2555 37.8435 15.981C38.078 15.5368 38.3124 15.0925 38.5468 14.6481C38.6923 14.3724 38.8378 14.0966 38.9833 13.8209C39.0524 13.6899 39.1215 13.5589 39.1906 13.428C39.5064 12.8293 39.8226 12.2309 40.1431 11.6347C40.1871 11.553 40.231 11.4713 40.2763 11.3871C40.3533 11.2443 40.4305 11.1016 40.508 10.9591C41.1624 9.79185 41.1624 9.79185 41.1351 8.50459C40.8769 7.92384 40.5607 7.66055 40.0049 7.40419C39.3822 7.188 38.7222 7.32151 38.1752 7.67317ZM21.2408 7.03142C19.9219 8.24263 19.1442 9.39576 18.5274 11.1007C18.4784 11.2341 18.4293 11.3674 18.3802 11.5008C18.2482 11.8599 18.1172 12.2194 17.9866 12.5791C17.8769 12.8807 17.7667 13.1821 17.6565 13.4835C17.3963 14.1953 17.1371 14.9075 16.8784 15.6198C16.6127 16.3516 16.3453 17.0828 16.0771 17.8138C15.8459 18.4442 15.6157 19.0751 15.3863 19.7062C15.2497 20.0819 15.1128 20.4574 14.9749 20.8326C14.8451 21.1857 14.7166 21.5392 14.5891 21.8932C14.5424 22.0219 14.4954 22.1506 14.4478 22.279C13.6478 24.4412 13.6728 26.6188 14.6321 28.7206C15.6819 30.88 17.4422 31.9951 19.6099 32.8004C19.7811 32.8649 19.9522 32.9294 20.1233 32.9941C20.4804 33.1288 20.8378 33.2625 21.1955 33.3957C21.65 33.5649 22.1037 33.736 22.5572 33.9079C22.9101 34.0414 23.2634 34.1739 23.6167 34.3061C23.784 34.3688 23.9511 34.4318 24.1182 34.495C26.634 35.4455 28.9812 35.8189 31.5249 34.7059C33.5881 33.6812 34.8863 32.0176 35.6528 29.8816C35.7023 29.7466 35.752 29.6117 35.8018 29.4767C35.9353 29.1136 36.0672 28.7498 36.1987 28.3859C36.3373 28.0028 36.4773 27.6202 36.6171 27.2375C36.8515 26.5949 37.0848 25.9519 37.3175 25.3086C37.5854 24.5682 37.8552 23.8284 38.1259 23.089C38.3595 22.451 38.5921 21.8126 38.8238 21.1738C38.9617 20.7937 39.0999 20.4138 39.239 20.0342C39.37 19.6769 39.4996 19.3191 39.6282 18.961C39.6752 18.8307 39.7226 18.7007 39.7706 18.5708C40.1786 17.4641 40.4708 16.3297 40.383 15.1406C40.3758 15.027 40.3687 14.9133 40.3613 14.7962C40.3174 14.4783 40.2372 14.2039 40.1239 13.9043C39.8333 14.323 39.5715 14.7448 39.3353 15.1968C39.3026 15.2587 39.2698 15.3206 39.2361 15.3844C39.1275 15.5899 39.0194 15.7957 38.9114 16.0016C38.8332 16.1498 38.755 16.298 38.6767 16.4463C38.5087 16.7647 38.3409 17.0832 38.1733 17.4018C37.9077 17.9066 37.6415 18.4112 37.3753 18.9156C36.7617 20.0784 36.1489 21.2415 35.5361 22.4047C34.9751 23.4696 34.414 24.5343 33.8522 25.5988C33.5881 26.0992 33.3244 26.5998 33.061 27.1005C32.8962 27.4136 32.7311 27.7265 32.5659 28.0393C32.4901 28.1832 32.4143 28.3271 32.3387 28.4711C30.7894 31.4217 30.7894 31.4217 29.5651 31.8227C28.254 32.1705 26.7534 31.4568 25.5339 31.0092C25.372 30.9504 25.21 30.8917 25.0481 30.833C24.7109 30.7106 24.374 30.5875 24.0372 30.464C23.6093 30.3071 23.1809 30.1518 22.7522 29.997C22.4184 29.8762 22.0849 29.7546 21.7514 29.6327C21.5937 29.5752 21.4359 29.5179 21.278 29.4609C18.1839 28.342 18.1839 28.342 17.559 26.9567C17.1388 25.9416 17.5965 24.6803 17.8212 23.6571C17.8599 23.4785 17.8985 23.2998 17.937 23.1212C18.0198 22.7381 18.103 22.3552 18.1866 21.9723C18.3186 21.3673 18.4495 20.762 18.5802 20.1567C18.8812 18.7636 19.1837 17.3709 19.4862 15.9782C19.764 14.6993 20.0415 13.4204 20.3177 12.1413C20.4478 11.5391 20.5786 10.9371 20.71 10.3351C20.7914 9.96178 20.8721 9.58827 20.9526 9.21472C20.9902 9.04104 21.028 8.86743 21.0662 8.69388C21.118 8.45776 21.1689 8.22146 21.2195 7.98509C21.235 7.91581 21.2505 7.84653 21.2664 7.77515C21.3527 7.39574 21.3527 7.39574 21.2408 7.03142ZM29.8636 12.5794C29.7357 12.6664 29.7357 12.6664 29.6052 12.7551C29.0784 13.0714 28.3934 13.1266 27.792 13.0302C27.1942 12.8675 26.6878 12.5767 26.1721 12.2398C25.9949 12.7032 25.8581 13.1501 25.7558 13.6369C25.742 13.7016 25.7283 13.7662 25.7142 13.8328C25.6695 14.0437 25.6255 14.2547 25.5816 14.4657C25.5505 14.6131 25.5194 14.7604 25.4882 14.9078C25.4068 15.2935 25.3259 15.6793 25.2452 16.0651C25.1626 16.4597 25.0794 16.8541 24.9962 17.2485C24.8334 18.0209 24.6713 18.7934 24.5096 19.566C25.1662 19.8073 25.8229 20.0482 26.4799 20.2884C26.7849 20.3999 27.0899 20.5116 27.3947 20.6237C27.7448 20.7524 28.0952 20.8805 28.4456 21.0084C28.5555 21.049 28.6654 21.0895 28.7787 21.1312C28.9304 21.1865 28.9304 21.1865 29.0852 21.2428C29.1747 21.2756 29.2642 21.3084 29.3564 21.3422C29.5515 21.427 29.5515 21.427 29.6837 21.3489C29.7894 21.1663 29.8902 20.981 29.989 20.7946C30.02 20.7363 30.0511 20.6781 30.083 20.618C30.186 20.4243 30.2884 20.2304 30.3909 20.0364C30.4622 19.9018 30.5335 19.7673 30.6048 19.6328C30.7547 19.3502 30.9042 19.0674 31.0536 18.7846C31.2447 18.4227 31.4364 18.0612 31.6283 17.6998C31.7759 17.4217 31.9232 17.1434 32.0704 16.8651C32.1409 16.7318 32.2115 16.5986 32.2823 16.4654C32.3814 16.2786 32.4802 16.0915 32.5788 15.9043C32.635 15.798 32.6912 15.6917 32.7492 15.5822C32.8824 15.311 32.9901 15.0425 33.0871 14.7566C33.0314 14.752 32.9758 14.7474 32.9184 14.7427C32.0437 14.643 31.1413 14.3603 30.5572 13.6672C30.3635 13.3855 30.2015 13.0898 30.0463 12.7855C29.9758 12.6091 29.9758 12.6091 29.8636 12.5794ZM24.3319 20.6058C24.033 21.8056 23.7627 23.0128 23.5168 24.2246C24.804 24.6931 26.0913 25.1616 27.4175 25.6443C27.6803 25.1498 27.9432 24.6553 28.2139 24.1459C28.2968 23.9901 28.3797 23.8343 28.4651 23.6738C28.5307 23.5502 28.5963 23.4266 28.6619 23.303C28.696 23.2389 28.7302 23.1748 28.7654 23.1088C28.8983 22.858 29.022 22.6153 29.1192 22.3482C27.5394 21.7732 25.9596 21.1982 24.3319 20.6058ZM23.3392 25.2643C23.2406 25.626 23.1421 25.9877 23.0406 26.3604C22.8115 27.1449 22.5433 27.707 21.9439 28.2703C21.8428 28.3661 21.7417 28.4618 21.6375 28.5604C23.071 29.0822 24.5045 29.6039 25.9815 30.1415C25.9725 29.8562 25.9591 29.5707 25.9302 29.2867C25.9249 28.8747 26.0053 28.6042 26.1533 28.2212C26.1965 28.107 26.2396 27.9927 26.284 27.875C26.4705 27.4289 26.6795 26.9925 26.8853 26.555C25.7151 26.129 24.5448 25.7031 23.3392 25.2643ZM12.8846 26.6798C11.4578 30.6 10.0309 34.5203 8.56083 38.5593C8.85313 38.423 9.04037 38.3089 9.28739 38.1147C10.1602 37.4662 11.2165 36.8945 12.3111 36.7687C12.9289 36.6952 12.9289 36.6952 13.3933 36.315C13.5405 36.0101 13.6517 35.7074 13.757 35.3856C13.8189 35.2138 13.8189 35.2138 13.8821 35.0386C13.969 34.7971 14.0524 34.5547 14.1334 34.3111C14.2372 33.9994 14.3471 33.6903 14.4593 33.3816C14.5662 33.086 14.6693 32.7892 14.7724 32.4923C14.8119 32.3813 14.8514 32.2704 14.8921 32.1562C14.9264 32.0523 14.9606 31.9485 14.9959 31.8415C15.0268 31.7506 15.0577 31.6596 15.0895 31.5659C15.1253 31.2153 15.0056 31.0704 14.8017 30.7911C14.7468 30.7106 14.6918 30.6302 14.6352 30.5473C14.5776 30.4646 14.5201 30.382 14.4608 30.2968C13.7554 29.2476 13.254 28.1925 13.0202 26.9441C13.0047 26.8675 12.9892 26.791 12.9733 26.7121C12.944 26.7014 12.9148 26.6908 12.8846 26.6798ZM33.8954 34.3271C33.7375 34.4437 33.5817 34.5632 33.4268 34.6836C32.4585 35.4005 31.2376 36.1598 30.0017 36.2031C29.7436 36.2245 29.5648 36.264 29.3327 36.3811C29.0774 36.7327 28.9435 37.1214 28.7978 37.5285C28.7543 37.644 28.7108 37.7595 28.666 37.8784C28.5745 38.1229 28.4857 38.3681 28.3987 38.6141C28.2873 38.9282 28.1685 39.2388 28.0473 39.5492C27.9324 39.8471 27.8248 40.1476 27.7164 40.448C27.6729 40.5587 27.6294 40.6694 27.5846 40.7835C27.3732 41.3851 27.3732 41.3851 27.5329 41.9775C27.7243 42.2268 27.9296 42.4483 28.146 42.6758C28.8491 43.6867 29.2946 44.7781 29.5235 45.9864C29.5473 46.0954 29.5473 46.0954 29.5716 46.2066C29.6009 46.2173 29.6301 46.2279 29.6603 46.2389C31.0871 42.3186 32.514 38.3984 33.9841 34.3594C33.9548 34.3487 33.9255 34.3381 33.8954 34.3271ZM15.9621 32.0166C15.4297 33.4794 14.8972 34.9421 14.3487 36.4492C14.8886 36.5132 15.4286 36.5772 15.9849 36.6432C16.8845 36.824 17.7396 37.165 18.6004 37.4779C18.7652 37.5376 18.9301 37.5972 19.0949 37.6568C19.4393 37.7816 19.7836 37.9067 20.1279 38.0321C20.5658 38.1915 21.0041 38.3497 21.4426 38.5075C21.783 38.6303 22.123 38.7539 22.463 38.8777C22.6243 38.9363 22.7858 38.9946 22.9473 39.0526C24.2805 39.532 25.3987 40.1023 26.5828 40.9021C27.1152 39.4393 27.6476 37.9765 28.1962 36.4694C27.3863 36.3735 27.3863 36.3735 26.56 36.2755C25.6679 36.0957 24.8206 35.7593 23.967 35.449C23.8044 35.3901 23.6417 35.3313 23.4791 35.2724C23.1392 35.1493 22.7995 35.0258 22.4598 34.9021C22.028 34.745 21.5958 34.5891 21.1635 34.4334C20.8276 34.3123 20.4921 34.1904 20.1566 34.0682C19.9976 34.0105 19.8384 33.953 19.6792 33.8958C18.3185 33.4066 17.1719 32.8337 15.9621 32.0166ZM13.3756 37.5195C13.3005 37.5312 13.2255 37.543 13.1481 37.5551C11.0017 37.9187 9.18901 39.0744 7.93146 40.8402C7.46595 41.5489 7.17046 42.2988 6.88314 43.093C6.83422 43.2262 6.78522 43.3594 6.73615 43.4926C6.60409 43.8517 6.47316 44.2113 6.34251 44.5709C6.23284 44.8725 6.12265 45.1739 6.01247 45.4753C5.75223 46.1873 5.49294 46.8996 5.23422 47.612C4.96849 48.3438 4.70114 49.0749 4.43299 49.8058C4.20177 50.4362 3.9716 51.067 3.74223 51.698C3.6057 52.0736 3.46878 52.4491 3.33085 52.8242C3.201 53.1775 3.07248 53.5312 2.9449 53.8853C2.89828 54.014 2.85121 54.1426 2.80364 54.271C2.23878 55.7976 1.98568 57.3687 2.33231 58.9821C2.66684 58.7363 2.80129 58.4532 2.98768 58.0934C3.02534 58.022 3.063 57.9506 3.1018 57.877C3.22803 57.6373 3.35332 57.3971 3.47863 57.1569C3.5685 56.9858 3.65844 56.8147 3.74843 56.6437C3.94177 56.276 4.13471 55.9081 4.32735 55.54C4.63095 54.96 4.93555 54.3805 5.24037 53.8011C5.60853 53.1013 5.97655 52.4013 6.34434 51.7013C7.24478 49.9874 8.14692 48.2744 9.05265 46.5633C9.3234 46.0518 9.59355 45.54 9.86321 45.0279C10.0308 44.7099 10.199 44.3921 10.3674 44.0745C10.4447 43.9284 10.5218 43.7821 10.5987 43.6357C11.6381 41.6569 11.6381 41.6569 12.5176 41.2042C12.5389 41.1457 12.5602 41.0872 12.5822 41.0269C12.8767 40.9914 13.1709 40.963 13.4668 40.9411C13.5446 40.9351 13.6223 40.9291 13.7024 40.9229C14.0675 40.9093 14.3664 40.961 14.7097 41.0844C14.8263 41.126 14.8263 41.126 14.9452 41.1684C15.0296 41.199 15.1141 41.2296 15.201 41.2612C15.2906 41.2933 15.3802 41.3254 15.4725 41.3585C15.769 41.4649 16.0652 41.572 16.3614 41.6793C16.5677 41.7538 16.7739 41.8283 16.9802 41.9028C17.4129 42.0592 17.8455 42.2161 18.278 42.3731C18.8308 42.5738 19.3843 42.7728 19.9378 42.9715C20.3643 43.1248 20.7904 43.2794 21.2164 43.4343C21.4201 43.5081 21.6241 43.5815 21.8281 43.6545C22.1145 43.757 22.4001 43.8612 22.6857 43.9658C22.7693 43.9953 22.8529 44.0248 22.939 44.0551C23.8175 44.3811 24.5146 44.8622 24.9291 45.7216C25.4777 47.0296 24.8394 48.7239 24.5511 50.0518C24.5109 50.2386 24.4707 50.4255 24.4305 50.6124C24.3449 51.0102 24.259 51.408 24.173 51.8056C24.0377 52.431 23.9031 53.0565 23.7686 53.682C23.3603 55.5798 22.95 57.4771 22.5369 59.3739C22.3925 60.0367 22.2487 60.6996 22.1049 61.3626C21.989 61.8965 21.8724 62.4303 21.7553 62.964C21.6833 63.2927 21.6119 63.6215 21.5408 63.9504C21.5077 64.1023 21.4744 64.2542 21.4408 64.4061C21.3953 64.6118 21.3508 64.8177 21.3065 65.0237C21.2814 65.1387 21.2562 65.2537 21.2303 65.3721C21.1656 65.6478 21.1656 65.6478 21.3041 65.8873C22.3312 64.9758 23.2071 63.9969 23.6886 62.6848C23.731 62.5698 23.7734 62.4548 23.8171 62.3363C23.8633 62.2097 23.9095 62.0832 23.9556 61.9566C24.0049 61.8226 24.0542 61.6886 24.1035 61.5546C24.2371 61.1912 24.3701 60.8276 24.5029 60.4639C24.5861 60.2362 24.6693 60.0085 24.7527 59.7808C25.0139 59.0668 25.2748 58.3527 25.5352 57.6384C25.8347 56.8168 26.1353 55.9956 26.4369 55.1748C26.6707 54.5386 26.9034 53.9019 27.1354 53.265C27.2736 52.8855 27.4123 52.5062 27.552 52.1272C27.6837 51.7699 27.8141 51.4122 27.9436 51.0541C27.9909 50.9239 28.0387 50.7937 28.087 50.6638C28.5048 49.5384 28.8075 48.3729 28.6968 47.162C28.6913 47.0932 28.6859 47.0244 28.6803 46.9536C28.4901 44.8673 27.4486 42.9531 25.8571 41.6062C25.614 41.4203 25.37 41.2414 25.1158 41.0709C25.0606 41.0332 25.0053 40.9955 24.9484 40.9566C24.6027 40.7641 24.2398 40.6352 23.8689 40.4989C23.7849 40.4677 23.7008 40.4364 23.6142 40.4042C23.3363 40.3011 23.0581 40.1987 22.7798 40.0964C22.6366 40.0436 22.6366 40.0436 22.4904 39.9898C21.9842 39.8035 21.4778 39.6177 20.9712 39.4324C20.4512 39.242 19.932 39.0496 19.413 38.8567C19.0111 38.7078 18.6086 38.5605 18.206 38.4136C18.0146 38.3434 17.8234 38.2726 17.6324 38.2013C16.2346 37.6796 14.8848 37.2621 13.3756 37.5195ZM12.7591 42.1957C12.3084 42.493 12.1123 42.8827 11.8632 43.3468C11.8144 43.4361 11.7656 43.5255 11.7153 43.6176C11.5323 43.9542 11.3513 44.2917 11.1706 44.6294C11.1339 44.6978 11.0973 44.7662 11.0595 44.8366C10.3528 46.1559 9.65154 47.4781 8.95078 48.8006C8.84445 49.0012 8.73811 49.2018 8.63177 49.4024C8.13316 50.3432 7.63477 51.284 7.13665 52.225C6.56385 53.307 5.99028 54.3886 5.41608 55.4698C4.97008 56.3098 4.5248 57.1501 4.08004 57.9908C3.81519 58.4913 3.55004 58.9917 3.28413 59.4917C3.0348 59.9605 2.78636 60.4298 2.53859 60.8995C2.44772 61.0714 2.35653 61.2431 2.265 61.4147C2.13988 61.6493 2.01593 61.8844 1.89225 62.1198C1.85604 62.187 1.81982 62.2543 1.78251 62.3236C1.49242 62.8805 1.27351 63.436 1.34645 64.0699C1.60158 64.7409 1.92102 65.1255 2.57222 65.4258C3.05366 65.592 3.51397 65.5616 3.9813 65.3591C4.40082 65.1253 4.71121 64.8701 4.93511 64.4461C4.97072 64.3794 5.00632 64.3127 5.04301 64.2439C5.08123 64.1708 5.11945 64.0978 5.15882 64.0225C5.20016 63.9446 5.24149 63.8667 5.28408 63.7865C5.42292 63.5245 5.5609 63.2621 5.69889 62.9998C5.7984 62.8116 5.89797 62.6234 5.99759 62.4353C6.26906 61.9223 6.53977 61.4089 6.81034 60.8954C7.09437 60.3566 7.37899 59.8181 7.66355 59.2796C8.02249 58.6001 8.38133 57.9206 8.7398 57.2409C8.77031 57.183 8.80082 57.1252 8.83226 57.0656C8.86289 57.0075 8.89352 56.9494 8.92508 56.8896C9.66034 55.4955 10.3972 54.1022 11.1348 52.7093C11.5476 51.9295 11.9601 51.1495 12.3725 50.3694C12.6795 49.7886 12.9867 49.2078 13.2943 48.6273C13.5845 48.0795 13.8741 47.5315 14.1633 46.9834C14.2698 46.7817 14.3765 46.5802 14.4833 46.3788C14.6296 46.103 14.7753 45.8269 14.9208 45.5506C14.9632 45.471 15.0056 45.3914 15.0493 45.3094C15.595 44.2946 15.595 44.2946 15.5534 43.1849C15.3366 42.5712 14.9797 42.2566 14.407 41.9609C13.7978 41.8198 13.3049 41.8782 12.7591 42.1957ZM16.7407 42.8417C16.5874 43.1882 16.5874 43.1882 16.6357 43.5439C16.6605 44.5081 16.0377 45.5301 15.6596 46.3637C16.8298 46.7896 18 47.2156 19.2057 47.6544C19.3535 47.1118 19.3535 47.1118 19.5043 46.5583C19.8013 45.5997 20.0926 45.0135 20.8188 44.326C19.473 43.8362 18.1272 43.3464 16.7407 42.8417ZM21.4562 45.1984C20.9131 45.4751 20.7463 45.83 20.5535 46.3785C20.3319 47.1124 20.1873 47.8665 20.0287 48.616C19.987 48.8109 19.9451 49.0058 19.9033 49.2007C19.7896 49.7304 19.6767 50.2603 19.564 50.7903C19.4452 51.3489 19.3256 51.9074 19.2061 52.4658C19.0543 53.1749 18.9027 53.884 18.7513 54.5932C18.4062 56.2093 18.0578 57.8246 17.7071 59.4394C17.6064 59.9032 17.5059 60.3671 17.4054 60.831C17.3914 60.8959 17.3773 60.9609 17.3628 61.0277C17.2924 61.3529 17.222 61.678 17.1517 62.0031C17.0133 62.6421 16.8747 63.281 16.7355 63.9199C16.604 64.5231 16.4734 65.1266 16.3433 65.7302C16.2952 65.9525 16.2468 66.1748 16.1982 66.397C16.1315 66.7018 16.0658 67.0068 16.0003 67.3118C15.9808 67.3998 15.9613 67.4878 15.9412 67.5784C15.7613 68.427 15.6517 69.229 16.0879 70.0126C16.4366 70.426 16.7959 70.6539 17.3209 70.7625C18.0006 70.7777 18.54 70.658 19.0379 70.1827C19.4963 69.2705 19.6829 68.2303 19.8903 67.2384C19.924 67.0807 19.9578 66.923 19.9917 66.7654C20.0828 66.3402 20.1727 65.9147 20.2625 65.4892C20.3579 65.0377 20.4545 64.5864 20.5509 64.135C20.7342 63.2765 20.9165 62.4178 21.0985 61.5591C21.3217 60.5059 21.546 59.453 21.7704 58.4001C22.0061 57.2941 22.2417 56.1881 22.4763 55.0819C22.7989 53.5618 23.122 52.0419 23.4556 50.5242C23.4807 50.41 23.5057 50.2958 23.5315 50.1782C23.6417 49.6753 23.7526 49.1726 23.8653 48.6703C23.9023 48.5019 23.9394 48.3335 23.9764 48.1651C24.0011 48.0573 24.0011 48.0573 24.0263 47.9473C24.2014 47.1419 24.265 46.4772 23.8238 45.7586C23.2378 44.9837 22.3251 44.8271 21.4562 45.1984ZM15.1274 47.2744C14.8765 47.7359 14.6257 48.1975 14.3673 48.6731C14.2883 48.818 14.2094 48.9629 14.128 49.1122C14.0652 49.2281 14.0025 49.344 13.9397 49.4599C13.9073 49.5192 13.8748 49.5785 13.8414 49.6397C13.6748 49.9482 13.5464 50.2389 13.4257 50.5705C15.0055 51.1455 16.5853 51.7205 18.2129 52.3129C18.5119 51.1131 18.7822 49.9059 19.0281 48.6941C17.7408 48.2256 16.4536 47.7571 15.1274 47.2744ZM12.8934 51.4812C11.0928 54.8381 11.0928 54.8381 9.33688 58.2185C9.40995 58.2237 9.48301 58.229 9.55829 58.2345C9.70249 58.2455 9.70249 58.2455 9.84961 58.2568C9.94478 58.264 10.04 58.2711 10.138 58.2784C10.8388 58.3535 11.3977 58.6752 11.9078 59.1542C12.1032 59.4058 12.2643 59.6689 12.4234 59.9443C12.5087 60.0764 12.5945 60.2082 12.6813 60.3393C12.7647 60.2806 12.8482 60.222 12.9342 60.1615C13.5852 59.7903 14.2599 59.7943 14.9725 59.9747C15.4927 60.1379 15.9256 60.3714 16.3727 60.6789C16.6424 59.7787 16.8616 58.8765 17.0555 57.9571C17.0841 57.8232 17.1127 57.6893 17.1414 57.5554C17.2157 57.2078 17.2895 56.86 17.3631 56.5122C17.4522 56.0924 17.5419 55.6727 17.6315 55.253C17.7666 54.6197 17.9009 53.9861 18.0353 53.3526C16.3385 52.7351 14.6417 52.1175 12.8934 51.4812Z" fill="#1E1E1E"/>
</svg>
