<svg width="54" height="77" viewBox="0 0 54 77" fill="none" xmlns="http://www.w3.org/2000/svg">
<path d="M26.0407 0.264088C26.4641 0.418178 26.8874 0.572269 27.3236 0.73103C27.2747 0.812406 27.2258 0.893782 27.1754 0.977624C26.9521 1.3492 26.7291 1.72095 26.5061 2.09271C26.4291 2.22073 26.3521 2.34875 26.2728 2.48065C25.6325 3.51669 25.6325 3.51669 25.1087 4.61286C24.9862 4.94013 24.8681 5.26863 24.7515 5.59805C24.7108 5.71137 24.6702 5.82469 24.6283 5.94145C24.5288 6.21887 24.43 6.49648 24.3316 6.77427C24.2384 7.4927 24.1941 8.20589 24.2131 8.93016C24.3211 11.2721 24.5776 13.6058 24.8273 15.936C25.1534 16.9897 25.1534 16.9897 25.5855 18.0033C25.6622 18.1623 25.6622 18.1623 25.7405 18.3244C25.7972 18.4388 25.7972 18.4388 25.8551 18.5555C26.3358 19.1903 26.8389 19.7925 27.4201 20.3378C28.6376 21.4249 29.9092 22.4408 31.2191 23.4136C32.0274 23.7077 32.8356 24.0019 33.6683 24.305C34.8246 24.3678 34.8246 24.3678 35.9798 24.3244C36.1934 24.2865 36.4052 24.2394 36.6162 24.1892C36.6932 24.2172 36.7701 24.2453 36.8494 24.2741C36.9475 24.0047 37.0456 23.7353 37.1466 23.4577C36.8947 22.3999 36.5873 21.3866 36.1626 20.3841C35.923 19.8335 35.6784 19.2853 35.4302 18.7386C35.3925 18.6546 35.3548 18.5706 35.3159 18.484C35.0318 17.8516 34.7372 17.2324 34.3985 16.6274C33.6382 15.2537 32.9324 13.8096 32.3773 12.3402C32.1537 11.6711 32.0336 10.9993 31.9299 10.3034C31.8801 9.8594 31.8511 9.42886 31.849 8.98207C31.892 8.42944 31.9601 7.88527 32.0509 7.33855C32.7163 5.33676 32.7163 5.33676 33.0814 4.61415C33.3421 4.15062 33.628 3.70577 33.929 3.26727C33.9815 3.24279 34.034 3.21831 34.0881 3.19309C34.4345 3.31916 34.7809 3.44524 35.1377 3.57513C35.0973 3.66017 35.0568 3.7452 35.0151 3.83282C34.6121 4.70404 34.2594 5.58575 33.9294 6.48683C33.8895 6.59467 33.8497 6.70252 33.8086 6.81364C33.5823 7.43975 33.4039 8.05454 33.27 8.70679C33.3971 8.70844 33.5242 8.71009 33.6551 8.71179C33.8276 8.71503 34.0001 8.71831 34.1726 8.72163C34.2972 8.72307 34.2972 8.72307 34.4244 8.72453C35.0051 8.73691 35.5751 8.784 36.1485 8.87773C36.7733 9.01582 37.3639 9.24506 37.9606 9.47297C38.1524 9.54456 38.1524 9.54456 38.348 9.6176C38.6597 9.73413 38.971 9.85174 39.2819 9.9704C40.2536 10.5917 41.1579 11.2393 42.0106 12.0177C42.2343 12.2246 42.4541 12.4328 42.6637 12.6541C43.0846 11.9781 43.5054 11.3014 43.8535 10.5844C43.9785 10.2684 44.0767 9.96233 44.1597 9.63252C44.2936 8.97177 44.3932 8.30626 44.489 7.63912C44.5206 7.43267 44.5521 7.22623 44.5847 7.01353C45.008 7.16762 45.4314 7.32171 45.8676 7.48047C45.8114 8.25486 45.7565 8.99426 45.57 9.74958C45.4292 10.1855 45.2734 10.6153 45.115 11.0451C45.0744 11.1581 45.0337 11.2711 44.9919 11.3875C44.8271 11.8384 44.6631 12.2656 44.4339 12.6881C44.3781 12.782 44.3223 12.876 44.2648 12.9727C44.1886 13.1595 44.1167 13.3481 44.0506 13.5386C44.0184 13.6301 43.9863 13.7216 43.9533 13.8159C43.93 13.884 43.9067 13.9522 43.8827 14.0224C44.3866 15.0445 44.9509 15.9967 45.5822 16.9446C46.1719 17.8346 46.7691 18.7586 47.2212 19.7282C47.9613 18.902 48.5988 18.037 49.1996 17.105C49.2631 17.0069 49.3266 16.9087 49.392 16.8076C49.8498 16.0874 50.2408 15.3571 50.5732 14.5713C51.0677 13.2381 51.4296 11.8709 51.7939 10.4974C51.8674 10.2382 51.9567 9.98351 52.0489 9.73028C52.4337 9.87037 52.8186 10.0104 53.2152 10.1548C52.4601 13.8359 52.4601 13.8359 52.0692 14.9135C51.6938 15.8509 51.2436 16.7454 50.7166 17.6064C50.1519 18.4795 49.5201 19.3073 48.8921 20.1354C48.6449 20.463 48.404 20.7947 48.1645 21.1281C48.077 21.4885 47.9894 21.8489 47.8991 22.2203C47.9376 22.424 47.9376 22.424 47.9768 22.6319C48.191 23.8116 48.3481 24.9796 48.3727 26.1796C48.3721 27.095 48.2508 27.9978 48.1092 28.9007C48.0918 29.0124 48.0744 29.124 48.0564 29.2391C47.9555 29.7173 47.8033 30.1695 47.6392 30.6287C47.606 30.7224 47.5729 30.816 47.5387 30.9125C46.2786 34.4494 46.2786 34.4494 45.5536 35.7321C45.3979 35.9952 45.237 36.2544 45.0743 36.5132C44.9804 36.6659 44.9804 36.6659 44.8847 36.8217C43.7815 38.6029 42.5102 40.225 41.16 41.8246C41.0199 42.2094 40.8798 42.5943 40.7355 42.9908C40.7536 43.1255 40.7717 43.2601 40.7903 43.3988C40.9583 44.7057 41.0704 45.9989 41.0099 47.3173C40.9346 48.4502 40.771 49.5777 40.509 50.6828C40.2199 51.8183 39.8293 52.91 39.3485 53.9783C38.5931 55.5982 37.7575 57.1838 36.7441 58.6582C35.6941 60.1155 34.5687 61.5634 33.36 62.8919C33.262 63.1613 33.1639 63.4307 33.0629 63.7083C33.0688 63.8253 33.0748 63.9424 33.0809 64.063C33.2829 68.1368 33.2829 68.1368 33.1218 69.5918C32.9485 70.9162 32.6978 72.2439 32.2985 73.5196C32.0368 74.2986 31.7045 75.0287 31.3203 75.7536C31.1978 75.9734 31.0745 76.1928 30.949 76.4109C30.8965 76.4354 30.844 76.4599 30.7899 76.4851C30.3666 76.331 29.9432 76.1769 29.507 76.0182C29.5745 75.8383 29.5745 75.8383 29.6434 75.6548C29.814 75.1997 29.9828 74.744 30.1512 74.2881C30.2236 74.0927 30.2965 73.8976 30.3697 73.7026C30.8722 72.3646 31.2893 71.0388 31.566 69.6353C31.6345 69.2328 31.685 68.8342 31.7168 68.4272C31.7252 68.3265 31.7335 68.2258 31.7421 68.1221C31.803 67.268 31.7954 66.4265 31.7152 65.574C31.6148 64.675 31.4717 63.7874 31.2393 62.9125C31.0367 62.235 30.7816 61.581 30.5082 60.9293C30.4589 60.8101 30.4589 60.8101 30.4087 60.6884C30.0584 59.8524 29.6606 59.057 29.1738 58.2917C28.4845 57.247 27.7084 56.2836 26.8516 55.3719C26.1545 54.6408 25.4432 53.9245 24.6291 53.3232C24.2635 53.0607 23.8895 52.8188 23.5122 52.5715C22.6655 52.2634 21.8188 51.9552 20.9464 51.6377C19.9117 51.5406 18.8897 51.4473 17.8502 51.4353C18.2054 52.518 18.6192 53.5628 19.071 54.6081C19.2791 55.0898 19.4804 55.5696 19.6574 56.0637C19.9174 56.7529 20.2679 57.398 20.6051 58.0517C21.3072 59.415 21.9862 60.796 22.502 62.2418C22.5322 62.3234 22.5624 62.4049 22.5935 62.4889C23.1182 63.9085 23.5642 65.3307 23.8496 66.8189C23.9851 67.5958 24.0609 68.3669 24.0799 69.1559C24.065 69.7594 24.016 70.3583 23.9521 70.9585C23.5258 72.5319 23.5258 72.5319 23.2959 73.0677C23.1951 73.262 23.0866 73.4522 22.9758 73.641C22.5524 73.4869 22.1291 73.3328 21.6929 73.1741C21.9661 72.1839 22.2394 71.1937 22.5209 70.1734C22.5455 69.7465 22.5701 69.3196 22.5955 68.8798C22.5151 68.5019 22.4347 68.1239 22.3519 67.7345C22.1455 67.703 21.939 67.6714 21.7263 67.6389C21.5982 67.6529 21.47 67.6668 21.3379 67.6812C20.3335 67.7841 19.3601 67.8412 18.3497 67.7689C17.8424 67.7181 17.3756 67.6204 16.8859 67.4827C16.5692 67.3815 16.2722 67.2649 15.9687 67.1282C15.0548 66.6347 14.1791 66.0952 13.3572 65.458C13.2749 65.3921 13.2749 65.3921 13.191 65.3248C12.9601 65.2407 12.7292 65.1567 12.4912 65.0701C12.3904 65.175 12.2895 65.28 12.1856 65.3881C12.1289 65.4471 12.0722 65.5062 12.0137 65.567C11.8383 65.7659 11.698 65.9578 11.5578 66.1832C11.458 66.4045 11.3633 66.6281 11.2722 66.8531C11.2199 66.9814 11.1677 67.1097 11.1139 67.2418C11.0601 67.3753 11.0064 67.5088 10.951 67.6463C10.8686 67.849 10.8686 67.849 10.7846 68.0558C10.6493 68.3892 10.5146 68.7228 10.3799 69.0565C9.95657 68.9024 9.53321 68.7483 9.09702 68.5895C9.31218 67.5659 9.67393 66.6079 10.0416 65.6314C10.3252 65.2115 10.6087 64.7917 10.9009 64.3592C11.1004 64.1703 11.2999 63.9814 11.5055 63.7868C11.3271 63.6782 11.1486 63.5697 10.9648 63.4579C10.4401 62.9024 9.92471 62.3534 9.49528 61.7204C9.29775 61.3937 9.10708 61.0643 8.91907 60.7321C8.78195 60.5055 8.64434 60.2791 8.50573 60.0534C8.1165 59.0243 7.81166 58.0022 7.56528 56.9312C7.51005 56.6918 7.45196 56.4531 7.39347 56.2145C7.34451 56.1095 7.29555 56.0045 7.24511 55.8963C6.77958 56.3371 6.31405 56.7779 5.83442 57.232C4.84005 58.9357 3.9741 60.6916 3.11236 62.4654C2.96925 62.7589 2.82609 63.0523 2.68287 63.3456C2.33578 64.0569 1.98937 64.7685 1.64351 65.4804C1.563 65.5819 1.48249 65.6833 1.39954 65.7879C0.976176 65.6338 0.552814 65.4797 0.116623 65.3209C0.148177 65.1145 0.179731 64.908 0.212242 64.6953C0.78699 63.313 1.42561 61.9772 2.12144 60.6519C2.16966 60.5597 2.21788 60.4676 2.26755 60.3726C3.71824 57.6043 3.71824 57.6043 4.51978 56.4893C4.86189 56.0671 5.22122 55.6789 5.61231 55.302C5.70865 55.2085 5.80499 55.1151 5.90424 55.0188C6.14054 54.7928 6.37991 54.57 6.61995 54.348C6.76003 53.9631 6.90011 53.5782 7.04444 53.1817C7.03448 52.4167 6.98557 51.6785 6.88539 50.9197C6.78004 50.0856 6.76908 49.2771 6.7957 48.4375C6.84219 47.8492 6.8994 47.28 7.02514 46.7028C7.20358 46.0905 7.41462 45.4922 7.63406 44.8937C7.66536 44.8076 7.69665 44.7215 7.72889 44.6327C8.30742 43.0519 8.98674 41.523 9.7039 40.0007C9.77686 39.8453 9.77686 39.8453 9.85129 39.6867C10.3404 38.6491 10.8467 37.625 11.417 36.6294C11.459 36.5558 11.5009 36.4823 11.5442 36.4065C11.8204 35.9355 12.1321 35.5124 12.4809 35.0927C12.9297 34.6027 13.41 34.1747 13.9347 33.7676C14.1348 33.6187 14.3356 33.4708 14.5365 33.3231C14.6346 33.0537 14.7326 32.7843 14.8337 32.5067C14.8243 32.4083 14.8149 32.3098 14.8052 32.2084C14.7623 31.7528 14.7214 31.297 14.6804 30.8412C14.6656 30.6864 14.6508 30.5316 14.6355 30.3722C14.555 29.4597 14.5263 28.5734 14.5882 27.659C14.6683 26.7888 14.8332 25.9499 15.0508 25.1037C15.5839 23.2259 16.2795 21.3607 17.1296 19.6035C17.6657 18.5416 18.2602 17.5127 18.8711 16.4923C18.9363 16.3834 19.0014 16.2744 19.0685 16.1622C19.519 15.4299 20.028 14.7763 20.5969 14.1322C20.7091 14.0523 20.7091 14.0523 20.8236 13.9709C21.4232 13.5425 21.9612 13.0922 22.4848 12.574C22.5724 12.2136 22.66 11.8532 22.7503 11.4819C22.7422 11.3112 22.7342 11.1406 22.7259 10.9648C22.6736 9.72779 22.656 8.52109 22.7828 7.28884C22.8459 6.81992 22.911 6.36345 23.0452 5.90868C23.2877 5.16099 23.5421 4.40332 23.8982 3.70132C24.0878 3.36473 24.2952 3.04091 24.5052 2.7167C24.8085 2.24702 25.0876 1.76637 25.3651 1.28118C25.4124 1.19894 25.4596 1.11669 25.5083 1.03195C25.6188 0.839705 25.729 0.647316 25.8392 0.454895C25.9057 0.391929 25.9722 0.328962 26.0407 0.264088ZM36.0159 10.2345C35.421 10.1924 34.8262 10.1502 34.2133 10.1068C33.9981 10.1592 33.9981 10.1592 33.7785 10.2127C33.6945 10.4436 33.6104 10.6745 33.5238 10.9124C33.9519 12.0748 34.3924 13.2288 34.8769 14.3689C35.0824 14.8525 35.278 15.3382 35.4655 15.8292C35.6678 16.3446 35.9102 16.8146 36.1842 17.2949C36.7874 18.4059 37.3034 19.5754 37.7306 20.7645C37.7607 20.8448 37.7908 20.9251 37.8218 21.0078C38.3461 22.4075 38.7574 23.8077 39.0474 25.2748C39.1702 25.9393 39.2677 26.5958 39.3098 27.271C39.3076 27.9667 39.213 28.6351 39.1065 29.3222C38.8124 30.1304 38.5182 30.9386 38.2151 31.7714C37.851 32.2926 37.487 32.8139 37.1119 33.351C37.0138 33.6204 36.9157 33.8898 36.8147 34.1674C36.8706 34.4928 36.9265 34.8183 36.9841 35.1536C37.0507 35.2563 37.1173 35.3591 37.186 35.4649C38.2042 37.0449 39.1224 38.6692 39.9834 40.3397C40.0849 40.4202 40.1863 40.5007 40.2908 40.5837C41.2976 39.4913 42.1963 38.3238 43.017 37.0852C43.586 36.1559 44.0926 35.1932 44.5872 34.2227C44.6408 34.1181 44.6943 34.0135 44.7495 33.9057C45.3555 32.7118 45.9117 31.508 46.3062 30.2256C46.5969 29.2148 46.8184 28.1913 46.94 27.1461C47.0199 26.3416 47.0113 25.55 46.9503 24.7443C46.8613 23.7523 46.6967 22.7928 46.4533 21.8266C46.0854 20.5514 45.5528 19.3502 44.9726 18.158C44.5249 17.2682 44.0262 16.4268 43.4392 15.6217C42.7957 14.7678 42.1154 13.9512 41.3358 13.2174C40.4953 12.4599 39.6557 11.8215 38.6983 11.2109C37.8131 10.8887 36.9279 10.5665 36.0159 10.2345ZM22.9509 14.1965C22.4889 14.5078 22.0269 14.8191 21.551 15.1398C20.9054 15.9411 20.351 16.7561 19.8311 17.6424C19.7767 17.7344 19.7223 17.8264 19.6663 17.9212C18.785 19.4459 18.0515 21.0171 17.4467 22.6704C17.4103 22.7711 17.3739 22.8719 17.3364 22.9757C17.2255 23.2818 17.1114 23.5866 16.9971 23.8915C16.6766 24.7616 16.3846 25.6231 16.2085 26.5349C16.066 27.3525 15.9552 28.1703 15.9527 29.0012C15.9516 29.1605 15.9516 29.1605 15.9505 29.323C15.9694 31.1985 16.2814 33.0748 16.6068 34.9181C16.7964 35.9332 17.0162 36.9316 17.3697 37.9039C17.5916 38.4481 17.8362 38.9798 18.0976 39.5062C18.6611 40.2394 19.2547 40.9184 19.9333 41.5472C20.9912 42.5009 22.0684 43.3968 23.2708 44.1627C23.3517 44.2179 23.4326 44.273 23.5159 44.3298C23.9563 44.5708 24.4223 44.7276 24.8949 44.8942C25.0415 44.9466 25.0415 44.9466 25.191 45.0001C25.4307 45.0858 25.6707 45.1708 25.9108 45.2557C26.4147 45.3083 26.9186 45.361 27.4377 45.4152C28.0746 45.3419 28.7115 45.2686 29.3676 45.1931C29.5391 45.0811 29.7106 44.9692 29.8873 44.8539C29.5531 43.5304 29.2077 42.2412 28.6606 40.9878C28.586 40.8235 28.511 40.6594 28.4359 40.4953C28.3897 40.3935 28.3436 40.2917 28.296 40.1867C27.6598 38.7742 27.6598 38.7742 26.9455 37.4006C26.529 36.6538 26.1614 35.8841 25.7978 35.1105C25.7618 35.0341 25.7258 34.9577 25.6887 34.879C25.2433 33.9285 24.8374 32.9816 24.5561 31.9675C24.4774 31.6717 24.4042 31.3762 24.335 31.078C24.2641 30.084 24.2528 29.1101 24.3362 28.1165C24.438 27.2446 24.618 26.4057 24.8603 25.5625C25.0161 25.0934 25.1875 24.644 25.4208 24.2073C25.6339 23.8306 25.8573 23.4619 26.0849 23.0937C26.321 22.7074 26.5353 22.3182 26.7448 21.9171C26.6602 21.8208 26.5755 21.7244 26.4884 21.6251C25.9697 21.0281 25.4577 20.4375 25.0342 19.7674C24.9213 19.5761 24.8095 19.3841 24.6991 19.1914C24.6438 19.1028 24.5885 19.0142 24.5316 18.923C24.3573 18.6322 24.2047 18.3435 24.0632 18.0354C23.7808 17.2715 23.5648 16.5003 23.4141 15.7008C23.3302 15.2287 23.255 14.7556 23.1842 14.2814C23.1072 14.2534 23.0302 14.2253 22.9509 14.1965ZM36.8915 25.6102C36.7517 25.6215 36.6119 25.6327 36.4678 25.6443C34.7684 25.7732 34.7684 25.7732 34.0072 25.7326C33.5019 25.6796 33.0281 25.5597 32.541 25.4206C32.1621 25.308 31.7856 25.1894 31.4095 25.0678C30.7779 24.7447 30.1635 24.4136 29.5834 24.0038C29.2633 23.7607 28.9458 23.5153 28.6319 23.2643C28.4009 23.1803 28.17 23.0962 27.9321 23.0096C27.7606 23.1216 27.5891 23.2335 27.4124 23.3488C27.2236 23.6507 27.0619 23.9554 26.9266 24.2849C26.801 24.6167 26.6794 24.9498 26.5596 25.2837C26.5166 25.4025 26.4736 25.5212 26.4294 25.6435C26.1086 26.5407 25.825 27.4408 25.5871 28.3638C25.6605 28.5213 25.734 28.6788 25.8096 28.8411C26.1175 28.9531 26.4254 29.0652 26.7426 29.1807C27.6594 29.2964 28.5762 29.4122 29.5207 29.5314C30.098 29.7415 30.6753 29.9517 31.2701 30.1681C32.692 31.0472 34.051 31.995 35.3942 32.99C35.4711 33.018 35.5481 33.046 35.6274 33.0749C35.9911 32.6733 36.3374 32.2676 36.6385 31.8166C36.8669 31.4333 37.0366 31.0415 37.1952 30.6257C37.398 30.077 37.5913 29.5252 37.7812 28.9718C37.8654 28.2615 37.9496 27.5512 38.0363 26.8194C37.9664 26.5324 37.8965 26.2454 37.8245 25.9498C37.5166 25.8377 37.2087 25.7257 36.8915 25.6102ZM28.863 30.6128C28.1911 30.5426 27.5193 30.4724 26.8271 30.4001C26.3967 30.505 26.3967 30.505 25.9575 30.6119C25.877 30.7134 25.7965 30.8148 25.7136 30.9194C26.0679 31.9995 26.4794 33.0427 26.9322 34.0848C27.1298 34.5404 27.3181 34.9942 27.4843 35.4623C27.6658 35.9543 27.905 36.3958 28.1633 36.8512C28.4596 37.3887 28.7135 37.9459 28.9713 38.5027C29.0512 38.6729 29.0512 38.6729 29.1328 38.8465C29.4758 39.5839 29.7809 40.3292 30.0687 41.0896C30.1282 41.2371 30.1878 41.3846 30.2491 41.5366C30.8302 43.0232 31.2184 44.5542 31.5411 46.1162C31.6643 46.7577 31.7457 47.3925 31.7632 48.0462C31.7404 48.6897 31.6748 49.3267 31.593 49.9654C31.3982 50.6007 31.1867 51.2253 30.9138 51.8315C30.6334 52.3544 30.3241 52.8594 30.016 53.3663C29.7555 53.7991 29.5014 54.2227 29.3097 54.6909C29.1984 55.0013 29.093 55.3096 29.004 55.627C29.6851 56.8582 30.3914 58.067 31.1418 59.2571C31.4128 59.6882 31.6807 60.1212 31.9491 60.554C32.0478 60.7129 32.1464 60.8718 32.2451 61.0306C32.3511 61.2012 32.3511 61.2012 32.4592 61.3753C32.5361 61.4033 32.6131 61.4313 32.6924 61.4602C34.2615 59.5557 35.7433 57.6359 36.9781 55.4915C37.6082 54.3624 38.122 53.1862 38.5553 51.9683C38.9137 50.9164 39.184 49.8609 39.3642 48.7643C39.5282 47.6842 39.6448 46.6052 39.6273 45.5116C39.5982 44.7154 39.5103 43.942 39.3616 43.1594C39.1746 42.3427 38.9307 41.5581 38.6366 40.7741C38.5931 40.6528 38.5495 40.5316 38.5046 40.4067C38.1506 39.4698 37.7046 38.5966 37.1984 37.7344C36.4549 36.5079 35.5614 35.3829 34.6224 34.301C34.083 33.6921 33.5296 33.1152 32.8918 32.6075C32.3382 32.2065 31.7684 31.8352 31.1955 31.4618C30.4258 31.1816 29.656 30.9015 28.863 30.6128ZM15.0451 34.829C14.4308 35.2592 14.4308 35.2592 13.8042 35.6981C12.972 36.8775 12.2559 38.0873 11.5862 39.3651C11.4965 39.5343 11.4066 39.7035 11.3166 39.8726C11.0714 40.335 10.8297 40.7991 10.5896 41.2642C10.5371 41.3656 10.4846 41.4671 10.4305 41.5717C9.72626 42.9807 9.21885 44.5064 8.73255 46.0035C8.56986 46.561 8.44809 47.1154 8.37065 47.6909C8.24191 48.9063 8.1899 50.119 8.26594 51.3397C8.38901 52.8361 8.6315 54.3164 8.89203 55.7941C8.91601 55.9306 8.93998 56.067 8.96468 56.2076C9.14165 57.1649 9.37038 58.0993 9.67244 59.0251C9.79204 59.3351 9.9253 59.6231 10.0725 59.9219C10.1371 60.0549 10.2018 60.1879 10.2684 60.325C10.4078 60.6237 10.4078 60.6237 10.6191 60.8937C11.0292 61.4326 11.4431 61.9504 11.9179 62.4339C13.0986 63.5157 14.3979 64.5367 15.7434 65.4062C16.0025 65.5606 16.0025 65.5606 16.2549 65.6625C16.3753 65.7052 16.3753 65.7052 16.4981 65.7489C16.5858 65.7804 16.6735 65.8119 16.7638 65.8443C16.8539 65.876 16.9439 65.9077 17.0367 65.9403C17.1288 65.9732 17.2209 66.0061 17.3158 66.0401C17.5418 66.1208 17.768 66.2007 17.9942 66.2805C18.4981 66.3332 19.002 66.3858 19.5211 66.44C19.6771 66.4221 19.8332 66.4041 19.9939 66.3856C20.9982 66.2701 20.9982 66.2701 22.0025 66.1545C22.02 65.9865 22.0376 65.8186 22.0556 65.6455C21.712 64.1132 21.2347 62.6645 20.6307 61.2141C20.2043 60.2049 19.7681 59.2032 19.2368 58.2441C18.4578 56.8372 17.6606 55.384 17.0903 53.8787C16.8609 53.1449 16.6934 52.406 16.5872 51.6444C16.5352 51.1632 16.5224 50.6853 16.5244 50.2015C16.5247 50.1156 16.5249 50.0296 16.5252 49.941C16.5424 49.2975 16.6325 48.6713 16.7566 48.04C16.9347 47.3104 17.2 46.6146 17.4661 45.9133C17.5215 45.7642 17.577 45.6152 17.6341 45.4616C17.7694 45.0984 17.9057 44.7356 18.0431 44.3732C18.2846 44.0689 18.5262 43.7645 18.775 43.4509C18.8591 43.22 18.9431 42.9891 19.0297 42.7512C18.853 42.4364 18.6679 42.1373 18.4431 41.8543C18.247 41.6228 18.0486 41.3937 17.8485 41.1656C17.7796 41.0862 17.7107 41.0068 17.6397 40.925C17.471 40.7308 17.3018 40.5371 17.1324 40.3436C16.7508 39.6801 16.3665 39.0114 16.1051 38.2899C15.918 37.6985 15.7683 37.098 15.6278 36.494C15.5908 36.3351 15.5538 36.1762 15.5156 36.0125C15.4334 35.6469 15.354 35.281 15.2783 34.9139C15.2013 34.8859 15.1244 34.8579 15.0451 34.829ZM29.5687 46.455C29.4503 46.4725 29.3319 46.49 29.2099 46.5081C28.5209 46.6029 27.8363 46.6932 27.1395 46.6697C26.4022 46.6204 25.6978 46.5367 24.9774 46.3688C24.495 46.2326 24.0367 46.0613 23.5778 45.8594C22.7117 45.4064 21.8922 44.882 21.1076 44.2999C20.7997 44.1879 20.4918 44.0758 20.1746 43.9603C20.0171 44.0338 19.8596 44.1072 19.6973 44.1829C19.6028 44.3228 19.5083 44.4628 19.4109 44.6069C18.8786 46.0695 18.3463 47.532 17.7978 49.0388C17.8152 49.3503 17.8327 49.6617 17.8506 49.9826C17.9231 49.9865 17.9955 49.9904 18.0702 49.9944C18.4283 50.0143 18.7862 50.0357 19.1442 50.0572C19.2937 50.0656 19.4432 50.074 19.5972 50.0827C20.948 50.1665 20.948 50.1665 21.4525 50.2699C22.2101 50.4924 22.9526 50.7206 23.6633 51.0704C24.454 51.4837 25.2077 51.9465 25.9167 52.4887C26.6235 53.0472 27.2767 53.6532 27.9016 54.3012C28.0782 54.0519 28.2542 53.8023 28.4301 53.5525C28.4796 53.4827 28.5291 53.4128 28.5801 53.3409C28.8717 52.9257 29.1492 52.5181 29.3762 52.0643C29.5574 51.6073 29.7232 51.1453 29.8876 50.682C29.9325 50.557 29.9774 50.432 30.0236 50.3033C30.1338 49.9963 30.2433 49.6891 30.3526 49.3818C30.3947 48.787 30.4369 48.1921 30.4803 47.5792C30.4349 47.3448 30.3895 47.1103 30.3427 46.8688C30.0873 46.7322 29.8319 46.5957 29.5687 46.455Z" fill="#0F0F0F"/>
</svg>
