<svg width="17" height="13" viewBox="0 0 17 13" fill="none" xmlns="http://www.w3.org/2000/svg">
<path id="discord" fill-rule="evenodd" clip-rule="evenodd" d="M14.3024 1.07763C13.2667 0.578839 12.1561 0.211353 10.9948 0.000883263C10.9737 -0.00317924 10.9526 0.0069687 10.9417 0.0272731C10.7988 0.293919 10.6406 0.641775 10.5298 0.91519C9.28077 0.71893 8.03821 0.71893 6.8148 0.91519C6.70398 0.635698 6.54002 0.293919 6.39654 0.0272731C6.38564 0.00764307 6.36452 -0.00250486 6.34337 0.000883263C5.18275 0.210679 4.07209 0.578165 3.03573 1.07763C3.02676 1.08169 3.01908 1.08846 3.01397 1.09726C0.907291 4.40058 0.330188 7.62271 0.613295 10.8049C0.614579 10.8205 0.622899 10.8353 0.634437 10.8448C2.02436 11.9161 3.37073 12.5665 4.69211 12.9976C4.71326 13.0044 4.73567 12.9963 4.74913 12.978C5.0617 12.53 5.34033 12.0576 5.57923 11.5608C5.59333 11.5317 5.57987 11.4972 5.55106 11.4857C5.1091 11.3098 4.68827 11.0953 4.28347 10.8516C4.25145 10.832 4.24888 10.7839 4.27834 10.7609C4.36352 10.6939 4.44873 10.6242 4.53008 10.5538C4.54479 10.541 4.5653 10.5382 4.5826 10.5463C7.24204 11.8207 10.1211 11.8207 12.7492 10.5463C12.7665 10.5376 12.787 10.5402 12.8024 10.5532C12.8837 10.6235 12.969 10.6939 13.0548 10.7609C13.0842 10.7839 13.0823 10.832 13.0503 10.8516C12.6454 11.1 12.2246 11.3098 11.782 11.485C11.7532 11.4966 11.7404 11.5317 11.7545 11.5608C11.9985 12.0569 12.2771 12.5293 12.5839 12.9773C12.5967 12.9963 12.6198 13.0044 12.6409 12.9976C13.9687 12.5665 15.3151 11.9161 16.7051 10.8448C16.7172 10.8353 16.7249 10.8211 16.7262 10.8056C17.065 7.1266 16.1587 3.93091 14.3236 1.09793C14.3191 1.08846 14.3114 1.08169 14.3024 1.07763ZM5.97637 8.8673C5.1757 8.8673 4.51597 8.09575 4.51597 7.1483C4.51597 6.20076 5.16291 5.42929 5.97637 5.42929C6.79621 5.42929 7.44955 6.20758 7.43672 7.1483C7.43672 8.09575 6.78981 8.8673 5.97637 8.8673ZM11.376 8.8673C10.5752 8.8673 9.91557 8.09575 9.91557 7.1483C9.91557 6.20076 10.5625 5.42929 11.376 5.42929C12.1958 5.42929 12.8491 6.20758 12.8363 7.1483C12.8363 8.09575 12.1958 8.8673 11.376 8.8673Z" fill="black"/>
</svg>
