<svg width="50" height="91" viewBox="0 0 50 91" fill="none" xmlns="http://www.w3.org/2000/svg">
<path d="M31.8766 0.228566C31.9923 0.262102 32.1048 0.302985 32.2178 0.344389C32.2513 0.356418 32.2848 0.368446 32.3193 0.38084C32.4295 0.420552 32.5397 0.46066 32.6498 0.500807C32.7266 0.528657 32.8035 0.556495 32.8803 0.584321C33.0412 0.642668 33.2021 0.701223 33.3629 0.759912C33.5687 0.834976 33.7746 0.909426 33.9807 0.98371C34.1394 1.04103 34.298 1.09873 34.4565 1.15654C34.5324 1.18414 34.6083 1.21161 34.6843 1.23895C34.7906 1.27728 34.8968 1.31612 35.0029 1.35509C35.0341 1.36622 35.0653 1.37734 35.0974 1.3888C35.1817 1.42007 35.2635 1.4525 35.3447 1.49084C35.3911 1.51942 35.4367 1.54954 35.481 1.58134C35.515 1.61038 35.5491 1.63942 35.5842 1.66935C35.6227 1.72668 35.6227 1.72668 35.6619 1.78517C35.679 1.82278 35.6961 1.86039 35.7137 1.89915C35.7206 1.92413 35.7274 1.94911 35.7345 1.97486C35.7381 2.00392 35.7417 2.03298 35.7454 2.06292C35.7354 2.17656 35.7156 2.28658 35.6956 2.39888C35.6555 2.58878 35.5987 2.7719 35.54 2.95671C35.4421 3.27609 35.3567 3.59422 35.2917 3.92189C35.2428 4.18144 35.2074 4.44226 35.1781 4.70468C35.1662 4.80641 35.1515 4.9054 35.131 5.00566C35.1672 4.99856 35.2035 4.99145 35.2408 4.98413C35.5599 4.92338 35.8787 4.87475 36.2022 4.84513C36.453 4.82448 36.7028 4.81061 36.9544 4.81614C37.4067 4.83396 37.8563 4.88966 38.3046 4.9495C38.4575 4.9717 38.6083 4.99948 38.7588 5.03485C39.0788 5.11889 39.3913 5.22984 39.7011 5.34566C39.9392 5.43619 40.1751 5.5303 40.4027 5.64511C40.6991 5.80443 40.9798 5.99172 41.2596 6.17829C41.4985 6.34139 41.7369 6.50568 41.96 6.69011C42.2202 6.9125 42.4583 7.16036 42.6954 7.40685C42.846 7.56715 42.9821 7.73729 43.1157 7.91183C43.382 7.50608 43.6333 7.08965 43.8578 6.65913C43.9705 6.43526 44.0711 6.20715 44.1656 5.97509C44.2279 5.8224 44.2915 5.67149 44.3658 5.52408C44.4019 5.46065 44.4395 5.39802 44.479 5.33659C44.498 5.31219 44.517 5.28778 44.5366 5.26264C44.5565 5.24424 44.5765 5.22584 44.5971 5.20688C44.6272 5.18573 44.6272 5.18573 44.658 5.16414C44.697 5.14505 44.736 5.12595 44.7762 5.10628C44.8093 5.09449 44.8425 5.08271 44.8767 5.07056C44.9097 5.06624 44.9426 5.06191 44.9766 5.05745C45.0103 5.05884 45.0441 5.06022 45.0788 5.06164C45.1444 5.0717 45.1444 5.0717 45.2112 5.08197C45.327 5.11546 45.4397 5.15649 45.5529 5.19794C45.6031 5.21601 45.6031 5.21601 45.6544 5.23444C45.7648 5.2742 45.8751 5.31436 45.9853 5.35455C46.0622 5.38242 46.1391 5.41028 46.2161 5.43813C46.3771 5.49652 46.5381 5.55512 46.699 5.61385C46.905 5.689 47.1112 5.76354 47.3175 5.83791C47.4763 5.89528 47.635 5.95302 47.7937 6.01086C47.8697 6.0385 47.9457 6.06601 48.0217 6.09338C48.1281 6.13174 48.2344 6.1706 48.3405 6.2096C48.3718 6.22076 48.4031 6.23192 48.4354 6.24342C48.5185 6.27429 48.5993 6.30603 48.6793 6.34424C48.745 6.38742 48.745 6.38742 48.8024 6.43219C48.8919 6.51296 48.8919 6.51296 48.9628 6.59013C48.9797 6.61952 48.9966 6.64892 49.0141 6.67921C49.0266 6.7208 49.0391 6.7624 49.0519 6.80525C49.058 6.85078 49.064 6.8963 49.0702 6.94321C49.0694 6.98182 49.0685 7.02044 49.0676 7.06023C49.0559 7.12672 49.0559 7.12672 49.0359 7.20474C48.9574 7.46139 48.8533 7.70872 48.7485 7.95554C48.531 8.45748 48.2841 8.94458 48.016 9.4214C47.7066 9.95465 47.3631 10.4688 47.0022 10.9685C46.7615 11.295 46.5049 11.6077 46.2338 11.9092C45.9852 12.1814 45.729 12.4434 45.4559 12.6911C45.4314 12.7121 45.407 12.7331 45.3818 12.7548C45.3096 12.8162 45.3096 12.8162 45.2236 12.911C45.2203 12.9381 45.2171 12.9652 45.2137 12.9932C45.2193 13.1044 45.2307 13.2135 45.2446 13.324C45.2554 13.4161 45.2663 13.5082 45.2772 13.6003C45.2843 13.6603 45.2843 13.6603 45.2915 13.7214C45.329 14.0776 45.3378 14.4333 45.3391 14.7914C45.3378 15.2853 45.3107 15.775 45.2589 16.2662C45.2005 16.8048 45.1309 17.3412 45.0175 17.8715C44.9095 18.3537 44.7843 18.8322 44.6326 19.3027C44.5661 19.4966 44.4961 19.6892 44.4258 19.8818C44.405 19.939 44.3842 19.9962 44.3635 20.0534C44.3066 20.21 44.2496 20.3664 44.1926 20.5229C44.1305 20.6934 44.0686 20.8639 44.0066 21.0344C43.8981 21.3331 43.7894 21.6317 43.6807 21.9303C43.519 22.3744 43.3575 22.8185 43.196 23.2627C42.8908 24.1021 42.5853 24.9415 42.2799 25.7808C42.2462 25.8734 42.2125 25.9659 42.1788 26.0584C42.1705 26.0814 42.1621 26.1043 42.1535 26.128C41.9681 26.6373 41.7828 27.1467 41.5975 27.6561C41.5211 27.8659 41.4448 28.0758 41.3684 28.2857C41.36 28.3089 41.3515 28.3321 41.3428 28.356C40.8594 29.6847 40.3759 31.0134 39.8923 32.3421C39.8743 32.3918 39.8562 32.4415 39.8381 32.4912C39.7564 32.7155 39.6747 32.9399 39.5931 33.1643C39.5566 33.2644 39.5202 33.3644 39.4838 33.4645C39.4656 33.5145 39.4474 33.5646 39.4291 33.6147C38.8529 35.1977 38.2769 36.7809 37.7011 38.364C37.5561 38.7629 37.411 39.1617 37.266 39.5605C37.257 39.5851 37.2481 39.6096 37.2389 39.6349C36.9634 40.3923 36.6879 41.1497 36.4123 41.9071C36.3993 41.9427 36.3993 41.9427 36.386 41.9792C36.1959 42.5015 36.0058 43.0239 35.8157 43.5463C35.7476 43.7332 35.6796 43.9201 35.6115 44.1071C35.5946 44.1536 35.5777 44.2001 35.5608 44.2466C35.2915 44.9863 35.0224 45.7261 34.7534 46.466C34.4747 47.2323 34.1959 47.9986 33.9168 48.7648C33.7561 49.2061 33.5955 49.6475 33.4351 50.089C33.3278 50.3842 33.2203 50.6794 33.1127 50.9746C33.0515 51.1425 32.9903 51.3104 32.9294 51.4784C32.6728 52.1861 32.4129 52.8869 32.0848 53.5655C32.0309 53.675 31.9751 53.7831 31.918 53.8909C31.8973 53.93 31.8767 53.969 31.8554 54.0092C31.5642 54.5515 31.2307 55.0678 30.8849 55.5766C30.6362 55.9369 30.3702 56.2827 30.0874 56.6169C29.7715 56.9826 29.4373 57.3371 29.0854 57.6685C28.9997 57.7412 28.914 57.8136 28.8261 57.8837C28.7984 57.9163 28.7984 57.9163 28.77 57.9495C28.7657 57.9763 28.7613 58.0031 28.7568 58.0307C28.7673 58.1569 28.7844 58.2817 28.8034 58.4069C28.8575 58.7872 28.887 59.1662 28.9021 59.5499C28.9158 59.9793 28.9038 60.4055 28.8743 60.834C28.8284 61.4466 28.7561 62.0538 28.6496 62.6589C28.559 63.1527 28.4454 63.6408 28.3038 64.1225C28.1496 64.6297 27.9688 65.129 27.7655 65.6185C27.5836 66.0453 27.3792 66.4608 27.1563 66.8677C26.8571 67.4044 26.5289 67.9225 26.1767 68.4261C25.9059 68.8083 25.6214 69.1787 25.3136 69.532C24.9846 69.9035 24.6268 70.2518 24.2615 70.5876C24.2371 70.6056 24.2127 70.6235 24.1876 70.642C24.1692 70.6587 24.1509 70.6754 24.1319 70.6927C24.1279 70.7314 24.1238 70.7701 24.1197 70.81C24.1256 70.8737 24.133 70.9372 24.1413 71.0007C24.1995 71.4611 24.249 71.9185 24.2591 72.3828C24.265 72.8758 24.2547 73.3677 24.2119 73.8591C24.1554 74.4493 24.0833 75.0392 23.97 75.6214C23.8683 76.1211 23.744 76.6155 23.5911 77.102C23.4278 77.6046 23.2445 78.101 23.0327 78.5852C22.8274 79.0437 22.5963 79.4882 22.3467 79.924C22.0581 80.4192 21.7437 80.8982 21.4058 81.3612C21.1107 81.7545 20.8048 82.141 20.4724 82.5038C20.2119 82.7828 19.941 83.0553 19.66 83.3136C19.6257 83.3397 19.5913 83.3658 19.5559 83.3926C19.5322 83.4158 19.5084 83.4389 19.484 83.4627C19.4789 83.4915 19.4739 83.5203 19.4686 83.55C19.4796 83.6483 19.4929 83.7453 19.5092 83.8429C19.564 84.216 19.5887 84.5919 19.6058 84.9684C19.6212 85.4302 19.6171 85.8935 19.5881 86.3547C19.5433 86.965 19.4688 87.5782 19.3619 88.1807C19.2707 88.6641 19.1557 89.1462 19.019 89.6188C18.9444 89.8674 18.8679 90.1144 18.7774 90.3578C18.7315 90.4654 18.7315 90.4654 18.6843 90.5506C18.6368 90.6212 18.6368 90.6212 18.5891 90.6816C18.5432 90.7317 18.5432 90.7317 18.4632 90.8053C18.4347 90.8214 18.4063 90.8374 18.377 90.8539C18.3393 90.8678 18.3016 90.8817 18.2627 90.896C18.2222 90.9039 18.1816 90.9117 18.1399 90.9198C18.0886 90.9181 18.0886 90.9181 18.0362 90.9163C17.9714 90.9059 17.9714 90.9059 17.9052 90.8953C17.7896 90.8618 17.6771 90.8209 17.564 90.7795C17.5306 90.7675 17.4971 90.7554 17.4626 90.743C17.3523 90.7033 17.2422 90.6632 17.1321 90.6231C17.0553 90.5952 16.9784 90.5674 16.9016 90.5396C16.7406 90.4812 16.5798 90.4227 16.419 90.364C16.2132 90.2889 16.0073 90.2145 15.8012 90.1402C15.6425 90.0828 15.4839 90.0251 15.3253 89.9673C15.2495 89.9397 15.1736 89.9123 15.0976 89.8849C14.9912 89.8466 14.8851 89.8078 14.779 89.7688C14.7322 89.7521 14.7322 89.7521 14.6844 89.7351C14.6002 89.7038 14.5184 89.6714 14.4372 89.633C14.3907 89.6045 14.3452 89.5743 14.3009 89.5425C14.2498 89.499 14.2498 89.499 14.1977 89.4545C14.1592 89.3972 14.1592 89.3972 14.12 89.3387C14.1029 89.3011 14.0858 89.2635 14.0682 89.2247C14.0613 89.1998 14.0544 89.1748 14.0474 89.1491C14.0438 89.12 14.0402 89.0909 14.0365 89.061C14.0466 88.9471 14.0664 88.8368 14.0865 88.7242C14.1258 88.5381 14.1819 88.3589 14.2399 88.1779C14.3499 87.82 14.4394 87.462 14.5117 87.0947C14.5617 86.8269 14.5977 86.5596 14.6211 86.2882C14.6288 86.1874 14.6338 86.0875 14.6326 85.9864C14.6314 85.967 14.6302 85.9476 14.6289 85.9276C14.5958 85.9343 14.5627 85.941 14.5286 85.948C14.2819 85.9962 14.036 86.0397 13.7857 86.064C13.5082 86.0879 13.23 86.1022 12.9513 86.1003C12.5697 86.0914 12.1896 86.0484 11.8112 86.0004C11.5208 85.9599 11.2326 85.9062 10.9478 85.836C10.684 85.7671 10.4278 85.6848 10.1725 85.5888C9.95215 85.5032 9.73742 85.4077 9.52673 85.3005C9.2121 85.1348 8.91155 84.9465 8.61606 84.7491C8.36256 84.5769 8.11173 84.4009 7.87597 84.2048C7.63563 83.9983 7.41057 83.775 7.19143 83.5463C7.06881 83.4157 6.95533 83.2793 6.84696 83.1367C6.83331 83.118 6.81966 83.0993 6.80559 83.0801C6.66641 83.25 6.53149 83.4225 6.40963 83.6053C6.25084 83.8538 6.10523 84.1092 5.97175 84.3721C5.83368 84.6504 5.70327 84.9308 5.58587 85.2183C5.5355 85.3399 5.48347 85.4586 5.42478 85.5763C5.38654 85.6452 5.34688 85.7133 5.30543 85.7804C5.27567 85.8204 5.27567 85.8204 5.24531 85.8612C5.22512 85.8803 5.20493 85.8993 5.18413 85.9189C5.16403 85.9329 5.14393 85.947 5.12322 85.9614C5.00573 86.0176 5.00573 86.0176 4.9052 86.0533C4.87222 86.0576 4.83925 86.062 4.80528 86.0664C4.77155 86.065 4.73782 86.0637 4.70307 86.0622C4.63751 86.0522 4.63751 86.0522 4.57064 86.0419C4.45485 86.0084 4.34216 85.9674 4.22901 85.9259C4.1955 85.9139 4.16198 85.9018 4.12744 85.8894C4.01705 85.8497 3.9068 85.8095 3.79656 85.7693C3.71965 85.7415 3.64274 85.7136 3.56583 85.6857C3.40478 85.6274 3.24381 85.5688 3.08289 85.51C2.8769 85.4349 2.67069 85.3603 2.46441 85.286C2.30556 85.2286 2.14686 85.1709 1.98818 85.113C1.91222 85.0854 1.8362 85.0579 1.76014 85.0305C1.65373 84.9921 1.54752 84.9533 1.44134 84.9143C1.39439 84.8975 1.39439 84.8975 1.3465 84.8805C1.26334 84.8496 1.18262 84.8179 1.10256 84.7796C1.03691 84.7365 1.03691 84.7365 0.979518 84.6917C0.889961 84.6109 0.889961 84.6109 0.8191 84.5337C0.80217 84.5044 0.785239 84.475 0.767796 84.4447C0.749061 84.3823 0.749061 84.3823 0.729947 84.3186C0.72391 84.2731 0.717874 84.2276 0.711655 84.1807C0.723035 84.0553 0.723035 84.0553 0.745952 83.9191C0.796645 83.7448 0.863556 83.5764 0.931869 83.4083C1.12242 82.9486 1.33388 82.4986 1.56745 82.0591C1.83937 81.5586 2.14155 81.074 2.46114 80.6026C2.75439 80.178 3.07188 79.7707 3.40423 79.376C3.58123 79.1727 3.76551 78.9769 3.95437 78.7846C3.97442 78.7642 3.99447 78.7438 4.01512 78.7227C4.31612 78.4174 4.31612 78.4174 4.46822 78.2897C4.51388 78.2523 4.56001 78.2154 4.60692 78.1795C4.62883 78.1525 4.62883 78.1525 4.65119 78.1249C4.65502 78.0984 4.65884 78.0719 4.66278 78.0447C4.65461 77.9209 4.6371 77.7995 4.61817 77.6771C4.5697 77.339 4.54131 77.0007 4.5257 76.6596C4.5088 76.1711 4.51908 75.68 4.55094 75.1922C4.5942 74.596 4.66796 74.0043 4.77162 73.4155C4.8622 72.9217 4.97579 72.4336 5.11739 71.9519C5.27154 71.4451 5.45213 70.946 5.65534 70.4568C5.85542 69.9876 6.08095 69.5301 6.32819 69.084C6.62405 68.5627 6.95253 68.0588 7.29673 67.5683C7.57695 67.1788 7.87684 66.8028 8.19427 66.4429C8.46278 66.1456 8.74995 65.8686 9.0436 65.5962C9.08304 65.5596 9.08304 65.5596 9.12327 65.5223C9.15837 65.49 9.15837 65.49 9.19418 65.4571C9.22312 65.4282 9.22312 65.4282 9.25265 65.3988C9.27443 65.3666 9.29622 65.3343 9.31867 65.3011C9.31123 65.208 9.30002 65.1199 9.28484 65.0281C9.27653 64.9723 9.26831 64.9164 9.26018 64.8606C9.256 64.8323 9.25182 64.8039 9.24752 64.7748C9.2101 64.5131 9.18683 64.2511 9.17489 63.9871C9.15736 63.5123 9.15325 63.0383 9.18434 62.564C9.23142 61.9296 9.30223 61.2962 9.41044 60.6691C9.49578 60.2016 9.60608 59.7391 9.73598 59.282C9.8848 58.7753 10.0634 58.2777 10.2612 57.7881C10.4393 57.359 10.6403 56.9414 10.8604 56.5324C11.1555 55.9938 11.4806 55.4747 11.8293 54.9692C12.0925 54.5923 12.367 54.2302 12.6676 53.8821C12.9934 53.5104 13.3375 53.1608 13.6956 52.8203C13.7612 52.7608 13.7612 52.7608 13.8676 52.6798C13.8906 52.6574 13.9136 52.6349 13.9372 52.6117C13.9447 52.5693 13.9447 52.5693 13.9523 52.526C13.9489 52.4946 13.9456 52.4632 13.9422 52.4308C13.9372 52.3786 13.9372 52.3786 13.9321 52.3252C13.9272 52.2861 13.9222 52.247 13.9172 52.2067C13.906 52.1119 13.8948 52.0172 13.8837 51.9224C13.8793 51.8858 13.8793 51.8858 13.8748 51.8484C13.8353 51.5089 13.8132 51.171 13.8077 50.8292C13.8034 50.342 13.817 49.8569 13.8627 49.3718C13.9199 48.8121 13.9866 48.2519 14.097 47.7C14.2118 47.1586 14.3432 46.6196 14.5136 46.093C14.5802 45.8989 14.6502 45.7061 14.7206 45.5134C14.7414 45.4561 14.7622 45.3989 14.7829 45.3416C14.8398 45.185 14.8969 45.0284 14.9539 44.8718C15.0161 44.7012 15.0781 44.5305 15.1401 44.3598C15.2487 44.0609 15.3575 43.762 15.4663 43.4632C15.6281 43.0188 15.7897 42.5743 15.9513 42.1298C16.2568 41.2897 16.5625 40.4496 16.8682 39.6096C16.9019 39.517 16.9356 39.4244 16.9693 39.3318C16.9777 39.3088 16.9861 39.2858 16.9947 39.2621C17.1802 38.7524 17.3657 38.2426 17.5511 37.7328C17.6276 37.5228 17.704 37.3127 17.7804 37.1027C17.7889 37.0794 17.7973 37.0562 17.806 37.0323C18.2898 35.7025 18.7737 34.3728 19.2577 33.043C19.2758 32.9933 19.2939 32.9436 19.312 32.8938C19.3937 32.6693 19.4755 32.4447 19.5572 32.2201C19.5937 32.12 19.6301 32.0199 19.6665 31.9197C19.6848 31.8696 19.703 31.8195 19.7213 31.7694C20.2979 30.1851 20.8744 28.6007 21.4507 27.0162C21.5958 26.617 21.741 26.2179 21.8862 25.8188C21.8951 25.7942 21.9041 25.7696 21.9133 25.7443C22.189 24.9863 22.4648 24.2283 22.7406 23.4703C22.7493 23.4465 22.7579 23.4227 22.7669 23.3981C22.9571 22.8753 23.1474 22.3525 23.3377 21.8298C23.4058 21.6427 23.4739 21.4556 23.542 21.2685C23.5589 21.222 23.5758 21.1754 23.5928 21.1289C23.8622 20.3885 24.1316 19.6481 24.4008 18.9077C24.6797 18.1407 24.9588 17.3738 25.2381 16.607C25.3989 16.1653 25.5597 15.7236 25.7202 15.2818C25.8275 14.9862 25.9351 14.6908 26.0428 14.3954C26.1041 14.2274 26.1653 14.0593 26.2263 13.8912C26.4813 13.1879 26.7398 12.4918 27.0646 11.817C27.109 11.7272 27.1548 11.6386 27.2021 11.5504C27.2189 11.5188 27.2356 11.4873 27.2529 11.4548C27.5368 10.9255 27.8544 10.4197 28.1916 9.92279C28.4826 9.49749 28.7954 9.08998 29.1292 8.69721C29.3065 8.4942 29.4904 8.29807 29.6793 8.10586C29.6999 8.08495 29.7204 8.06404 29.7416 8.0425C29.8617 7.92088 29.9828 7.80043 30.1072 7.68312C30.1401 7.65847 30.173 7.63382 30.2068 7.60842C30.2447 7.57162 30.2447 7.57162 30.2833 7.53407C30.2882 7.50594 30.2932 7.47781 30.2983 7.44882C30.295 7.41727 30.2916 7.38571 30.2882 7.3532C30.2847 7.31688 30.2812 7.28056 30.2776 7.24313C30.2725 7.20287 30.2675 7.16262 30.2623 7.12114C30.2514 7.02901 30.2406 6.93689 30.2297 6.84477C30.225 6.80482 30.2202 6.76487 30.2153 6.72371C30.1779 6.3675 30.1691 6.01176 30.1677 5.65374C30.169 5.15976 30.1961 4.67014 30.2479 4.17893C30.3064 3.64028 30.3759 3.10385 30.4893 2.57363C30.5972 2.09185 30.7199 1.6116 30.8742 1.14243C30.888 1.10023 30.9017 1.05802 30.9159 1.01453C30.9572 0.893902 31.0004 0.775834 31.0503 0.658517C31.0975 0.573296 31.0975 0.573296 31.1451 0.502722C31.1928 0.442297 31.1928 0.442297 31.2386 0.392146C31.2783 0.355708 31.2783 0.355708 31.3187 0.318535C31.3471 0.302512 31.3756 0.286489 31.4049 0.26998C31.4614 0.249126 31.4614 0.249126 31.5192 0.22785C31.58 0.216071 31.58 0.216071 31.642 0.204054C31.6933 0.205802 31.6933 0.205802 31.7457 0.207584C31.7889 0.214508 31.8321 0.221432 31.8766 0.228566ZM31.6956 0.893359C31.4055 1.76573 31.4055 1.76573 31.1769 2.65309C31.0658 3.16834 30.9772 3.68545 30.9205 4.20957C30.8739 4.67714 30.8495 5.14483 30.8477 5.61472C30.8509 6.11112 30.8892 6.6064 30.9406 7.09997C30.9609 7.27933 30.9927 7.45514 31.0313 7.63151C31.0337 7.65993 31.036 7.68834 31.0385 7.71762C31.0244 7.74694 31.0244 7.74694 31.0101 7.77685C30.9944 7.79844 30.9788 7.82002 30.9627 7.84225C30.9157 7.88882 30.8672 7.9338 30.8178 7.97766C30.7883 8.00415 30.7588 8.03063 30.7284 8.05792C30.6966 8.08644 30.6648 8.11495 30.632 8.14433C30.3177 8.43093 30.0188 8.72687 29.7347 9.04354C29.4041 9.41958 29.0941 9.81024 28.8046 10.2187C28.5055 10.6491 28.2292 11.0919 27.9755 11.5504C27.7441 11.9778 27.5383 12.4158 27.3528 12.8647C27.226 13.1724 27.109 13.4829 26.9956 13.7957C26.9749 13.8523 26.9543 13.9088 26.9337 13.9654C26.8774 14.1194 26.8214 14.2735 26.7654 14.4277C26.7042 14.5958 26.6429 14.764 26.5816 14.9321C26.4743 15.2264 26.3672 15.5207 26.2601 15.815C26.1008 16.2526 25.9414 16.6903 25.782 17.1279C25.4806 17.9551 25.1794 18.7823 24.8783 19.6096C24.8451 19.7007 24.812 19.7919 24.7788 19.883C24.7706 19.9056 24.7623 19.9283 24.7538 19.9516C24.5711 20.4537 24.3883 20.9558 24.2054 21.4579C24.1301 21.6649 24.0547 21.8719 23.9793 22.0789C23.971 22.1018 23.9627 22.1246 23.9541 22.1482C23.477 23.4584 23 24.7685 22.5232 26.0788C22.5053 26.1278 22.4875 26.1767 22.4697 26.2257C22.3892 26.4469 22.3087 26.6681 22.2282 26.8893C22.1923 26.9879 22.1564 27.0865 22.1205 27.1851C22.1025 27.2345 22.0846 27.2839 22.0666 27.3332C21.4987 28.8936 20.9306 30.4538 20.3623 32.014C20.2191 32.4071 20.076 32.8001 19.9328 33.1932C19.924 33.2174 19.9152 33.2416 19.9061 33.2665C19.6341 34.0132 19.3622 34.7599 19.0904 35.5067C19.0819 35.5301 19.0733 35.5536 19.0645 35.5778C18.877 36.093 18.6895 36.6082 18.5019 37.1234C18.4348 37.3078 18.3677 37.4922 18.3006 37.6765C18.2839 37.7224 18.2672 37.7683 18.2505 37.8141C17.9852 38.5432 17.7197 39.2723 17.4541 40.0013C17.1789 40.7565 16.9039 41.5119 16.6292 42.2673C16.471 42.7022 16.3127 43.1371 16.1541 43.5719C16.048 43.8629 15.9421 44.154 15.8363 44.4452C15.7762 44.6107 15.716 44.7761 15.6556 44.9415C15.3809 45.6932 15.1073 46.4447 14.9075 47.2206C14.7889 47.6967 14.692 48.1762 14.6213 48.6618C14.5546 49.1502 14.5069 49.6407 14.4911 50.1336C14.4802 50.6417 14.4975 51.149 14.5382 51.6555C14.5752 52.0588 14.635 52.4592 14.6998 52.8588C14.653 52.8989 14.653 52.8989 14.6053 52.9399C14.2236 53.2703 13.8521 53.6118 13.5017 53.9755C13.1737 54.3302 12.8646 54.7043 12.5737 55.0899C12.2953 55.4657 12.0366 55.8551 11.7979 56.2572C11.5593 56.6669 11.3336 57.0845 11.1365 57.5159C11.0144 57.7903 10.8979 58.0668 10.7849 58.3451C10.7743 58.3709 10.7638 58.3967 10.753 58.4234C10.6926 58.5746 10.6391 58.7278 10.5891 58.8828C10.5781 58.917 10.5671 58.9512 10.5557 58.9865C10.3913 59.5017 10.2427 60.0193 10.1295 60.5483C10.0321 61.0239 9.95661 61.5023 9.90641 61.9852C9.85945 62.4825 9.84313 62.9812 9.84322 63.4806C9.84787 63.8718 9.88066 64.2608 9.92306 64.6496C9.95295 64.8913 9.98617 65.1327 10.0197 65.374C10.0314 65.4589 10.0421 65.5438 10.0519 65.6288C10.0241 65.6526 9.99624 65.6764 9.96759 65.7009C9.71683 65.9163 9.47306 66.137 9.23525 66.3668C9.20427 66.3956 9.17329 66.4244 9.14137 66.4541C8.90058 66.6831 8.68125 66.9282 8.46521 67.1806C8.16648 67.5335 7.88708 67.896 7.62635 68.2777C7.60857 68.3037 7.59079 68.3296 7.57248 68.3563C7.32097 68.726 7.09342 69.1086 6.87955 69.5012C6.65103 69.9281 6.44164 70.3648 6.25665 70.8124C6.14426 71.0899 6.03856 71.3696 5.94124 71.6528C5.92915 71.6876 5.92915 71.6876 5.91681 71.7231C5.76437 72.1664 5.64663 72.6189 5.53852 73.0749C5.42389 73.5753 5.33975 74.081 5.27716 74.5904C5.22183 75.0826 5.20796 75.5772 5.20233 76.0721C5.20034 76.4723 5.22468 76.8682 5.26236 77.2665C5.29952 77.6371 5.35387 78.0045 5.41373 78.372C5.38408 78.3985 5.38408 78.3985 5.35383 78.4255C5.29119 78.4815 5.22869 78.5378 5.16627 78.5941C5.08763 78.6651 5.00839 78.7353 4.92886 78.8053C4.63711 79.0641 4.36298 79.3365 4.09933 79.624C3.79319 79.9636 3.50474 80.3161 3.23275 80.6836C2.9459 81.0794 2.67861 81.4864 2.43338 81.9092C2.18476 82.347 1.96011 82.7917 1.75075 83.2497C1.63209 83.5481 1.51343 83.8465 1.39118 84.154C2.50015 84.5576 3.60913 84.9613 4.75171 85.3771C4.90749 85.0319 5.06327 84.6867 5.22377 84.3311C5.40831 83.9699 5.60248 83.6223 5.82094 83.2812C6.04799 82.9334 6.30382 82.6099 6.56555 82.2878C6.58776 82.2608 6.60997 82.2337 6.63285 82.2058C6.6973 82.125 6.75812 82.0423 6.81814 81.9582C6.84382 81.994 6.8695 82.0299 6.89596 82.0669C7.13008 82.3914 7.37151 82.7065 7.6372 83.0059C7.65557 83.0265 7.67394 83.047 7.69287 83.0681C7.71021 83.0876 7.72755 83.1071 7.74541 83.1272C7.87685 83.2728 8.01384 83.4111 8.15959 83.5425C8.41119 83.759 8.67099 83.9654 8.93913 84.1611C9.1318 84.2945 9.33004 84.4176 9.53543 84.5304C9.56445 84.5464 9.59347 84.5625 9.62338 84.5791C9.75061 84.6471 9.87845 84.712 10.0113 84.7684C10.1823 84.8377 10.3553 84.9015 10.5288 84.9642C10.5554 84.9739 10.582 84.9835 10.6094 84.9935C10.864 85.0855 11.1185 85.1755 11.3811 85.2421C11.5598 85.2826 11.7392 85.3134 11.9208 85.3377C11.963 85.3435 11.963 85.3435 12.0059 85.3494C12.2638 85.383 12.5215 85.3997 12.7813 85.4084C13.0411 85.4142 13.2995 85.4097 13.5586 85.3911C13.8438 85.3673 14.1269 85.3332 14.4086 85.2823C14.7227 85.222 15.0321 85.1447 15.3405 85.06C15.3378 85.1007 15.3351 85.1413 15.3323 85.1831C15.3251 85.307 15.3215 85.4304 15.3199 85.5544C15.3143 85.9412 15.3001 86.3245 15.2541 86.7088C15.2023 87.1127 15.1278 87.5053 15.0365 87.9027C14.934 88.2672 14.8314 88.6318 14.7258 89.0074C15.8348 89.411 16.9437 89.8147 18.0863 90.2305C18.3764 89.3581 18.3764 89.3581 18.605 88.4708C18.7161 87.9555 18.8047 87.4384 18.8614 86.9143C18.908 86.4467 18.9324 85.979 18.9342 85.5092C18.9322 85.2009 18.916 84.8941 18.8922 84.5869C18.8898 84.5555 18.8874 84.5241 18.8849 84.4918C18.8565 84.1328 18.8129 83.7795 18.7471 83.4254C18.7355 83.3644 18.7236 83.3034 18.7117 83.2425C18.8726 83.0883 19.0348 82.9358 19.2006 82.7868C19.4724 82.5422 19.7412 82.2952 19.9872 82.0243C20.3499 81.6169 20.697 81.197 21.0155 80.7541C21.2918 80.3636 21.5459 79.9591 21.7827 79.5435C22.034 79.092 22.2609 78.6254 22.4665 78.1514C22.5293 78.0028 22.5887 77.8531 22.6462 77.7024C22.6617 77.6621 22.6772 77.6218 22.6932 77.5803C22.7381 77.4603 22.7807 77.3397 22.8223 77.2185C22.8344 77.1837 22.8344 77.1837 22.8468 77.1481C23.0036 76.6927 23.125 76.2289 23.236 75.7604C23.3277 75.3628 23.4059 74.9646 23.4588 74.5599C23.5197 74.0609 23.5661 73.5591 23.5797 73.0564C23.5879 72.5504 23.5625 72.0455 23.5187 71.5415C23.4843 71.182 23.4256 70.8274 23.3596 70.4724C23.6111 70.2505 23.6111 70.2505 23.7137 70.1616C24.0375 69.8774 24.3425 69.5717 24.6353 69.2556C24.9741 68.8823 25.2923 68.4903 25.5941 68.0865C25.7902 67.8173 25.9698 67.5376 26.1446 67.2541C26.162 67.226 26.1794 67.1978 26.1974 67.1687C26.4634 66.7345 26.6946 66.2837 26.915 65.8248C27.0533 65.5321 27.1802 65.2355 27.2941 64.9324C27.3077 64.8963 27.3212 64.8601 27.3352 64.8229C27.5242 64.3122 27.6836 63.7901 27.8216 63.2634C27.9477 62.7622 28.0358 62.2537 28.1099 61.7425C28.1655 61.3375 28.1959 60.9324 28.211 60.524C28.2244 60.0783 28.2262 59.6337 28.1938 59.1888C28.1814 59.0354 28.167 58.8822 28.1514 58.7291C28.1485 58.7 28.1455 58.6709 28.1425 58.6409C28.11 58.3258 28.0709 58.013 28.0075 57.7024C28.0273 57.6848 28.047 57.6671 28.0674 57.6489C28.13 57.5929 28.1925 57.5366 28.255 57.4803C28.3336 57.4093 28.4128 57.3391 28.4924 57.2691C28.7841 57.0103 29.0582 56.7379 29.3219 56.4504C29.628 56.1108 29.9165 55.7583 30.1885 55.3908C30.4753 54.995 30.7427 54.588 30.9879 54.1651C31.2357 53.7288 31.468 53.284 31.6705 52.8247C31.8426 52.4208 32.0009 52.0126 32.1506 51.5999C32.1713 51.5434 32.1919 51.4868 32.2125 51.4302C32.2688 51.2762 32.3248 51.1221 32.3808 50.968C32.442 50.7998 32.5033 50.6316 32.5646 50.4635C32.6719 50.1693 32.779 49.875 32.8861 49.5807C33.0454 49.143 33.2048 48.7054 33.3642 48.2677C33.6656 47.4406 33.9668 46.6133 34.2679 45.786C34.3011 45.6949 34.3342 45.6037 34.3674 45.5126C34.3756 45.49 34.3839 45.4674 34.3924 45.444C34.5751 44.9419 34.7579 44.4398 34.9408 43.9377C35.0161 43.7307 35.0915 43.5237 35.1669 43.3167C35.1752 43.2939 35.1835 43.271 35.1921 43.2474C35.6692 41.9373 36.1462 40.6271 36.623 39.3169C36.6409 39.2679 36.6587 39.2189 36.6765 39.1699C36.757 38.9487 36.8375 38.7275 36.918 38.5063C36.9539 38.4077 36.9898 38.3091 37.0257 38.2105C37.0437 38.1611 37.0616 38.1118 37.0796 38.0624C37.6475 36.5021 38.2156 34.9418 38.7839 33.3816C38.9271 32.9885 39.0702 32.5955 39.2134 32.2024C39.2222 32.1782 39.231 32.154 39.2401 32.1291C39.5121 31.3824 39.784 30.6357 40.0558 29.889C40.0643 29.8655 40.0729 29.842 40.0817 29.8179C40.2692 29.3027 40.4567 28.7874 40.6443 28.2722C40.7114 28.0878 40.7785 27.9034 40.8456 27.7191C40.8623 27.6732 40.879 27.6273 40.8957 27.5815C41.161 26.8524 41.4265 26.1233 41.6921 25.3943C41.9673 24.6391 42.2423 23.8837 42.517 23.1283C42.6752 22.6934 42.8335 22.2585 42.9921 21.8237C43.0982 21.5327 43.2041 21.2416 43.3099 20.9504C43.37 20.7849 43.4302 20.6195 43.4906 20.4541C43.7653 19.7024 44.0389 18.9509 44.2387 18.175C44.3572 17.6991 44.454 17.2198 44.5249 16.7344C44.5903 16.256 44.6361 15.7744 44.6557 15.2919C44.6694 14.8299 44.6516 14.3688 44.6171 13.9081C44.5814 13.446 44.5814 13.446 44.5154 12.9876C44.5022 12.9248 44.4883 12.8622 44.4727 12.8001C44.4706 12.7641 44.4706 12.7641 44.4684 12.7275C44.477 12.7037 44.4856 12.6798 44.4945 12.6553C44.5141 12.6291 44.5338 12.6029 44.554 12.576C44.631 12.501 44.7129 12.4323 44.7951 12.3631C45.0609 12.1333 45.3127 11.8936 45.5539 11.6381C45.8801 11.2867 46.188 10.9208 46.4758 10.5372C46.7613 10.1503 47.0303 9.75263 47.2766 9.33957C47.5546 8.86341 47.8006 8.37519 48.0311 7.87417C48.1498 7.57576 48.2684 7.27735 48.3907 6.96989C47.2817 6.56626 46.1728 6.16262 45.0302 5.74676C44.7965 6.26454 44.7965 6.26454 44.5581 6.79277C44.3437 7.19997 44.1253 7.60136 43.8706 7.98465C43.6288 8.33651 43.3554 8.66626 43.086 8.99709C43.057 8.96643 43.0279 8.93577 42.998 8.90418C42.9411 8.82758 42.8849 8.75066 42.829 8.6733C42.6403 8.41481 42.447 8.16192 42.2328 7.92384C42.1446 7.82953 42.0551 7.73698 41.9645 7.64507C41.9339 7.6139 41.9034 7.58273 41.872 7.55062C41.6878 7.36764 41.4968 7.19555 41.2951 7.03227C41.1389 6.90854 40.9787 6.79325 40.8116 6.68458C40.7496 6.64535 40.6874 6.60637 40.625 6.56766C40.5967 6.5501 40.5685 6.53254 40.5393 6.51445C40.3406 6.39417 40.1366 6.28613 39.9277 6.18447C39.7296 6.09369 39.5274 6.01697 39.3224 5.94322C39.2573 5.91976 39.2573 5.91976 39.191 5.89583C38.9745 5.81943 38.7584 5.74687 38.5356 5.69139C38.4034 5.66133 38.2709 5.63568 38.1373 5.61273C38.1105 5.60802 38.0836 5.6033 38.0559 5.59845C37.8314 5.56034 37.6067 5.53143 37.3795 5.51592C37.1176 5.50174 36.8558 5.49632 36.5938 5.50799C36.457 5.5166 36.3208 5.52798 36.1844 5.54127C36.1432 5.54498 36.1021 5.54869 36.0597 5.5525C35.7643 5.58242 35.4733 5.63143 35.1825 5.69053C34.9862 5.73264 34.7953 5.78903 34.6039 5.84944C34.5729 5.85809 34.5419 5.86674 34.5099 5.87565C34.4922 5.86919 34.4744 5.86273 34.4561 5.85608C34.4703 4.89369 34.4703 4.89369 34.5155 4.4905C34.5684 4.0625 34.654 3.6428 34.7454 3.22122C34.8992 2.67438 34.8992 2.67438 35.0561 2.11649C33.9471 1.71286 32.8381 1.30923 31.6956 0.893359ZM37.8979 9.22973C38.0837 9.29454 38.2683 9.36252 38.4491 9.44058C38.5417 9.48571 38.6308 9.53457 38.7188 9.58823C38.8699 9.68673 39.0145 9.79139 39.1559 9.90337C39.2855 10.0143 39.4084 10.1299 39.5277 10.2518C39.6173 10.349 39.7013 10.4476 39.7827 10.5519C39.9065 10.7192 40.025 10.8898 40.1425 11.0616C40.136 11.0794 40.1296 11.0971 40.1229 11.1154C39.9059 11.1814 39.6881 11.2439 39.4655 11.2882C39.2701 11.3226 39.0742 11.3481 38.8762 11.3619C38.7138 11.3683 38.5525 11.3658 38.3902 11.3564C38.2603 11.3467 38.1314 11.3344 38.0024 11.316C37.8922 11.294 37.785 11.2675 37.6775 11.2349C37.4763 11.1702 37.2789 11.0974 37.0847 11.0143C37.0087 10.9783 36.9336 10.9405 36.8598 10.9001C36.7044 10.8034 36.5558 10.698 36.4108 10.5864C36.3025 10.4998 36.1984 10.4101 36.099 10.3134C35.9604 10.1724 35.8281 10.0263 35.704 9.87241C35.6047 9.74134 35.5142 9.60495 35.4255 9.46658C35.4053 9.43915 35.3852 9.41172 35.3644 9.38345C35.3708 9.36571 35.3773 9.34797 35.384 9.32968C35.6516 9.25298 35.9188 9.17637 36.1928 9.12552C36.304 9.10821 36.4139 9.09527 36.5261 9.0864C36.7299 9.07716 36.9318 9.0812 37.1355 9.09188C37.2445 9.0985 37.352 9.10854 37.4601 9.12413C37.6097 9.14942 37.7534 9.18296 37.8979 9.22973ZM37.389 9.80054C37.3201 9.789 37.2509 9.779 37.1815 9.77094C37.0414 9.76291 36.9025 9.76274 36.7623 9.76787C36.715 9.77066 36.6677 9.77438 36.6206 9.7798C36.6142 9.79754 36.6077 9.81529 36.6011 9.83357C36.6902 9.92009 36.7808 10.0042 36.8747 10.0854C36.9697 10.1561 37.0668 10.2219 37.168 10.2835C37.2264 10.3173 37.2861 10.3488 37.3464 10.3789C37.5483 10.4643 37.7554 10.5389 37.9647 10.6039C38.0454 10.6238 38.1265 10.6416 38.2082 10.6564C38.28 10.6662 38.3521 10.6741 38.4242 10.6798C38.5576 10.6831 38.6896 10.6812 38.8227 10.6726C38.8436 10.6702 38.8646 10.6678 38.8862 10.6653C38.8927 10.6476 38.8991 10.6298 38.9058 10.6115C38.7945 10.5047 38.6829 10.3991 38.5609 10.3044C38.472 10.2408 38.3829 10.1815 38.2886 10.1262C38.1792 10.072 38.0688 10.0271 37.9546 9.98398C37.7677 9.91538 37.5826 9.84785 37.389 9.80054ZM32.4404 11.3942C32.5322 11.5181 32.6227 11.6421 32.709 11.7698C32.875 12.0058 33.0552 12.2302 33.2443 12.448C33.4347 12.6616 33.6329 12.8672 33.843 13.0617C34.0932 13.2804 34.3556 13.4832 34.6255 13.6771C34.8226 13.8151 35.0277 13.9373 35.2374 14.0552C35.4007 14.1438 35.5666 14.2247 35.7369 14.299C36.0774 14.4389 36.4235 14.5655 36.7762 14.6709C36.9754 14.7262 37.1757 14.7702 37.3793 14.8055C37.6625 14.8529 37.9458 14.8857 38.2323 14.905C38.4631 14.9175 38.6931 14.9198 38.9241 14.911C39.267 14.8912 39.6083 14.8554 39.9476 14.8014C40.191 14.7593 40.4333 14.7115 40.6717 14.6464C40.797 14.6099 40.9206 14.5696 41.0434 14.5255C41.0547 14.5497 41.066 14.5739 41.0776 14.5988C41.0888 14.9635 41.0673 15.3336 41.0437 15.6975C41.0175 16.0217 40.967 16.3414 40.9081 16.6611C40.9009 16.6992 40.8937 16.7372 40.8863 16.7765C40.8799 16.8105 40.8736 16.8446 40.8671 16.8797C40.7997 17.2174 40.7088 17.5491 40.6088 17.8784C40.4617 18.3402 40.2897 18.7942 40.1234 19.2494C40.0618 19.4182 40.0005 19.5872 39.9392 19.7562C39.8318 20.0518 39.7243 20.3472 39.6166 20.6427C39.4565 21.082 39.2966 21.5214 39.1369 21.9608C38.868 22.7004 38.5989 23.4399 38.3296 24.1793C38.0629 24.9116 37.7963 25.6439 37.5298 26.3762C37.513 26.4223 37.4963 26.4684 37.4795 26.5144C37.4121 26.6996 37.3448 26.8847 37.2774 27.0699C37.0891 27.5874 36.9008 28.1049 36.7124 28.6225C36.7038 28.646 36.6953 28.6696 36.6864 28.6939C36.4134 29.4442 36.1402 30.1946 35.867 30.9449C35.8581 30.9692 35.8492 30.9935 35.8401 31.0186C35.6963 31.4135 35.5525 31.8084 35.4087 32.2033C34.8384 33.7694 34.2683 35.3356 33.6985 36.9019C33.5549 37.2967 33.4113 37.6915 33.2677 38.0863C33.2589 38.1106 33.25 38.1349 33.2409 38.1599C32.9682 38.9096 32.6954 39.6592 32.4226 40.4088C32.414 40.4323 32.4054 40.4559 32.3966 40.4801C32.2084 40.9971 32.0202 41.514 31.832 42.0309C31.7647 42.2159 31.6973 42.4009 31.63 42.5858C31.6132 42.6318 31.5965 42.6779 31.5797 42.7239C31.3132 43.4558 31.0469 44.1879 30.7806 44.9199C30.5049 45.6779 30.229 46.4359 29.9528 47.1938C29.7937 47.6303 29.6348 48.0669 29.4761 48.5036C29.37 48.7956 29.2636 49.0875 29.1571 49.3794C29.0965 49.5455 29.036 49.7116 28.9757 49.8778C28.516 51.1453 28.516 51.1453 28.2565 51.6875C28.1771 51.8496 28.0942 52.0091 28.0055 52.1663C27.977 52.2169 27.977 52.2169 27.9481 52.2686C27.7875 52.5515 27.6206 52.8292 27.4321 53.0945C27.2155 53.3892 26.9879 53.6776 26.7522 53.9574C26.7029 54.0107 26.6533 54.0637 26.6031 54.1162C26.5635 54.0836 26.5255 54.0489 26.4882 54.0135C26.4548 53.9666 26.4229 53.9187 26.392 53.8701C26.3097 53.7459 26.2238 53.627 26.1309 53.5105C25.8948 53.2251 25.6503 52.9463 25.3857 52.6868C25.1995 52.5097 25.0072 52.3405 24.8051 52.1818C24.5692 52.002 24.3252 51.8343 24.0725 51.679C23.8742 51.5607 23.6704 51.4568 23.461 51.3596C23.2096 51.2449 22.9573 51.1391 22.6956 51.0499C22.4285 50.9635 22.1573 50.8874 21.8826 50.8293C21.5775 50.7707 21.2701 50.7296 20.9606 50.7029C20.7208 50.6853 20.482 50.6798 20.2416 50.6864C19.8829 50.701 19.5261 50.7367 19.1709 50.7882C18.8895 50.8328 18.6138 50.9005 18.3387 50.9737C18.2703 50.9927 18.2024 51.0133 18.1345 51.0339C18.1168 51.0275 18.099 51.021 18.0808 51.0144C18.0715 50.5714 18.0657 50.1289 18.1015 49.6869C18.1416 49.2739 18.2071 48.8615 18.2893 48.4548C18.3762 48.0724 18.4761 47.6937 18.6008 47.3217C18.7358 46.9275 18.8802 46.5365 19.0232 46.1452C19.0848 45.9761 19.1462 45.8069 19.2076 45.6378C19.3151 45.342 19.4227 45.0462 19.5305 44.7505C19.6908 44.3108 19.8508 43.8709 20.0107 43.4311C20.2798 42.6908 20.5492 41.9507 20.8187 41.2105C20.8269 41.188 20.8351 41.1655 20.8436 41.1424C20.8559 41.1086 20.8559 41.1086 20.8684 41.0741C21.1188 40.3866 21.3691 39.6991 21.6192 39.0116C21.636 38.9655 21.6528 38.9193 21.6696 38.8732C21.737 38.6879 21.8044 38.5026 21.8719 38.3173C22.0604 37.7993 22.2488 37.2813 22.4374 36.7633C22.4459 36.7397 22.4545 36.7161 22.4634 36.6919C22.7367 35.9408 23.0101 35.1898 23.2836 34.4388C23.2924 34.4145 23.3013 34.3902 23.3104 34.3651C23.4544 33.9698 23.5983 33.5745 23.7423 33.1793C24.3131 31.6117 24.8837 30.044 25.454 28.4762C25.5977 28.0811 25.7415 27.6859 25.8853 27.2908C25.8985 27.2543 25.8985 27.2543 25.9121 27.217C26.185 26.4667 26.4581 25.7164 26.7312 24.9661C26.7398 24.9426 26.7483 24.919 26.7572 24.8947C26.9455 24.3773 27.1339 23.86 27.3222 23.3426C27.3896 23.1575 27.457 22.9723 27.5244 22.7872C27.5412 22.7411 27.558 22.6951 27.5747 22.649C27.8249 21.9618 28.075 21.2745 28.3251 20.5871C28.3332 20.5646 28.3414 20.5421 28.3499 20.5189C28.358 20.4965 28.3662 20.474 28.3746 20.4509C28.6506 19.6922 28.9268 18.9335 29.2032 18.175C29.3624 17.738 29.5215 17.301 29.6803 16.8639C29.7866 16.5716 29.893 16.2795 29.9996 15.9873C30.0602 15.8211 30.1208 15.6548 30.1811 15.4885C30.6407 14.2216 30.6407 14.2216 30.8907 13.7054C30.9701 13.5451 31.0523 13.3869 31.1401 13.231C31.1591 13.1971 31.1781 13.1632 31.1977 13.1283C31.3582 12.8451 31.525 12.5672 31.7136 12.3016C31.9306 12.0068 32.1597 11.7196 32.394 11.4382C32.4093 11.4237 32.4246 11.4092 32.4404 11.3942ZM32.3912 12.5333C32.212 12.7746 32.0416 13.0194 31.8883 13.2781C31.7798 13.4661 31.6814 13.6589 31.5853 13.8536C31.5715 13.8814 31.5578 13.9092 31.5436 13.9378C31.3217 14.3958 31.1403 14.8701 30.967 15.3482C30.9465 15.4043 30.926 15.4604 30.9055 15.5165C30.8496 15.6697 30.7939 15.823 30.7381 15.9763C30.6774 16.1434 30.6164 16.3105 30.5555 16.4776C30.4489 16.7701 30.3423 17.0627 30.2359 17.3553C30.0776 17.7904 29.9191 18.2255 29.7606 18.6605C29.461 19.4829 29.1616 20.3053 28.8622 21.1277C28.8292 21.2183 28.7962 21.309 28.7632 21.3996C28.755 21.4221 28.7469 21.4446 28.7384 21.4677C28.5567 21.9669 28.375 22.466 28.1933 22.9651C28.1184 23.1708 28.0435 23.3765 27.9686 23.5822C27.9603 23.605 27.952 23.6277 27.9435 23.6511C27.4693 24.9533 26.9953 26.2555 26.5213 27.5577C26.5036 27.6064 26.4858 27.6551 26.4681 27.7038C26.3881 27.9237 26.3081 28.1436 26.2281 28.3634C26.1924 28.4615 26.1567 28.5595 26.121 28.6575C26.1031 28.7066 26.0853 28.7557 26.0674 28.8048C25.5029 30.3559 24.9381 31.907 24.3732 33.458C24.2308 33.8487 24.0885 34.2395 23.9462 34.6302C23.9374 34.6543 23.9287 34.6783 23.9196 34.7031C23.6493 35.4453 23.3791 36.1875 23.1089 36.9297C23.1004 36.953 23.0919 36.9763 23.0832 37.0003C22.8968 37.5124 22.7104 38.0244 22.5241 38.5364C22.4574 38.7197 22.3907 38.9029 22.324 39.0862C22.3074 39.1317 22.2908 39.1773 22.2742 39.2229C22.0104 39.9477 21.7464 40.6725 21.4824 41.3972C21.2089 42.148 20.9355 42.8989 20.6624 43.6498C20.5051 44.0822 20.3477 44.5146 20.1901 44.9469C20.0846 45.2362 19.9793 45.5255 19.8742 45.8149C19.8144 45.9795 19.7546 46.144 19.6945 46.3084C19.3074 47.3674 19.3074 47.3674 18.9925 48.4497C18.9598 48.5833 18.9312 48.7172 18.9057 48.8523C18.8983 48.8906 18.8908 48.9289 18.8831 48.9683C18.8327 49.2358 18.7969 49.5029 18.7741 49.7741C18.7644 49.904 18.7578 50.0337 18.7556 50.1639C18.7793 50.1592 18.803 50.1545 18.8273 50.1496C19.1474 50.0899 19.469 50.0512 19.7932 50.0227C20.0487 50.0029 20.3029 49.9953 20.5591 50.0013C20.9405 50.0159 21.3207 50.0548 21.6986 50.1086C22.0034 50.1581 22.3055 50.2197 22.604 50.2986C22.8579 50.3695 23.1052 50.4578 23.3507 50.5537C23.5902 50.6515 23.8218 50.7648 24.0499 50.8868C24.372 51.0652 24.6804 51.2654 24.9834 51.4745C25.2068 51.632 25.4207 51.7998 25.6276 51.9785C25.8259 52.1536 26.0139 52.3357 26.1938 52.5297C26.3435 52.694 26.49 52.8606 26.6327 53.031C26.8044 52.8038 26.9742 52.5751 27.124 52.3328C27.326 51.9914 27.5171 51.6429 27.6838 51.2829C27.8716 50.8697 28.034 50.4479 28.1887 50.0215C28.2091 49.9655 28.2296 49.9094 28.25 49.8534C28.3058 49.7005 28.3615 49.5475 28.4171 49.3945C28.4778 49.2276 28.5386 49.0609 28.5994 48.8941C28.7059 48.6021 28.8122 48.31 28.9185 48.0179C29.0765 47.5836 29.2347 47.1493 29.3929 46.7151C29.692 45.8942 29.9909 45.0732 30.2897 44.2523C30.3226 44.1618 30.3555 44.0714 30.3885 43.9809C30.3966 43.9584 30.4048 43.936 30.4132 43.9129C30.5946 43.4146 30.776 42.9164 30.9574 42.4182C31.0322 42.2128 31.107 42.0074 31.1818 41.8021C31.19 41.7794 31.1983 41.7567 31.2068 41.7333C31.6801 40.4334 32.1534 39.1334 32.6265 37.8335C32.6442 37.7848 32.6619 37.7362 32.6796 37.6876C32.7595 37.4681 32.8394 37.2486 32.9193 37.0291C32.9549 36.9313 32.9905 36.8334 33.0261 36.7355C33.044 36.6865 33.0618 36.6375 33.0796 36.5886C33.6432 35.0401 34.2069 33.4918 34.7709 31.9436C34.9129 31.5535 35.055 31.1635 35.1971 30.7735C35.2102 30.7375 35.2102 30.7375 35.2236 30.7007C35.4934 29.9598 35.7632 29.219 36.0329 28.478C36.0414 28.4548 36.0498 28.4315 36.0586 28.4075C36.2447 27.8963 36.4307 27.3852 36.6168 26.874C36.6833 26.6911 36.7499 26.5081 36.8165 26.3252C36.8331 26.2797 36.8496 26.2342 36.8662 26.1887C37.1214 25.4876 37.3767 24.7865 37.6321 24.0854C37.9133 23.3136 38.1944 22.5416 38.4751 21.7696C38.6321 21.338 38.7893 20.9064 38.9466 20.4749C39.0519 20.1861 39.157 19.8972 39.2619 19.6083C39.3216 19.4441 39.3814 19.2798 39.4413 19.1157C39.8202 18.0814 39.8202 18.0814 40.1334 17.0257C40.2159 16.6827 40.282 16.3384 40.3291 15.9887C40.3494 15.83 40.3688 15.6721 40.3753 15.5121C40.3755 15.4881 40.3756 15.4642 40.3758 15.4394C40.3245 15.4392 40.2731 15.4415 40.2218 15.4443C40.1339 15.4579 40.0464 15.4723 39.9588 15.4874C39.654 15.5375 39.3495 15.5745 39.0412 15.593C38.8178 15.6029 38.5966 15.6027 38.3734 15.5904C38.019 15.5673 37.6669 15.5292 37.3157 15.4769C37.2883 15.4728 37.2609 15.4688 37.2326 15.4646C37.0275 15.4322 36.825 15.3892 36.6231 15.3404C36.4043 15.2813 36.1922 15.2058 35.9796 15.1276C35.9566 15.1191 35.9337 15.1107 35.9101 15.102C35.6713 15.0139 35.4328 14.9251 35.2038 14.8137C34.9154 14.6645 34.6413 14.4878 34.369 14.3115C34.1169 14.1454 33.8758 13.9716 33.6423 13.7802C33.6125 13.7565 33.5828 13.7327 33.5521 13.7082C33.3793 13.5662 33.2188 13.4134 33.061 13.2551C32.7499 12.9393 32.7499 12.9393 32.6223 12.7832C32.5775 12.7259 32.5333 12.6681 32.49 12.6097C32.4752 12.5909 32.4603 12.5722 32.445 12.5528C32.4272 12.5464 32.4095 12.5399 32.3912 12.5333ZM21.7359 54.4684C21.9054 54.5434 22.07 54.6259 22.2317 54.7163C22.319 54.7671 22.4038 54.8202 22.4869 54.8777C22.6212 54.9774 22.7494 55.0816 22.8737 55.1933C22.9837 55.2953 23.0893 55.4009 23.1902 55.512C23.3419 55.6886 23.4756 55.8797 23.6083 56.0708C23.5482 56.1014 23.4868 56.1294 23.4249 56.1563C23.251 56.2036 23.0746 56.2387 22.8969 56.2686C22.7185 56.2937 22.5417 56.3103 22.3616 56.3173C22.1517 56.3152 21.9459 56.2957 21.7376 56.2719C21.6125 56.2536 21.492 56.2298 21.3693 56.1997C21.1833 56.1448 21.0016 56.0793 20.8222 56.0057C20.7196 55.961 20.6217 55.9104 20.5239 55.8558C20.3501 55.7485 20.1808 55.6354 20.0179 55.5121C19.9053 55.4187 19.7996 55.3213 19.6963 55.2178C19.5945 55.1132 19.4982 55.0059 19.4047 54.8938C19.3347 54.804 19.2668 54.7151 19.2041 54.62C19.1743 54.5595 19.1454 54.4985 19.1186 54.4367C19.331 54.3802 19.5431 54.3283 19.7594 54.2896C19.9322 54.2637 20.1036 54.2419 20.2782 54.2336C20.3826 54.2331 20.4859 54.2361 20.5901 54.2416C20.626 54.2434 20.6619 54.2452 20.6989 54.2471C20.8109 54.255 20.9213 54.2659 21.0325 54.2808C21.2718 54.3243 21.5089 54.3803 21.7359 54.4684ZM20.9332 54.9537C20.8884 54.9446 20.8437 54.9354 20.7977 54.926C20.6963 54.9166 20.5981 54.9127 20.4964 54.9137C20.4764 54.9145 20.4565 54.9153 20.4359 54.9161C20.4383 54.9371 20.4407 54.9581 20.4432 54.9797C20.4976 55.0232 20.554 55.0641 20.6112 55.1036C20.6578 55.1362 20.6578 55.1362 20.7053 55.1694C20.8076 55.236 20.8076 55.236 20.9207 55.2937C21.0822 55.3688 21.2458 55.4318 21.4134 55.4918C21.5033 55.5214 21.5904 55.5442 21.683 55.5659C21.8011 55.5878 21.9173 55.6078 22.0367 55.6206C22.1182 55.621 22.1997 55.6205 22.2811 55.6182C22.261 55.5908 22.2408 55.5633 22.2201 55.5351C22.1502 55.4748 22.0827 55.4192 22.0075 55.3663C21.9263 55.322 21.8439 55.2799 21.7603 55.2402C21.6981 55.2103 21.6981 55.2103 21.6346 55.1799C21.4074 55.0778 21.175 55.0119 20.9332 54.9537ZM16.114 56.4181C16.2111 56.5296 16.3007 56.6441 16.3868 56.7643C16.5382 56.9758 16.6957 57.1797 16.8676 57.3749C16.9165 57.4296 16.9659 57.4838 17.0156 57.5378C17.0317 57.5554 17.0478 57.5729 17.0643 57.5909C17.2261 57.7648 17.3954 57.9292 17.5734 58.0865C17.7684 58.2549 17.9679 58.4162 18.1791 58.564C18.4458 58.7454 18.7199 58.9121 19.0029 59.0667C19.204 59.1689 19.407 59.2618 19.6173 59.3435C19.8939 59.4474 20.1711 59.5494 20.4563 59.6275C20.7145 59.6938 20.9753 59.7468 21.2385 59.7891C21.4795 59.8243 21.7205 59.8429 21.9638 59.8532C22.2167 59.8613 22.4689 59.8631 22.7216 59.8482C22.8476 59.839 22.9731 59.8264 23.0987 59.8128C23.1228 59.8104 23.1468 59.808 23.1716 59.8056C23.3514 59.7871 23.5298 59.7637 23.7074 59.7299C23.9499 59.6764 24.1905 59.6155 24.4308 59.5529C24.4567 59.5468 24.4825 59.5408 24.5092 59.5346C24.5511 59.5298 24.5931 59.5249 24.6363 59.52C24.6514 60.2849 24.6514 60.2849 24.6256 60.6464C24.6089 60.841 24.587 61.0348 24.5625 61.2285C24.5587 61.2589 24.5549 61.2894 24.551 61.3207C24.5109 61.6328 24.4575 61.9399 24.3856 62.2463C24.3484 62.3996 24.3091 62.5523 24.2687 62.7048C24.258 62.7452 24.2473 62.7857 24.2363 62.8274C24.1446 63.1542 24.0288 63.4743 23.9042 63.7899C23.76 64.1452 23.5978 64.4905 23.4173 64.8287C23.2408 65.1523 23.0525 65.4665 22.8445 65.7709C22.6306 66.0766 22.4007 66.3711 22.1606 66.6566C22.0929 66.7339 22.0243 66.8102 21.9552 66.8863C21.9261 66.8556 21.8971 66.8249 21.8672 66.7934C21.8285 66.7406 21.79 66.6879 21.7519 66.6347C21.5505 66.3535 21.3357 66.0858 21.107 65.8263C20.9318 65.6304 20.7456 65.4488 20.5514 65.2719C20.3846 65.123 20.2141 64.9798 20.0344 64.8466C19.8141 64.6891 19.5894 64.5379 19.3559 64.4006C19.1058 64.2589 18.8486 64.1311 18.5853 64.0157C18.3165 63.905 18.042 63.8053 17.7631 63.723C17.5159 63.655 17.2668 63.5967 17.0143 63.552C16.8225 63.5209 16.6303 63.4972 16.437 63.4773C16.3958 63.4728 16.3547 63.4684 16.3123 63.4638C16.1206 63.4474 15.9303 63.4445 15.7381 63.4475C15.4349 63.4548 15.1326 63.4687 14.8314 63.5045C14.5292 63.5444 14.2307 63.6014 13.9337 63.6699C13.7816 63.7077 13.635 63.7539 13.4866 63.804C13.4689 63.7975 13.4511 63.791 13.4329 63.7844C13.4226 63.3643 13.4217 62.9462 13.4548 62.527C13.4859 62.1643 13.5316 61.8047 13.5986 61.4469C13.6694 61.0904 13.7565 60.7372 13.8566 60.3879C13.9673 60.0328 14.0925 59.6828 14.2377 59.3403C14.3935 58.9821 14.5657 58.6331 14.7562 58.292C14.9327 57.9828 15.1204 57.6793 15.3266 57.3888C15.4231 57.2569 15.5245 57.1291 15.6274 57.0021C15.6441 56.9815 15.6608 56.9608 15.678 56.9395C15.9878 56.5561 15.9878 56.5561 16.114 56.4181ZM16.0745 57.5302C15.9279 57.7186 15.7848 57.9089 15.6515 58.107C15.4481 58.4342 15.2647 58.7748 15.0927 59.1195C14.9276 59.4751 14.7769 59.8375 14.6438 60.2063C14.5087 60.6052 14.3944 61.0105 14.3012 61.4213C14.2318 61.743 14.1831 62.0653 14.1467 62.3924C14.1291 62.5642 14.1201 62.7344 14.1175 62.9071C14.1689 62.9076 14.2202 62.9052 14.2715 62.9023C14.3415 62.8912 14.4114 62.88 14.4813 62.8681C14.7062 62.8299 14.9308 62.7973 15.1585 62.7811C15.4718 62.763 15.7852 62.7601 16.0988 62.7733C16.457 62.793 16.8133 62.8381 17.168 62.8909C17.4239 62.9322 17.6772 62.9843 17.9276 63.0517C18.2579 63.1484 18.5815 63.2722 18.9008 63.3998C19.0656 63.47 19.2254 63.5479 19.383 63.633C19.7555 63.8428 20.1134 64.0778 20.4625 64.3243C20.6439 64.4555 20.8187 64.5927 20.9856 64.7419C21.2305 64.9662 21.465 65.2018 21.6867 65.4489C21.7564 65.5315 21.825 65.6145 21.8924 65.6989C21.9084 65.7172 21.9244 65.7356 21.9408 65.7546C21.9586 65.761 21.9763 65.7675 21.9946 65.7741C22.1412 65.5858 22.2844 65.3955 22.4176 65.1974C22.6211 64.8702 22.8044 64.5295 22.9765 64.1849C23.1416 63.8292 23.2922 63.4669 23.4253 63.0981C23.5494 62.7318 23.6574 62.3605 23.7432 61.9833C23.8133 61.6591 23.8721 61.3325 23.9161 61.0037C23.9373 60.8019 23.9467 60.6001 23.9516 60.3973C23.9003 60.397 23.8489 60.3993 23.7976 60.4021C23.7347 60.4121 23.6719 60.4222 23.6092 60.4332C23.3559 60.4773 23.1026 60.5127 22.8461 60.5307C22.5382 60.548 22.2303 60.5432 21.9224 60.5305C21.5743 60.5122 21.2296 60.4718 20.8854 60.4178C20.6855 60.3851 20.4876 60.3505 20.2914 60.3001C19.9296 60.199 19.5765 60.0682 19.2271 59.9308C19.0541 59.8604 18.8856 59.7849 18.7206 59.6973C18.4154 59.5278 18.1191 59.3421 17.8305 59.1458C17.5511 58.9498 17.2839 58.738 17.0251 58.5156C16.8678 58.3767 16.718 58.2317 16.5754 58.0779C16.4584 57.9484 16.3439 57.8169 16.2306 57.6841C16.2025 57.6519 16.1744 57.6197 16.1454 57.5865C16.122 57.5679 16.0986 57.5494 16.0745 57.5302ZM16.9169 67.1748C17.0433 67.2197 17.1683 67.2664 17.2913 67.32C17.4375 67.3913 17.5775 67.4719 17.7155 67.5578C17.8333 67.6343 17.9454 67.7161 18.0553 67.8036C18.1832 67.9139 18.3042 68.0292 18.422 68.1501C18.5779 68.3194 18.7216 68.4966 18.8634 68.6777C18.8841 68.7073 18.9048 68.7369 18.9261 68.7675C18.9382 68.8171 18.9382 68.8171 18.9506 68.8677C18.8061 68.9117 18.6607 68.9508 18.513 68.9824C18.2905 69.0233 18.0662 69.0532 17.8408 69.0727C17.7078 69.079 17.5772 69.0802 17.4441 69.0761C17.2915 69.0653 17.1417 69.046 16.9909 69.0208C16.8823 68.9995 16.775 68.9767 16.6676 68.9501C16.4942 68.8961 16.3238 68.8354 16.1568 68.7642C16.038 68.706 15.9242 68.6437 15.8106 68.576C15.6706 68.4874 15.5339 68.398 15.4019 68.2979C15.2469 68.1667 15.1036 68.0258 14.9624 67.88C14.8711 67.7836 14.7836 67.6861 14.6991 67.5836C14.6425 67.5081 14.5884 67.4337 14.5391 67.3534C14.5154 67.3049 14.4924 67.2561 14.4707 67.2067C14.5942 67.1659 14.7185 67.131 14.8447 67.0993C15.0376 67.0594 15.2304 67.0266 15.4264 67.0066C15.5721 66.9963 15.7173 66.9941 15.8632 66.9971C16.0492 67.0065 16.2311 67.0272 16.4154 67.0537C16.5875 67.0828 16.7512 67.1186 16.9169 67.1748ZM16.2311 67.704C16.1242 67.6846 16.1242 67.6846 16.02 67.68C15.9427 67.6798 15.8653 67.6826 15.788 67.6862C15.7993 67.7104 15.8106 67.7346 15.8222 67.7595C15.8961 67.8313 15.8961 67.8313 15.959 67.8784C16.0385 67.9321 16.0385 67.9321 16.1418 67.9866C16.3067 68.0696 16.4724 68.1515 16.6446 68.2187C16.8184 68.2771 16.9961 68.3222 17.1744 68.3647C17.2153 68.3724 17.2562 68.3801 17.2984 68.3881C17.4027 68.397 17.4027 68.397 17.4973 68.3958C17.5421 68.3933 17.587 68.3908 17.6332 68.3882C17.6163 68.3519 17.6163 68.3519 17.599 68.3149C17.5221 68.2423 17.5221 68.2423 17.4583 68.1946C17.4052 68.1588 17.3506 68.1255 17.2952 68.0936C17.1576 68.0209 17.0188 67.954 16.8754 67.8935C16.6648 67.813 16.4513 67.752 16.2311 67.704ZM11.4661 69.1881C11.4951 69.2188 11.5241 69.2495 11.554 69.281C11.5915 69.3308 11.6283 69.3811 11.6647 69.4317C11.889 69.7385 12.1261 70.0349 12.3795 70.3182C12.544 70.4978 12.7195 70.6647 12.9016 70.8264C13.1217 71.0172 13.3497 71.1967 13.5873 71.3652C13.7982 71.5101 14.0161 71.6425 14.2396 71.7669C14.4515 71.8817 14.6671 71.9856 14.8896 72.0783C15.1413 72.1806 15.3965 72.2707 15.6566 72.349C15.8978 72.4183 16.1416 72.4721 16.3886 72.5167C16.6431 72.5595 16.8978 72.5911 17.1552 72.6091C17.4545 72.626 17.7524 72.6265 18.0518 72.6127C18.3347 72.5964 18.6153 72.5684 18.8954 72.5251C19.2121 72.4714 19.5219 72.3887 19.8311 72.3028C19.8532 72.2978 19.8752 72.2927 19.8979 72.2875C19.9427 72.2888 19.9427 72.2888 19.9884 72.29C20 72.7105 19.9964 73.127 19.9648 73.5466C19.9327 73.9331 19.8792 74.315 19.8097 74.6964C19.7428 75.0444 19.6501 75.3858 19.5494 75.7255C19.4474 76.0609 19.3284 76.3872 19.1921 76.7102C19.0336 77.0777 18.8594 77.4359 18.6634 77.7849C18.4999 78.0705 18.3324 78.3521 18.1411 78.6202C17.6545 79.2671 17.6545 79.2671 17.3824 79.5611C17.3608 79.5837 17.3393 79.6062 17.317 79.6294C17.2848 79.6076 17.2525 79.5858 17.2193 79.5634C17.1694 79.4968 17.1214 79.4289 17.0744 79.3603C16.9379 79.1657 16.7966 78.9773 16.6432 78.7955C16.4199 78.5401 16.1873 78.2934 15.9389 78.0622C15.689 77.8433 15.4264 77.6411 15.1569 77.447C14.9815 77.3238 14.8003 77.2137 14.6137 77.1084C14.4194 77.0013 14.2215 76.9038 14.0181 76.8151C13.6953 76.6818 13.3672 76.5627 13.0326 76.4628C12.7942 76.396 12.5542 76.3443 12.3103 76.3026C12.0262 76.2577 11.7415 76.2293 11.4544 76.2138C11.2172 76.2043 10.9814 76.2054 10.7444 76.2197C10.3826 76.247 10.0222 76.2872 9.66485 76.3511C9.49348 76.3838 9.3253 76.4211 9.15753 76.4692C9.08809 76.4909 9.01886 76.5133 8.95006 76.537C8.92542 76.5436 8.90077 76.5501 8.87538 76.5569C8.84877 76.5472 8.82215 76.5375 8.79473 76.5275C8.77908 76.1255 8.78063 75.7249 8.80494 75.3233C8.82925 74.9943 8.87576 74.6682 8.93184 74.3432C9.00174 73.9577 9.09071 73.5777 9.19908 73.2012C9.30035 72.8603 9.41788 72.5275 9.5522 72.1983C9.68767 71.8731 9.8381 71.5565 10.0039 71.2457C10.1804 70.9221 10.3688 70.6079 10.5768 70.3035C10.7906 69.9978 11.0206 69.7033 11.2607 69.4178C11.3283 69.3405 11.3969 69.2642 11.4661 69.1881ZM11.4266 70.3003C11.28 70.4886 11.1368 70.6789 11.0036 70.877C10.8002 71.2042 10.6168 71.5449 10.4448 71.8895C10.2797 72.2452 10.129 72.6075 9.99592 72.9763C9.87178 73.3426 9.76385 73.7139 9.67807 74.0911C9.60793 74.4153 9.54917 74.7419 9.50516 75.0707C9.4839 75.2725 9.47456 75.4743 9.4696 75.6771C9.66845 75.6557 9.86635 75.6311 10.0642 75.6015C10.274 75.5707 10.4823 75.5458 10.6942 75.5369C10.8213 75.533 10.9484 75.5315 11.0755 75.5309C11.118 75.5305 11.1604 75.53 11.2041 75.5296C11.4523 75.5315 11.6956 75.552 11.942 75.5797C12.3415 75.6271 12.7353 75.6856 13.1279 75.7739C13.4499 75.8576 13.7624 75.9819 14.0738 76.0983C14.2448 76.1631 14.4141 76.23 14.5785 76.3102C14.9005 76.4775 15.2066 76.6765 15.5093 76.8759C15.7279 77.0223 15.9361 77.1769 16.1396 77.3437C16.1694 77.3674 16.1991 77.3912 16.2298 77.4156C16.4032 77.5581 16.5637 77.7115 16.7218 77.8706C16.9172 78.0696 17.1094 78.2694 17.2837 78.4875C17.2956 78.5029 17.3075 78.5184 17.3198 78.5344C17.3472 78.5142 17.3747 78.4941 17.4029 78.4733C17.5347 78.3115 17.6555 78.142 17.7697 77.9674C17.9711 77.6389 18.1566 77.2997 18.3285 76.9549C18.4937 76.5993 18.6443 76.2369 18.7774 75.8681C18.9126 75.4692 19.0269 75.0639 19.1201 74.6531C19.1895 74.3314 19.2382 74.0091 19.2745 73.682C19.2921 73.5102 19.3011 73.34 19.3037 73.1673C19.2524 73.1679 19.201 73.1698 19.1497 73.1721C19.0846 73.1802 19.0196 73.189 18.9546 73.1984C18.2958 73.2909 18.2958 73.2909 18.0393 73.3026C17.8862 73.3066 17.7335 73.3049 17.5805 73.3012C17.5345 73.3006 17.4886 73.2999 17.4412 73.2992C17.1046 73.2898 16.772 73.2551 16.4383 73.2107C16.1851 73.1749 15.9351 73.1274 15.6862 73.0685C15.4122 72.9997 15.1475 72.9106 14.8823 72.8138C14.6612 72.7311 14.4455 72.6411 14.234 72.5361C13.9403 72.386 13.6574 72.218 13.3809 72.0385C13.0844 71.8415 12.8009 71.6282 12.5261 71.4019C12.3421 71.2472 12.1684 71.0837 12.0004 70.9118C11.6982 70.5978 11.6982 70.5978 11.5976 70.4708C11.5828 70.4515 11.5681 70.4321 11.5528 70.4122C11.5289 70.3817 11.505 70.3513 11.4804 70.3198C11.4626 70.3134 11.4449 70.3069 11.4266 70.3003ZM12.3587 79.9731C12.4989 80.025 12.6367 80.0803 12.7713 80.1455C12.8848 80.2047 12.9941 80.2689 13.1015 80.3384C13.2223 80.4206 13.3384 80.5075 13.4508 80.6008C13.5849 80.7165 13.7102 80.8398 13.8316 80.9687C13.9164 81.061 13.9978 81.1549 14.0779 81.2515C14.1552 81.3564 14.2279 81.4627 14.2953 81.5742C14.2856 81.6008 14.276 81.6274 14.266 81.6548C14.0113 81.7154 13.7568 81.7735 13.4978 81.8127C13.3656 81.8269 13.2354 81.8364 13.1024 81.8403C12.9028 81.8381 12.7047 81.8246 12.506 81.8059C12.3983 81.7929 12.2972 81.7748 12.1907 81.752C12.047 81.7183 11.908 81.6792 11.7685 81.6306C11.6521 81.5865 11.54 81.5391 11.4276 81.4856C11.3204 81.4316 11.2165 81.3769 11.1149 81.3131C10.962 81.2115 10.8153 81.1026 10.6731 80.9865C10.5657 80.8955 10.4643 80.7996 10.3647 80.7002C10.2227 80.5503 10.0928 80.39 9.96588 80.2272C9.92889 80.1758 9.92889 80.1758 9.89115 80.1234C9.84651 80.0363 9.84651 80.0363 9.82276 79.9767C9.92614 79.9391 10.0272 79.9057 10.1332 79.8766C10.3051 79.841 10.4773 79.8138 10.6514 79.7912C10.8512 79.7713 11.0499 79.76 11.2506 79.7592C11.3837 79.7633 11.5149 79.7766 11.6472 79.7912C11.8932 79.8267 12.125 79.8905 12.3587 79.9731ZM11.6827 80.4884C11.5738 80.4692 11.4678 80.4523 11.3576 80.444C11.2851 80.4468 11.2125 80.4505 11.1401 80.4562C11.1703 80.4974 11.1703 80.4974 11.2012 80.5393C11.2377 80.57 11.2753 80.5994 11.3136 80.6278C11.3332 80.6425 11.3528 80.6572 11.373 80.6724C11.4193 80.7035 11.4665 80.7334 11.5143 80.7621C11.6704 80.8383 11.8318 80.8975 11.9947 80.9575C12.0277 80.9702 12.0606 80.9828 12.0946 80.9958C12.1954 81.033 12.2955 81.0672 12.3987 81.097C12.5031 81.1171 12.6068 81.1325 12.7122 81.1454C12.8034 81.1532 12.8938 81.1568 12.9853 81.1583C12.9817 81.1268 12.9817 81.1268 12.978 81.0947C12.8979 81.021 12.8979 81.021 12.832 80.9725C12.7644 80.9253 12.6968 80.881 12.6258 80.839C12.5172 80.7816 12.4067 80.7321 12.2929 80.6862C12.0923 80.6085 11.8923 80.5376 11.6827 80.4884Z" fill="black"/>
</svg>
