<svg width="16" height="16" viewBox="0 0 16 16" fill="none" xmlns="http://www.w3.org/2000/svg">
<path d="M8 0C3.58073 0 0 3.58073 0 8C0 12.4193 3.58073 16 8 16C12.4193 16 16 12.4193 16 8C16 3.58073 12.4193 0 8 0ZM8 1.33333C11.6823 1.33333 14.6667 4.31771 14.6667 8C14.6667 11.6823 11.6823 14.6667 8 14.6667C4.31771 14.6667 1.33333 11.6823 1.33333 8C1.33333 4.31771 4.31771 1.33333 8 1.33333ZM8 3.875C7.8776 3.875 7.77604 3.8724 7.66667 3.89583C7.55729 3.91927 7.45573 3.97917 7.375 4.04167C7.29427 4.10417 7.23438 4.1901 7.1875 4.29167C7.14063 4.39323 7.125 4.51302 7.125 4.66667C7.125 4.81771 7.14063 4.9375 7.1875 5.04167C7.23438 5.14583 7.29427 5.22917 7.375 5.29167C7.45573 5.35417 7.55729 5.39063 7.66667 5.41667C7.77604 5.44271 7.8776 5.45833 8 5.45833C8.11979 5.45833 8.2474 5.44271 8.35417 5.41667C8.46094 5.39063 8.54427 5.35417 8.625 5.29167C8.70573 5.22917 8.76562 5.14583 8.8125 5.04167C8.85938 4.9401 8.89583 4.81771 8.89583 4.66667C8.89583 4.51302 8.85938 4.39323 8.8125 4.29167C8.76562 4.1901 8.70573 4.10417 8.625 4.04167C8.54427 3.97917 8.46094 3.91927 8.35417 3.89583C8.2474 3.8724 8.11979 3.875 8 3.875ZM7.1875 7V12.0833H8.8125V7H7.1875Z" fill="black"/>
</svg>
