<svg width="51" height="71" viewBox="0 0 51 71" fill="none" xmlns="http://www.w3.org/2000/svg">
<path d="M6.24601 69.7957C5.81733 69.5482 5.38864 69.3007 4.94697 69.0457C4.56469 68.7178 4.18242 68.3899 3.78856 68.0521C3.50213 67.7438 3.2157 67.4356 2.92059 67.118C2.69189 66.7716 2.46319 66.4252 2.22756 66.0683C2.01847 65.6261 1.80939 65.1839 1.59397 64.7282C1.53735 64.5169 1.48073 64.3056 1.42239 64.0879C1.29272 63.4772 1.29272 63.4772 1.16043 62.8541C1.14056 62.146 1.14056 62.146 1.12029 61.4237C1.1761 60.9558 1.2319 60.4878 1.2894 60.0058C1.32863 59.8141 1.36785 59.6224 1.40827 59.4249C1.54031 59.0724 1.67235 58.72 1.80839 58.3568C2.17964 57.7138 2.55089 57.0708 2.93339 56.4083C3.402 55.8751 3.402 55.8751 3.88008 55.3311C4.17288 55.0714 4.46568 54.8118 4.76734 54.5443C5.04053 54.3805 5.31371 54.2167 5.59517 54.0479C5.99513 53.8502 6.3951 53.6524 6.80719 53.4487C6.86077 53.4796 6.91436 53.5105 6.96957 53.5424C7.08503 53.4662 7.20049 53.3899 7.31945 53.3114C7.6998 53.2095 8.08015 53.1076 8.47203 53.0026C8.95955 52.9625 9.44708 52.9225 9.94937 52.8812C9.92895 52.2979 9.90852 51.7145 9.88748 51.1134C9.85158 50.5569 9.81568 50.0003 9.7787 49.4268C9.75828 48.8435 9.73785 48.2601 9.7168 47.6591C9.66433 47.3787 9.61185 47.0983 9.55779 46.8095C9.3987 46.3425 9.3987 46.3425 9.23639 45.8662C9.19524 45.6281 9.15409 45.39 9.1117 45.1446C8.95261 44.6777 8.95261 44.6777 8.7903 44.2013C8.82124 44.1477 8.85218 44.0941 8.88405 44.0389C8.80782 43.9235 8.73158 43.808 8.65304 43.689C8.59642 43.4777 8.5398 43.2664 8.48147 43.0487C8.31464 42.5952 8.14782 42.1416 7.97594 41.6743C7.78232 41.2053 7.5887 40.7363 7.38922 40.2531C7.16467 39.8376 6.94011 39.4222 6.70875 38.9942C6.46873 38.6055 6.22871 38.2169 5.98141 37.8165C5.3395 37.1958 4.69758 36.5751 4.03622 35.9356C3.68488 35.5542 3.33354 35.1727 2.97155 34.7797C2.5821 34.3405 2.5821 34.3405 2.18478 33.8924C2.00552 33.646 1.82626 33.3996 1.64157 33.1458C1.37475 32.7417 1.10793 32.3376 0.833033 31.9212C0.666209 31.4677 0.499384 31.0141 0.327504 30.5468C0.278213 29.9825 0.278213 29.9825 0.227925 29.4068C0.251684 29.2419 0.275442 29.077 0.29992 28.9071C0.36594 28.7309 0.43196 28.5546 0.499981 28.3731C0.639199 28.1319 0.778418 27.8908 0.921856 27.6424C1.09919 27.459 1.27653 27.2755 1.45924 27.0866C1.85506 26.9579 2.25088 26.8292 2.65869 26.6966C3.03283 26.6982 3.03283 26.6982 3.41452 26.6999C3.64848 26.7278 3.88243 26.7557 4.12348 26.7845C4.54498 26.9207 4.96648 27.0569 5.40076 27.1972C5.71095 27.3405 6.02114 27.4839 6.34072 27.6316C6.60865 27.7863 6.87658 27.941 7.15262 28.1004C7.57716 28.4169 8.0017 28.7335 8.4391 29.0596C9.0527 29.5746 9.0527 29.5746 9.6787 30.1001C9.73562 29.3827 9.79254 28.6654 9.85118 27.9263C9.88434 27.3739 9.9175 26.8214 9.95166 26.2523C9.96824 25.9761 9.98482 25.6998 10.0019 25.4153C10.098 24.5062 10.1942 23.5972 10.2932 22.6606C10.4126 21.7114 10.4126 21.7114 10.5344 20.743C10.6562 20.0989 10.778 19.4548 10.9035 18.7911C11.0212 18.216 11.1389 17.6409 11.2601 17.0484C11.4242 16.393 11.4242 16.393 11.5916 15.7243C11.7629 15.1801 11.9342 14.636 12.1106 14.0754C12.5299 12.9778 12.5299 12.9778 12.9577 11.8581C13.2558 11.28 13.5538 10.7019 13.8609 10.1062C14.1703 9.57039 14.4797 9.03454 14.7984 8.48245C15.0727 8.06923 15.347 7.65602 15.6296 7.23028C16.1503 6.63781 16.671 6.04534 17.2074 5.43491C17.5157 5.14848 17.824 4.86205 18.1416 4.56694C18.7307 4.10333 18.7307 4.10333 19.3318 3.63035C19.7359 3.36353 20.1401 3.09671 20.5564 2.82181C20.9718 2.59726 21.3873 2.3727 21.8153 2.14134C22.2421 1.95905 22.6688 1.77676 23.1085 1.58894C23.5198 1.43344 23.9311 1.27794 24.3548 1.11773C24.6316 1.00959 24.6316 1.00959 24.914 0.899278C24.9676 0.930215 25.0212 0.961153 25.0764 0.993028C25.1918 0.916794 25.3073 0.840561 25.4262 0.762018C25.5221 0.781632 25.6179 0.801245 25.7167 0.821453C25.8321 0.74522 25.9476 0.668987 26.0666 0.590444C26.1202 0.621381 26.1737 0.652319 26.2289 0.684194C26.2599 0.630608 26.2908 0.577023 26.3227 0.521814C26.7566 0.450836 27.1906 0.379858 27.6377 0.30673C28.1407 0.239897 28.6436 0.173064 29.1619 0.104206C29.6339 0.0909586 30.106 0.077711 30.5923 0.0640621C31.4612 0.137003 31.4612 0.137003 32.3476 0.211418C32.9459 0.288911 32.9459 0.288911 33.5562 0.367969C34.2807 0.536201 35.0053 0.704434 35.7517 0.877764C36.9126 1.2801 36.9126 1.2801 38.097 1.69057C38.5144 1.8958 38.9317 2.10104 39.3618 2.3125C40.1923 2.79203 41.0229 3.27156 41.8786 3.76563C42.2651 4.02445 42.6515 4.28327 43.0496 4.54994C43.6421 5.07062 44.2346 5.5913 44.845 6.12776C45.1963 6.50923 45.5477 6.89069 45.9096 7.28371C46.1425 7.56104 46.3753 7.83837 46.6152 8.1241C46.7945 8.37049 46.9738 8.61688 47.1584 8.87073C47.4253 9.27484 47.6921 9.67896 47.967 10.0953C48.241 10.6107 48.515 11.1262 48.7973 11.6572C49.1556 12.6143 49.1556 12.6143 49.5212 13.5907C49.6798 14.1824 49.8383 14.7741 50.0017 15.3837C50.0634 15.7408 50.0634 15.7408 50.1264 16.1052C50.0954 16.1588 50.0645 16.2123 50.0326 16.2675C50.0862 16.2985 50.1398 16.3294 50.195 16.3613C50.2936 17.4899 50.2936 17.4899 50.3941 18.6413C50.38 19.2226 50.38 19.2226 50.3657 19.8157C50.3437 20.8747 50.3437 20.8747 50.3212 21.9551C50.2562 22.3462 50.2562 22.3462 50.1898 22.7452C50.1382 23.1441 50.0865 23.543 50.0333 23.9539C49.896 24.6248 49.7587 25.2958 49.6172 25.987C49.3603 26.8032 49.1034 27.6194 48.8387 28.4604C48.6335 28.8778 48.4283 29.2951 48.2168 29.7251C47.7063 30.6093 47.1959 31.4934 46.6699 32.4044C46.2915 32.9361 45.9131 33.4678 45.5232 34.0156C45.1066 34.4896 44.6901 34.9636 44.2609 35.4519C43.5402 36.1433 42.8196 36.8346 42.0771 37.5469C41.6688 37.8828 41.2606 38.2187 40.8399 38.5647C40.6018 38.6059 40.3637 38.647 40.1184 38.6894C39.8751 39.049 39.6317 39.4087 39.381 39.7792C39.0037 40.0615 38.6263 40.3438 38.2376 40.6346C37.8871 40.9324 37.5365 41.2301 37.1754 41.5369C36.7558 41.8305 36.3362 42.1241 35.9039 42.4266C35.3802 42.8387 34.8565 43.2508 34.3169 43.6754C34.0128 43.8928 33.7087 44.1102 33.3953 44.3341C33.0603 44.6051 32.7252 44.876 32.38 45.1552C31.8872 45.5137 31.3945 45.8723 30.8868 46.2416C30.6826 46.4096 30.4785 46.5775 30.2682 46.7505C29.9641 46.9679 29.6599 47.1853 29.3466 47.4092C29.027 47.6534 28.7074 47.8976 28.3782 48.1491C28.2627 48.2254 28.1472 48.3016 28.0283 48.3802C27.9313 48.61 27.8344 48.8398 27.7345 49.0766C27.5024 49.4784 27.2704 49.8803 27.0313 50.2944C26.5261 50.8601 26.0209 51.4258 25.5004 52.0086C25.0612 52.398 25.0612 52.398 24.6131 52.7954C24.0894 53.2075 23.5657 53.6196 23.0261 54.0442C22.3024 54.5551 21.5787 55.0661 20.8331 55.5926C20.1867 55.9696 19.5404 56.3466 18.8744 56.7351C18.5435 56.937 18.2126 57.1389 17.8717 57.3469C17.8407 57.4005 17.8098 57.4541 17.7779 57.5093C17.85 57.6938 17.9221 57.8783 17.9964 58.0684C18.1405 58.4375 18.2847 58.8065 18.4333 59.1867C18.5125 59.4825 18.5918 59.7784 18.6735 60.0832C18.7505 60.8778 18.7505 60.8778 18.8291 61.6886C18.8001 62.1719 18.7711 62.6553 18.7412 63.1533C18.6318 63.5903 18.5224 64.0273 18.4097 64.4775C18.2663 64.7877 18.123 65.0979 17.9753 65.4175C17.6968 65.8997 17.4184 66.382 17.1315 66.8789C16.8614 67.223 16.5912 67.5672 16.3129 67.9218C16.0046 68.2082 15.6964 68.4947 15.3788 68.7898C15.0901 68.9803 14.8015 69.1709 14.5041 69.3673C14.1041 69.5651 13.7041 69.7628 13.292 69.9666C12.8117 70.1179 12.3314 70.2693 11.8365 70.4252C11.3757 70.4807 10.915 70.5362 10.4403 70.5934C10.1909 70.5923 9.94145 70.5912 9.68447 70.5901C9.38146 70.558 9.07845 70.526 8.76626 70.493C8.5323 70.465 8.29835 70.4371 8.05731 70.4084C7.45958 70.2062 6.86185 70.004 6.24601 69.7957ZM6.68044 68.8557C7.39308 69.1064 7.39308 69.1064 8.12011 69.3621C8.54575 69.4293 8.9714 69.4964 9.40995 69.5655C9.882 69.5523 10.3541 69.5391 10.8404 69.5254C11.3321 69.4163 11.8238 69.3072 12.3303 69.1948C12.6994 69.0506 13.0684 68.9065 13.4486 68.7579C13.764 68.5828 14.0795 68.4077 14.4045 68.2273C14.6663 68.0212 14.9282 67.8152 15.198 67.6029C15.4795 67.301 15.7609 66.9991 16.0509 66.688C16.2015 66.4892 16.352 66.2903 16.5071 66.0854C16.6618 65.8175 16.8165 65.5495 16.9759 65.2735C17.1585 64.7716 17.3411 64.2697 17.5292 63.7526C17.6118 63.3002 17.6944 62.8477 17.7795 62.3816C17.7734 62.0209 17.7673 61.6601 17.7611 61.2884C17.7241 60.9813 17.6871 60.6741 17.649 60.3577C17.4621 59.6604 17.4621 59.6604 17.2715 58.949C17.0356 58.4913 16.7997 58.0336 16.5567 57.562C16.4959 57.4198 16.4352 57.2775 16.3726 57.1309C16.4922 56.9856 16.6118 56.8404 16.735 56.6907C17.0772 56.531 17.4195 56.3714 17.7721 56.2069C18.4339 55.8031 19.0957 55.3993 19.7776 54.9832C20.224 54.7051 20.6704 54.4269 21.1303 54.1404C21.8117 53.6407 22.4931 53.1411 23.1952 52.6262C23.9406 51.9849 23.9406 51.9849 24.7011 51.3306C24.9361 51.1091 25.1712 50.8875 25.4134 50.6593C25.6681 50.3419 25.9227 50.0246 26.1851 49.6976C26.3862 49.3493 26.5873 49.001 26.7945 48.6421C27.0622 47.9929 27.0622 47.9929 27.3352 47.3305C27.3684 46.7781 27.4016 46.2257 27.4357 45.6565C27.3802 45.1957 27.3247 44.735 27.2675 44.2603C27.2139 44.2294 27.1604 44.1985 27.1051 44.1666C27.1134 44.0285 27.1217 43.8904 27.1303 43.7481C27.0283 43.3677 26.9264 42.9874 26.8214 42.5955C26.6165 42.0842 26.4115 41.5729 26.2004 41.0461C26.0294 40.6616 25.8585 40.2771 25.6823 39.881C25.5257 39.7191 25.3691 39.5573 25.2077 39.3905C25.0141 38.9215 24.8205 38.4525 24.621 37.9692C24.3398 37.3425 24.0587 36.7157 23.769 36.07C23.5414 35.4742 23.3138 34.8784 23.0793 34.2645C22.8857 33.7955 22.6921 33.3265 22.4926 32.8433C22.3371 32.432 22.1816 32.0207 22.0214 31.5969C21.8319 31.0589 21.6424 30.5208 21.4472 29.9664C21.3412 29.6551 21.2351 29.3438 21.1258 29.0231C20.9971 28.6272 20.8684 28.2314 20.7358 27.8236C20.5767 27.3567 20.5767 27.3567 20.4144 26.8803C20.3465 26.6267 20.2785 26.3731 20.2085 26.1119C20.1549 26.081 20.1013 26.05 20.0461 26.0181C20.0544 25.88 20.0627 25.7419 20.0713 25.5996C19.9878 25.3729 19.9044 25.1461 19.8185 24.9124C19.7547 24.5898 19.6909 24.2672 19.6252 23.9348C19.5274 23.4854 19.4296 23.036 19.3289 22.5729C19.2662 22.0009 19.2035 21.4289 19.1389 20.8395C19.1453 20.2716 19.1517 19.7037 19.1582 19.1186C19.1985 18.6774 19.2389 18.2363 19.2804 17.7818C19.4632 16.8156 19.4632 16.8156 19.6496 15.8299C19.9529 14.9333 19.9529 14.9333 20.2624 14.0186C20.3903 13.7352 20.5181 13.4518 20.6499 13.1599C21.083 12.4097 21.5162 11.6595 21.9624 10.8865C22.248 10.5156 22.5337 10.1446 22.8279 9.76244C23.1826 9.39563 23.5373 9.02882 23.9027 8.6509C24.4919 8.18728 24.4919 8.18728 25.0929 7.7143C25.5816 7.42484 26.0702 7.13537 26.5737 6.83714C26.9427 6.69296 27.3117 6.54878 27.6919 6.40024C27.7651 6.33533 27.8383 6.27042 27.9137 6.20354C28.0518 6.21183 28.19 6.22012 28.3322 6.22866C28.5436 6.17204 28.7549 6.11542 28.9726 6.05709C29.5601 5.96761 29.5601 5.96761 30.1595 5.87632C30.5625 5.85893 30.9655 5.84154 31.3807 5.82362C32.2495 5.89656 32.2495 5.89656 33.1359 5.97097C33.8548 6.11807 33.8548 6.11807 34.5881 6.26815C35.0787 6.40848 35.5693 6.54881 36.0747 6.69339C36.5343 6.8873 36.9939 7.08122 37.4675 7.28101C38.1105 7.65226 38.7535 8.02351 39.416 8.40601C40.1502 8.99064 40.1502 8.99064 40.8992 9.58708C41.2773 9.98401 41.6555 10.3809 42.045 10.7899C42.2624 11.094 42.4798 11.3981 42.7038 11.7115C43.0468 12.231 43.0468 12.231 43.3968 12.7611C43.6172 13.2456 43.8376 13.7301 44.0647 14.2293C44.2917 14.9498 44.2917 14.9498 44.5233 15.6849C44.6139 16.0229 44.7045 16.361 44.7979 16.7094C44.876 17.2546 44.9542 17.7999 45.0347 18.3617C45.0634 18.8069 45.0921 19.2522 45.1217 19.7109C45.1292 20.6262 45.1292 20.6262 45.1368 21.5599C44.9942 22.5493 44.9942 22.5493 44.8488 23.5587C44.5857 24.4785 44.5857 24.4785 44.3172 25.4169C44.1486 25.8018 44.1486 25.8018 43.9765 26.1945C43.5125 26.9982 43.0484 27.802 42.5703 28.6302C42.196 29.0928 41.8217 29.5555 41.4361 30.0321C41.0969 30.3722 40.7577 30.7122 40.4082 31.0625C40.2731 31.2346 40.1381 31.4067 39.9989 31.5839C39.8555 31.8941 39.7122 32.2043 39.5645 32.5239C39.6189 33.2341 39.6733 33.9442 39.7293 34.6759C39.7992 35.3593 39.869 36.0426 39.941 36.7467C39.9667 37.0116 39.9924 37.2765 40.0188 37.5494C40.1569 37.5577 40.2951 37.566 40.4374 37.5745C40.7879 37.2768 41.1384 36.979 41.4995 36.6722C41.9542 36.256 42.4089 35.8397 42.8773 35.4109C43.5887 34.6427 43.5887 34.6427 44.3145 33.8591C44.7043 33.3696 45.094 32.8802 45.4956 32.3759C45.6925 32.0966 45.8895 31.8174 46.0924 31.5297C46.4482 30.9135 46.804 30.2972 47.1705 29.6623C47.5274 28.7967 47.8843 27.931 48.252 27.0391C48.4512 26.261 48.6504 25.4829 48.8556 24.6812C49.0632 23.3007 49.0632 23.3007 49.275 21.8923C49.2938 21.1172 49.3126 20.3422 49.3319 19.5436C49.3228 19.0025 49.3137 18.4614 49.3044 17.9039C49.2375 17.4009 49.1707 16.8979 49.1018 16.3797C49.0154 15.9725 48.9289 15.5654 48.8399 15.1459C48.7761 14.8233 48.7123 14.5007 48.6465 14.1683C48.491 13.757 48.3355 13.3457 48.1753 12.9219C47.9436 12.3952 47.7119 11.8684 47.4731 11.3257C47.0389 10.5928 47.0389 10.5928 46.5959 9.84501C46.2699 9.38883 46.2699 9.38883 45.9372 8.92344C45.5365 8.44198 45.1357 7.96053 44.7227 7.46448C44.291 7.03661 43.8593 6.60874 43.4145 6.16791C42.5598 5.51367 42.5598 5.51367 41.6878 4.84621C41.3281 4.60286 40.9685 4.3595 40.598 4.10877C40.3033 3.93862 40.0086 3.76846 39.7049 3.59315C39.0309 3.27548 38.357 2.95782 37.6626 2.63053C37.1607 2.44794 36.6588 2.26535 36.1417 2.07722C35.2621 1.83731 35.2621 1.83731 34.3648 1.59255C33.7206 1.47072 33.0765 1.3489 32.4128 1.22338C31.8604 1.19022 31.308 1.15706 30.7388 1.1229C30.1977 1.132 29.6566 1.1411 29.0991 1.15048C28.5961 1.21731 28.0931 1.28415 27.5749 1.353C27.1677 1.43945 26.7606 1.5259 26.3411 1.61496C25.8762 1.73953 25.4113 1.86409 24.9324 1.99243C24.5211 2.14793 24.1098 2.30343 23.686 2.46364C23.217 2.65726 22.748 2.85087 22.2648 3.05036C21.7916 3.31303 21.3184 3.5757 20.8309 3.84633C20.2804 4.24297 19.7299 4.6396 19.1627 5.04825C18.8854 5.2811 18.6081 5.51394 18.3223 5.75384C17.9677 6.12065 17.613 6.48746 17.2476 6.86538C16.5933 7.72012 16.5933 7.72012 15.9259 8.59212C15.3845 9.52987 14.8431 10.4676 14.2853 11.4338C13.9284 12.2994 13.5715 13.1651 13.2038 14.057C12.9974 14.7237 12.7911 15.3905 12.5785 16.0775C12.3752 16.9247 12.1718 17.7718 11.9624 18.6446C11.7734 19.7144 11.7734 19.7144 11.5806 20.8058C11.4256 22.0024 11.4256 22.0024 11.2675 23.2231C11.1797 23.994 11.0918 24.765 11.0013 25.5592C10.9681 26.1117 10.935 26.6641 10.9008 27.2333C10.8221 28.5453 10.7433 29.8573 10.6622 31.2091C10.6434 31.9842 10.6246 32.7593 10.6052 33.5578C10.5864 34.3329 10.5676 35.1079 10.5482 35.9065C10.5449 36.6548 10.5416 37.403 10.5381 38.174C10.5461 38.9645 10.5541 39.755 10.5624 40.5695C10.5715 41.1106 10.5806 41.6517 10.5899 42.2092C10.6093 43.042 10.6286 43.8748 10.6485 44.7329C10.6791 45.6079 10.7098 46.483 10.7413 47.3845C10.7617 47.9679 10.7822 48.5513 10.8032 49.1523C10.8493 50.0006 10.8954 50.8489 10.9429 51.7228C10.9603 52.1258 10.9777 52.5288 10.9956 52.944C10.96 53.1914 10.96 53.1914 10.9237 53.4437C10.8308 53.6045 10.738 53.7652 10.6424 53.9309C10.1281 53.9554 9.61377 53.98 9.08387 54.0053C8.64993 54.0763 8.21599 54.1473 7.76891 54.2204C7.34215 54.4027 6.91539 54.585 6.4757 54.7728C6.06592 55.0185 6.06592 55.0185 5.64787 55.2692C5.32828 55.5133 5.0087 55.7575 4.67942 56.0091C4.42889 56.2574 4.17835 56.5057 3.92023 56.7615C3.6614 57.1479 3.40258 57.5344 3.13591 57.9325C2.82184 58.6621 2.82184 58.6621 2.50142 59.4065C2.35432 60.1253 2.35432 60.1253 2.20424 60.8587C2.18352 61.204 2.16279 61.5492 2.14144 61.905C2.18563 62.3234 2.22981 62.7419 2.27534 63.1731C2.46218 63.8704 2.46218 63.8704 2.6528 64.5818C2.9268 65.0972 3.20079 65.6126 3.48309 66.1437C3.81896 66.5519 4.15483 66.9602 4.50088 67.3808C4.81824 67.6355 5.13561 67.8902 5.46259 68.1526C5.86448 68.3846 6.26637 68.6166 6.68044 68.8557ZM9.57462 43.0303C9.59837 42.8654 9.62213 42.7005 9.64661 42.5306C9.63862 41.7401 9.63063 40.9496 9.62239 40.1351C9.62269 39.2064 9.62299 38.2778 9.62329 37.321C9.62552 36.8222 9.62774 36.3233 9.63003 35.8094C9.64124 34.5834 9.64124 34.5834 9.65268 33.3326C9.67922 32.5442 9.67922 32.5442 9.70629 31.7398C9.56515 31.5511 9.424 31.3625 9.27858 31.1681C8.88498 30.7979 8.49138 30.4278 8.08586 30.0464C7.58094 29.6835 7.07602 29.3205 6.55581 28.9466C6.03128 28.6795 5.50675 28.4123 4.96633 28.1371C4.51803 27.9855 4.51803 27.9855 4.06068 27.8308C3.73088 27.7832 3.40107 27.7357 3.06128 27.6868C2.82318 27.7279 2.58508 27.7691 2.33976 27.8115C2.18204 27.899 2.02432 27.9866 1.86182 28.0768C1.69166 28.3715 1.52151 28.6662 1.34619 28.9699C1.32547 29.3152 1.30475 29.6604 1.28339 30.0162C1.36266 30.312 1.44193 30.6078 1.5236 30.9126C1.74815 31.328 1.97271 31.7435 2.20407 32.1715C2.53013 32.6277 2.53013 32.6277 2.86278 33.0931C3.22544 33.5168 3.58811 33.9405 3.96176 34.3771C4.55009 34.9668 5.13841 35.5566 5.74457 36.1642C6.01968 36.4302 6.29478 36.6962 6.57822 36.9702C6.84711 37.3398 6.84711 37.3398 7.12143 37.7169C7.40731 38.1499 7.40731 38.1499 7.69896 38.5916C7.89672 38.9915 8.09448 39.3915 8.29823 39.8036C8.48053 40.2304 8.66282 40.6571 8.85064 41.0968C8.94537 41.3658 9.04011 41.6349 9.13772 41.9121C9.1913 41.943 9.24489 41.9739 9.3001 42.0058C9.26916 42.0594 9.23822 42.113 9.20635 42.1682C9.32788 42.4527 9.4494 42.7372 9.57462 43.0303ZM28.1505 47.0434C29.0361 46.3758 29.9216 45.7082 30.834 45.0204C31.9083 44.2117 32.9825 43.4029 34.0893 42.5697C34.6707 42.1195 35.2522 41.6693 35.8512 41.2054C36.4904 40.7171 37.1296 40.2287 37.7881 39.7256C38.1809 39.4165 38.1809 39.4165 38.5816 39.1012C38.8446 38.6457 39.1076 38.1902 39.3785 37.721C39.3015 36.9263 39.3015 36.9263 39.2229 36.1156C39.1571 35.3631 39.0914 34.6107 39.0237 33.8355C38.9908 33.4593 38.958 33.0831 38.9241 32.6955C38.717 32.6831 38.717 32.6831 38.5056 32.6704C37.9664 33.1093 37.4273 33.5482 36.8717 34.0004C35.9594 34.6525 35.047 35.3046 34.107 35.9765C33.2643 36.5081 33.2643 36.5081 32.4045 37.0504C31.3314 37.6097 31.3314 37.6097 30.2366 38.1803C29.6253 38.4347 29.014 38.689 28.3842 38.9511C28.0997 39.0727 27.8152 39.1942 27.5221 39.3194C27.3108 39.376 27.0995 39.4326 26.8818 39.491C26.6972 39.5631 26.5127 39.6352 26.3226 39.7094C26.4442 39.9939 26.5657 40.2784 26.6909 40.5716C26.8958 41.0828 27.1008 41.5941 27.3119 42.1209C27.4633 42.6012 27.6146 43.0816 27.7706 43.5765C27.8416 44.0104 27.9125 44.4444 27.9857 44.8915C28.0185 45.2677 28.0514 45.6439 28.0852 46.0315C28.08 46.35 28.0747 46.6684 28.0693 46.9966C28.0961 47.012 28.1229 47.0275 28.1505 47.0434ZM26.1293 38.7318C26.1602 38.6782 26.1912 38.6246 26.2231 38.5694C26.2766 38.6003 26.3302 38.6313 26.3854 38.6632C26.7967 38.5077 27.208 38.3522 27.6318 38.1919C28.2276 37.9643 28.8234 37.7368 29.4372 37.5023C30.2738 37.0743 30.2738 37.0743 31.1272 36.6377C31.7503 36.3008 31.7503 36.3008 32.3861 35.9572C32.7902 35.6904 33.1943 35.4236 33.6107 35.1487C33.8839 34.9849 34.157 34.8211 34.4385 34.6523C34.6272 34.5112 34.8158 34.3701 35.0102 34.2246C35.6494 33.7363 36.2885 33.248 36.9471 32.7448C37.2976 32.4471 37.6481 32.1493 38.0093 31.8425C38.2896 31.7901 38.57 31.7376 38.8589 31.6835C38.9321 31.6186 39.0053 31.5537 39.0807 31.4868C39.2663 31.1653 39.4519 30.8438 39.6432 30.5126C39.9514 30.2261 40.2597 29.9397 40.5773 29.6446C41.0557 29.0634 41.5342 28.4823 42.0271 27.8835C42.3674 27.2941 42.7077 26.7047 43.0583 26.0974C43.3265 25.3234 43.5948 24.5494 43.8711 23.752C43.9424 23.2573 44.0137 22.7626 44.0871 22.2529C44.1203 21.7005 44.1534 21.1481 44.1876 20.5789C44.163 20.0646 44.1384 19.5503 44.1131 19.0204C44.0576 18.5596 44.0021 18.0989 43.9449 17.6242C43.9264 17.4706 43.9079 17.3171 43.8889 17.1588C43.8353 17.1279 43.7817 17.097 43.7265 17.0651C43.7389 16.8579 43.7389 16.8579 43.7516 16.6466C43.7218 16.4507 43.6919 16.2549 43.6612 16.0531C43.5021 15.5862 43.5021 15.5862 43.3398 15.1098C43.2749 15.0366 43.21 14.9634 43.1431 14.888C43.1725 14.7442 43.1725 14.7442 43.2026 14.5975C42.8318 13.8476 42.8318 13.8476 42.4535 13.0825C42.1753 12.6361 41.8972 12.1898 41.6106 11.7299C41.2861 11.3639 40.9615 10.9979 40.6271 10.6208C40.18 10.2197 39.7328 9.81864 39.272 9.40541C38.3879 8.89494 37.5037 8.38447 36.5928 7.85853C35.8992 7.63671 35.2056 7.4149 34.491 7.18636C34.0118 7.08829 33.5326 6.99022 33.0388 6.88918C32.2101 6.83944 32.2101 6.83944 31.3648 6.7887C31.0308 6.81024 30.6969 6.83177 30.3528 6.85396C30.1302 6.86832 29.9075 6.88268 29.6782 6.89747C29.5668 6.90465 29.4555 6.91183 29.3408 6.91923C29.3099 6.97281 29.279 7.0264 29.2471 7.08161C29.109 7.07332 28.9709 7.06503 28.8286 7.05649C28.4328 7.1852 28.0369 7.3139 27.6291 7.44651C27.1869 7.6556 26.7447 7.86468 26.289 8.08011C26.0736 8.20578 25.8581 8.33145 25.6362 8.46093C25.2124 8.8236 24.7887 9.18626 24.3521 9.55991C24.2212 9.66294 24.0903 9.76596 23.9554 9.87211C23.446 10.5068 22.9367 11.1416 22.4119 11.7955C22.1644 12.2242 21.9169 12.6529 21.6619 13.0946C21.1961 14.2725 21.1961 14.2725 20.721 15.4742C20.5879 16.0761 20.4547 16.678 20.3175 17.2981C20.2044 18.1437 20.2044 18.1437 20.089 19.0064C20.0939 19.6166 20.0989 20.2267 20.104 20.8554C20.1482 21.2739 20.1924 21.6923 20.2379 22.1235C20.3357 22.5729 20.4334 23.0223 20.5342 23.4853C20.5527 23.6389 20.5712 23.7925 20.5902 23.9507C20.6438 23.9817 20.6974 24.0126 20.7526 24.0445C20.7443 24.1826 20.736 24.3207 20.7275 24.463C20.7811 24.4939 20.8347 24.5248 20.8899 24.5567C20.8816 24.6948 20.8733 24.8329 20.8648 24.9752C20.9497 25.2922 20.9497 25.2922 21.0363 25.6156C21.0899 25.6465 21.1435 25.6774 21.1987 25.7093C21.1904 25.8474 21.1821 25.9855 21.1736 26.1278C21.2272 26.1588 21.2808 26.1897 21.336 26.2216C21.3277 26.3597 21.3194 26.4978 21.3109 26.6401C21.4169 26.9514 21.523 27.2627 21.6322 27.5834C21.7836 28.0638 21.935 28.5441 22.0909 29.039C22.1743 29.2658 22.2577 29.4925 22.3437 29.7262C22.3973 29.7571 22.4508 29.7881 22.506 29.8199C22.4751 29.8735 22.4442 29.9271 22.4123 29.9823C22.7197 30.7492 22.7197 30.7492 23.0333 31.5317C23.2115 32.0275 23.3896 32.5233 23.5732 33.0341C23.7781 33.5454 23.9831 34.0567 24.1942 34.5835C24.3157 34.868 24.4373 35.1525 24.5625 35.4456C25.0012 36.4491 25.0012 36.4491 25.4488 37.4729C25.6198 37.8574 25.7908 38.2419 25.9669 38.638C26.0205 38.669 26.0741 38.6999 26.1293 38.7318ZM7.74937 66.4417C7.50824 66.3025 7.26711 66.1633 7.01866 66.0199C6.62299 65.6843 6.62299 65.6843 6.21933 65.3419C5.97516 65.0223 5.73099 64.7027 5.47942 64.3734C5.28014 63.8833 5.28014 63.8833 5.07684 63.3832C4.98625 63.0451 4.89566 62.707 4.80232 62.3587C4.79625 61.998 4.79018 61.6372 4.78393 61.2655C4.87785 60.8554 4.97178 60.4452 5.06855 60.0226C5.37792 59.4867 5.6873 58.9509 6.00605 58.3988C6.37204 58.0742 6.73803 57.7497 7.11512 57.4153C7.41509 57.267 7.71507 57.1187 8.02413 56.9658C8.12413 56.9164 8.22412 56.867 8.32714 56.816C8.38072 56.847 8.43431 56.8779 8.48952 56.9098C8.66271 56.7954 8.66271 56.7954 8.8394 56.6788C9.25787 56.6346 9.67634 56.5904 10.1075 56.5449C10.5599 56.6275 11.0124 56.7101 11.4785 56.7952C11.783 56.9174 11.783 56.9174 12.0937 57.0421C12.3884 57.2123 12.6832 57.3824 12.9868 57.5577C13.3155 57.8547 13.6442 58.1516 13.9828 58.4576C14.3429 59.0405 14.3429 59.0405 14.7102 59.6353C14.8693 60.1022 14.8693 60.1022 15.0316 60.5786C15.0758 60.9971 15.12 61.4155 15.1655 61.8467C15.0648 62.4852 15.0648 62.4852 14.9621 63.1365C14.8862 63.3607 14.8862 63.3607 14.8089 63.5893C14.5304 64.0716 14.252 64.5539 13.9651 65.0508C13.7146 65.2991 13.464 65.5474 13.2059 65.8032C12.9173 65.9938 12.6286 66.1844 12.3312 66.3808C11.9354 66.5095 11.5396 66.6382 11.1318 66.7708C10.8514 66.8233 10.571 66.8757 10.2822 66.9298C9.86786 66.9049 9.45354 66.8801 9.02666 66.8544C8.60515 66.7182 8.18365 66.5821 7.74937 66.4417ZM8.34619 65.5955C8.71411 65.7008 9.08202 65.806 9.46109 65.9145C9.79504 65.8929 10.129 65.8714 10.4731 65.8492C10.6689 65.8194 10.8647 65.7895 11.0665 65.7588C11.0974 65.7052 11.1284 65.6516 11.1602 65.5964C11.2561 65.6161 11.3519 65.6357 11.4507 65.6559C11.8373 65.4504 11.8373 65.4504 12.2316 65.2407C12.4935 65.0347 12.7554 64.8286 13.0252 64.6163C13.3345 64.0805 13.6439 63.5446 13.9627 62.9925C14.0143 62.5937 14.066 62.1948 14.1192 61.7839C14.0822 61.4767 14.0452 61.1696 14.0071 60.8531C13.9618 60.6841 13.9165 60.515 13.8698 60.3408C13.8162 60.3099 13.7626 60.279 13.7074 60.2471C13.7384 60.1935 13.7693 60.1399 13.8012 60.0847C13.6374 59.8115 13.4736 59.5384 13.3048 59.2569C12.938 58.9022 12.5712 58.5476 12.1933 58.1821C11.6244 57.9609 11.6244 57.9609 11.0441 57.7351C10.7143 57.6876 10.3845 57.6401 10.0447 57.5912C9.69527 57.6395 9.34586 57.6878 8.98585 57.7376C8.5189 57.8967 8.5189 57.8967 8.04252 58.059C7.75387 58.2496 7.46522 58.4402 7.16782 58.6365C6.88221 59.0075 6.59659 59.3784 6.30232 59.7606C6.15481 60.1399 6.0073 60.5191 5.85532 60.9098C5.84592 61.2974 5.83652 61.6849 5.82684 62.0842C5.89064 62.4068 5.95444 62.7294 6.02017 63.0618C6.09226 63.2463 6.16434 63.4309 6.23862 63.621C6.39108 63.8519 6.54355 64.0828 6.70064 64.3207C6.92216 64.5558 7.14368 64.7908 7.37191 65.033C7.69342 65.2187 8.01493 65.4043 8.34619 65.5955Z" fill="#212223"/>
</svg>
