<svg width="530" height="105" viewBox="0 0 530 105" fill="none" xmlns="http://www.w3.org/2000/svg">
<path d="M56.4092 59.3477C56.9951 60.2266 57.6543 61.2764 58.3867 62.4971C59.168 63.7178 59.9248 64.9385 60.6572 66.1592C61.4385 67.3311 62.1465 68.4297 62.7812 69.4551C63.4648 70.4316 63.9531 71.2129 64.2461 71.7988C64.2461 71.0176 64.2217 69.333 64.1729 66.7451C64.124 64.1084 64.0996 61.0811 64.0996 57.6631C64.0996 54.1963 64.0752 50.4854 64.0264 46.5303C63.9775 42.5752 63.9531 38.791 63.9531 35.1777V0.973633H81.8242V103H64.9785L24.7686 41.623C23.9873 40.4023 23.2061 39.1816 22.4248 37.9609C21.6924 36.7402 21.0332 35.6416 20.4473 34.665C19.8613 33.6396 19.373 32.7852 18.9824 32.1016L18.3232 31.1494C18.3232 32.3701 18.3477 34.2256 18.3965 36.7158C18.4453 39.2061 18.4941 42.1357 18.543 45.5049C18.5918 48.8252 18.6162 52.4873 18.6162 56.4912C18.6162 60.4951 18.6162 64.6455 18.6162 68.9424V103H0.818359V0.973633H17.5908L56.4092 59.3477ZM133.753 43.6006C131.36 43.6006 129.09 44.0156 126.941 44.8457C124.793 45.627 122.913 46.75 121.302 48.2148C119.69 49.6309 118.372 51.291 117.347 53.1953C116.37 55.0996 115.833 57.1016 115.735 59.2012H150.525C150.33 54.5137 148.67 50.7539 145.545 47.9219C142.469 45.041 138.538 43.6006 133.753 43.6006ZM167.811 86.8135C167.029 88.0342 165.809 89.6699 164.148 91.7207C162.488 93.7227 160.291 95.7002 157.557 97.6533C154.871 99.6064 151.6 101.291 147.742 102.707C143.934 104.123 139.417 104.831 134.192 104.831C128.87 104.831 124.036 103.928 119.69 102.121C115.345 100.314 111.585 97.7754 108.411 94.5039C105.286 91.1836 102.869 87.1797 101.16 82.4922C99.5 77.7559 98.6699 72.4824 98.6699 66.6719C98.6699 61.1543 99.5488 56.1494 101.307 51.6572C103.113 47.165 105.579 43.3076 108.704 40.085C111.878 36.8135 115.589 34.3232 119.837 32.6143C124.134 30.8564 128.772 29.9775 133.753 29.9775C139.466 29.9775 144.446 30.9053 148.694 32.7607C152.942 34.5674 156.434 37.1553 159.168 40.5244C161.902 43.8936 163.978 47.873 165.394 52.4629C166.81 57.0527 167.518 62.1064 167.518 67.624C167.518 68.21 167.493 68.9424 167.444 69.8213C167.396 70.6514 167.371 71.3594 167.371 71.9453H115.296C115.589 74.3379 116.175 76.6328 117.054 78.8301C117.981 81.0273 119.275 82.9561 120.936 84.6162C122.596 86.2764 124.573 87.6191 126.868 88.6445C129.163 89.6211 131.897 90.1094 135.071 90.1094C138.294 90.1094 141.102 89.6455 143.494 88.7178C145.887 87.7412 147.913 86.6182 149.573 85.3486C151.233 84.0303 152.552 82.6631 153.528 81.2471C154.554 79.8311 155.359 78.6836 155.945 77.8047L167.811 86.8135ZM181.653 31.5889H198.719V69.5283C198.719 72.1162 198.816 74.6064 199.012 76.999C199.207 79.3428 199.72 81.4668 200.55 83.3711C201.331 85.2754 202.601 86.8135 204.358 87.9854C206.116 89.1084 208.484 89.6699 211.463 89.6699C216.883 89.6699 220.789 87.8145 223.182 84.1035C225.574 80.3926 226.771 75.6318 226.771 69.8213V31.5889H243.909V103H226.771V93.8447C225.062 96.8232 222.352 99.4111 218.641 101.608C214.979 103.757 210.584 104.831 205.457 104.831C201.844 104.831 198.548 104.245 195.569 103.073C192.591 101.901 190.052 100.168 187.952 97.873C186.829 96.5547 185.877 95.2363 185.096 93.918C184.314 92.5508 183.655 90.915 183.118 89.0107C182.63 87.0576 182.264 84.7383 182.02 82.0527C181.775 79.3184 181.653 75.998 181.653 72.0918V31.5889ZM279.139 67.3311C279.139 74.2158 280.799 79.709 284.119 83.8105C287.488 87.9121 291.883 89.9629 297.303 89.9629C302.82 89.9629 307.215 87.9609 310.486 83.957C313.807 79.9531 315.467 74.4111 315.467 67.3311C315.467 60.1533 313.807 54.5625 310.486 50.5586C307.215 46.5059 302.82 44.4795 297.303 44.4795C291.883 44.4795 287.488 46.5791 284.119 50.7783C280.799 54.9287 279.139 60.4463 279.139 67.3311ZM300.892 104.831C296.106 104.831 291.98 103.977 288.514 102.268C285.096 100.559 282.215 98.3125 279.871 95.5293V103H262.806V0.973633H279.871V39.4258C281.873 36.8379 284.705 34.5918 288.367 32.6875C292.029 30.7832 296.204 29.8311 300.892 29.8311C305.677 29.8311 310.022 30.7588 313.929 32.6143C317.835 34.4209 321.155 37.0088 323.89 40.3779C326.673 43.7471 328.797 47.751 330.262 52.3896C331.775 57.0283 332.532 62.1064 332.532 67.624C332.532 73.0439 331.775 78.0244 330.262 82.5654C328.797 87.1064 326.648 91.0371 323.816 94.3574C321.033 97.6289 317.713 100.192 313.855 102.048C309.998 103.903 305.677 104.831 300.892 104.831ZM378.528 43.6006C376.136 43.6006 373.865 44.0156 371.717 44.8457C369.568 45.627 367.688 46.75 366.077 48.2148C364.466 49.6309 363.147 51.291 362.122 53.1953C361.146 55.0996 360.608 57.1016 360.511 59.2012H395.301C395.105 54.5137 393.445 50.7539 390.32 47.9219C387.244 45.041 383.313 43.6006 378.528 43.6006ZM412.586 86.8135C411.805 88.0342 410.584 89.6699 408.924 91.7207C407.264 93.7227 405.066 95.7002 402.332 97.6533C399.646 99.6064 396.375 101.291 392.518 102.707C388.709 104.123 384.192 104.831 378.968 104.831C373.646 104.831 368.812 103.928 364.466 102.121C360.12 100.314 356.36 97.7754 353.187 94.5039C350.062 91.1836 347.645 87.1797 345.936 82.4922C344.275 77.7559 343.445 72.4824 343.445 66.6719C343.445 61.1543 344.324 56.1494 346.082 51.6572C347.889 47.165 350.354 43.3076 353.479 40.085C356.653 36.8135 360.364 34.3232 364.612 32.6143C368.909 30.8564 373.548 29.9775 378.528 29.9775C384.241 29.9775 389.222 30.9053 393.47 32.7607C397.718 34.5674 401.209 37.1553 403.943 40.5244C406.678 43.8936 408.753 47.873 410.169 52.4629C411.585 57.0527 412.293 62.1064 412.293 67.624C412.293 68.21 412.269 68.9424 412.22 69.8213C412.171 70.6514 412.146 71.3594 412.146 71.9453H360.071C360.364 74.3379 360.95 76.6328 361.829 78.8301C362.757 81.0273 364.051 82.9561 365.711 84.6162C367.371 86.2764 369.349 87.6191 371.644 88.6445C373.938 89.6211 376.673 90.1094 379.847 90.1094C383.069 90.1094 385.877 89.6455 388.27 88.7178C390.662 87.7412 392.688 86.6182 394.349 85.3486C396.009 84.0303 397.327 82.6631 398.304 81.2471C399.329 79.8311 400.135 78.6836 400.721 77.8047L412.586 86.8135ZM444.886 103H427.747V0.973633H444.886V103ZM495.423 43.6006C493.03 43.6006 490.76 44.0156 488.611 44.8457C486.463 45.627 484.583 46.75 482.972 48.2148C481.36 49.6309 480.042 51.291 479.017 53.1953C478.04 55.0996 477.503 57.1016 477.405 59.2012H512.195C512 54.5137 510.34 50.7539 507.215 47.9219C504.139 45.041 500.208 43.6006 495.423 43.6006ZM529.48 86.8135C528.699 88.0342 527.479 89.6699 525.818 91.7207C524.158 93.7227 521.961 95.7002 519.227 97.6533C516.541 99.6064 513.27 101.291 509.412 102.707C505.604 104.123 501.087 104.831 495.862 104.831C490.54 104.831 485.706 103.928 481.36 102.121C477.015 100.314 473.255 97.7754 470.081 94.5039C466.956 91.1836 464.539 87.1797 462.83 82.4922C461.17 77.7559 460.34 72.4824 460.34 66.6719C460.34 61.1543 461.219 56.1494 462.977 51.6572C464.783 47.165 467.249 43.3076 470.374 40.085C473.548 36.8135 477.259 34.3232 481.507 32.6143C485.804 30.8564 490.442 29.9775 495.423 29.9775C501.136 29.9775 506.116 30.9053 510.364 32.7607C514.612 34.5674 518.104 37.1553 520.838 40.5244C523.572 43.8936 525.647 47.873 527.063 52.4629C528.479 57.0527 529.188 62.1064 529.188 67.624C529.188 68.21 529.163 68.9424 529.114 69.8213C529.065 70.6514 529.041 71.3594 529.041 71.9453H476.966C477.259 74.3379 477.845 76.6328 478.724 78.8301C479.651 81.0273 480.945 82.9561 482.605 84.6162C484.266 86.2764 486.243 87.6191 488.538 88.6445C490.833 89.6211 493.567 90.1094 496.741 90.1094C499.964 90.1094 502.771 89.6455 505.164 88.7178C507.557 87.7412 509.583 86.6182 511.243 85.3486C512.903 84.0303 514.222 82.6631 515.198 81.2471C516.224 79.8311 517.029 78.6836 517.615 77.8047L529.48 86.8135Z" fill="black"/>
</svg>
