<svg width="21" height="10" viewBox="0 0 21 10" fill="none" xmlns="http://www.w3.org/2000/svg">
<path d="M15.3103 9.96188C15.4934 9.85894 20.4657 5.19236 20.4925 5.098C20.5059 5.04653 20.5014 4.95646 20.4791 4.89641C20.4389 4.7806 15.4756 0.122599 15.2924 0.028238C15.0646 -0.0875687 14.7518 0.174069 14.8189 0.427128C14.8323 0.482887 15.833 1.44794 17.0481 2.58027L19.2505 4.63477L9.95384 4.65622C4.83866 4.66908 0.648228 4.68195 0.643761 4.69053C0.639294 4.69482 0.603554 4.75487 0.563347 4.82778C0.473999 4.99506 0.478466 5.098 0.581217 5.21809L0.666098 5.32103L9.96278 5.34248L19.255 5.36392L17.0481 7.41842C15.8374 8.54646 14.8323 9.51581 14.8189 9.57157C14.7474 9.84178 15.069 10.0991 15.3103 9.96188Z" fill="black"/>
</svg>
