<svg width="76" height="60" viewBox="0 0 76 60" fill="none" xmlns="http://www.w3.org/2000/svg">
<path d="M2.18288 0.0141011C2.25555 0.0135073 2.25555 0.0135073 2.32969 0.0129016C2.48887 0.0117878 2.64804 0.0115521 2.80722 0.0114251C2.9187 0.0110459 3.03018 0.0106494 3.14166 0.0102364C3.37507 0.00953198 3.60847 0.00931219 3.84188 0.00938214C4.13955 0.0093941 4.43719 0.00778636 4.73485 0.00575536C4.96509 0.00443857 5.19532 0.00420606 5.42557 0.00426821C5.53523 0.00413001 5.6449 0.00361366 5.75456 0.00269688C6.55487 -0.0033668 7.25738 0.0386857 7.86871 0.620516C8.28525 1.07682 8.46692 1.59251 8.46375 2.20908C8.46356 2.2746 8.46337 2.34012 8.46318 2.40762C8.46269 2.47542 8.46219 2.54322 8.46168 2.61307C8.46142 2.68201 8.46115 2.75094 8.46088 2.82197C8.46018 2.99174 8.45922 3.1615 8.458 3.33127C8.49786 3.33118 8.53772 3.33109 8.57879 3.331C10.9428 3.32572 13.3069 3.32168 15.6709 3.31923C15.9549 3.31894 16.239 3.31863 16.523 3.31832C16.5796 3.31826 16.6361 3.3182 16.6944 3.31813C17.6092 3.31711 18.524 3.31525 19.4388 3.31308C20.378 3.31088 21.3171 3.30957 22.2562 3.30909C22.8354 3.30877 23.4146 3.30775 23.9938 3.30583C24.3913 3.30458 24.7888 3.30421 25.1864 3.30452C25.4155 3.30467 25.6446 3.30444 25.8737 3.30317C26.084 3.30202 26.2942 3.30197 26.5045 3.30277C26.6156 3.30292 26.7267 3.30191 26.8378 3.30084C27.726 3.30701 28.5976 3.61957 29.2423 4.24544C29.9015 4.95772 30.2088 5.89637 30.5602 6.78233C30.6162 6.92143 30.6723 7.06051 30.7284 7.19955C30.9827 7.83135 31.2325 8.46496 31.4771 9.1006C31.4966 9.15093 31.5161 9.20126 31.5362 9.25311C31.6945 9.66806 31.7471 10.0268 31.7499 10.4691C31.7511 10.5157 31.7523 10.5624 31.7535 10.6104C31.7584 11.3597 31.4376 12.0068 31.1348 12.6753C31.0926 12.7692 31.0505 12.8631 31.0084 12.957C30.6881 13.6693 30.357 14.3764 30.0226 15.0821C29.7501 15.6576 29.4828 16.2352 29.2196 16.8151C29.2014 16.855 29.1832 16.895 29.1645 16.9361C28.984 17.3333 28.8047 17.731 28.6298 18.1308C28.5616 18.2865 28.4931 18.442 28.4246 18.5975C28.378 18.7039 28.3321 18.8107 28.2862 18.9175C27.8757 19.8507 27.2786 20.6202 26.3194 21.023C25.0257 21.5092 24.0329 21.2458 22.4243 21.2458C22.4243 26.9437 22.4243 32.6416 22.4243 38.5121C23.4938 38.5121 24.5634 38.5121 25.6654 38.5121C26.682 38.825 27.4131 39.2534 27.9636 40.1622C28.1562 40.5289 28.3233 40.9083 28.494 41.2855C28.5436 41.394 28.5933 41.5025 28.643 41.6109C28.7674 41.8827 28.8912 42.1548 29.0146 42.427C29.097 42.6084 29.1796 42.7898 29.2622 42.9711C29.388 43.2472 29.5137 43.5233 29.6388 43.7997C29.8748 44.3207 30.1131 44.8405 30.3525 45.3598C30.6879 46.0873 31.0227 46.8149 31.3484 47.5468C31.3745 47.6047 31.4006 47.6626 31.4274 47.7223C31.6515 48.2302 31.7564 48.6633 31.7572 49.2189C31.7587 49.2666 31.7601 49.3142 31.7616 49.3633C31.7658 50.2588 31.2904 51.1321 30.958 51.9444C30.9096 52.0633 30.8612 52.1823 30.8129 52.3013C30.7168 52.5375 30.6205 52.7735 30.5239 53.0094C30.426 53.2486 30.329 53.4881 30.2326 53.7279C30.2089 53.7867 30.1851 53.8455 30.1607 53.9061C30.1158 54.0172 30.0711 54.1285 30.0267 54.2399C29.8751 54.6142 29.7066 54.9437 29.4369 55.2481C29.3782 55.3162 29.3782 55.3162 29.3183 55.3858C28.6849 56.0704 27.8376 56.4197 26.9122 56.4557C26.7725 56.4567 26.6329 56.4564 26.4932 56.455C26.3766 56.4553 26.3766 56.4553 26.2576 56.4557C26.0446 56.4562 25.8316 56.4552 25.6186 56.4541C25.3878 56.453 25.157 56.4534 24.9263 56.4536C24.5274 56.4537 24.1285 56.453 23.7296 56.4516C23.153 56.4497 22.5763 56.4491 21.9996 56.4488C21.0637 56.4483 20.1278 56.4467 19.192 56.4445C18.2834 56.4423 17.3748 56.4406 16.4662 56.4396C16.3821 56.4396 16.3821 56.4396 16.2962 56.4395C16.0148 56.4392 15.7333 56.4389 15.4519 56.4386C13.1206 56.4361 10.7893 56.432 8.458 56.4267C8.45862 56.4757 8.45923 56.5247 8.45987 56.5752C8.4619 56.7593 8.46336 56.9435 8.46447 57.1277C8.46535 57.2457 8.46685 57.3636 8.46836 57.4816C8.47213 58.2308 8.38188 58.8162 7.86617 59.3891C7.21446 60.0108 6.53289 59.9972 5.68072 59.9917C5.56524 59.9917 5.44977 59.9918 5.33429 59.992C5.09312 59.992 4.85197 59.9913 4.6108 59.99C4.30275 59.9883 3.99474 59.9884 3.68669 59.9892C3.44852 59.9896 3.21035 59.9891 2.97218 59.9884C2.85864 59.9881 2.74509 59.9881 2.63155 59.9884C2.47251 59.9885 2.31352 59.9876 2.15449 59.9863C2.10828 59.9865 2.06207 59.9868 2.01446 59.9871C1.42782 59.9793 0.985834 59.7728 0.561454 59.3732C0.0355587 58.8003 0.005263 58.2304 0.00867751 57.4857C0.00847512 57.3883 0.00819552 57.2909 0.00784554 57.1935C0.00710716 56.9254 0.00747111 56.6572 0.00801234 56.3891C0.00840707 56.0975 0.00777964 55.806 0.00728197 55.5145C0.00655194 55.0034 0.00648226 54.4923 0.00684294 53.9811C0.00737785 53.2211 0.00690596 52.461 0.00623643 51.701C0.00504249 50.3042 0.00495621 48.9074 0.00527295 47.5106C0.00531748 47.3127 0.00536036 47.1148 0.00540153 46.9169C0.00540973 46.8776 0.00541804 46.8383 0.00542648 46.7978C0.00560045 45.9267 0.00542291 45.0556 0.00517201 44.1845C0.00513771 44.0653 0.00510413 43.9461 0.00507085 43.8268C0.00498158 43.5073 0.00489161 43.1877 0.0048002 42.8681C0.00416629 40.6373 0.00388923 38.4064 0.00435645 36.1755C0.00436519 36.1334 0.00437397 36.0914 0.00438297 36.048C0.00448074 35.5791 0.00458377 35.1101 0.00468892 34.6412C0.00469841 34.5989 0.00470792 34.5565 0.0047177 34.5129C0.00479476 34.1693 0.00479474 34.1693 0.00483324 33.9992C0.00544567 31.2907 0.0049879 28.5822 0.00359573 25.8737C0.00324549 25.1911 0.00289825 24.5086 0.00256975 23.8261C0.00254949 23.7841 0.00252925 23.742 0.00250838 23.6987C0.00188808 22.4037 0.00155845 21.1087 0.00153523 19.8136C0.00153448 19.773 0.00153376 19.7323 0.00153298 19.6904C0.00151953 18.7981 0.00157868 17.9057 0.00170428 17.0133C0.00174876 16.694 0.00178866 16.3747 0.00182679 16.0554C0.00183638 15.976 0.00184629 15.8965 0.00185647 15.8171C0.0020119 14.5902 0.0015629 13.3634 0.0007635 12.1366C-0.000113852 10.7869 -0.00016692 9.43723 0.00088534 8.08756C0.00145025 7.33181 0.00136173 6.57608 0.000341329 5.82033C-0.000274677 5.31592 -3.82252e-05 4.8115 0.000899952 4.30708C0.00141088 4.01942 0.00154604 3.73178 0.000648403 3.44412C-0.000160351 3.18248 0.000113354 2.92087 0.00125446 2.65923C0.0014748 2.56512 0.00129936 2.471 0.000681898 2.37689C-0.00231199 1.88685 0.00506734 1.46244 0.266807 1.03302C0.312613 0.956109 0.312613 0.956109 0.359345 0.877642C0.823648 0.265182 1.42493 0.0131992 2.18288 0.0141011ZM1.28334 1.43816C1.0704 1.73391 1.01816 1.94979 1.01805 2.31318C1.01788 2.35251 1.0177 2.39183 1.01753 2.43235C1.01709 2.56461 1.0175 2.69687 1.01789 2.82914C1.01775 2.92513 1.01756 3.02113 1.01732 3.11712C1.01681 3.38228 1.01704 3.64744 1.01738 3.91261C1.01763 4.20057 1.01719 4.48853 1.01684 4.77649C1.01633 5.28163 1.01625 5.78678 1.01646 6.29192C1.01677 7.04308 1.01642 7.79424 1.01593 8.5454C1.01503 9.96484 1.01493 11.3843 1.01507 12.8037C1.01518 13.8996 1.01508 14.9955 1.01482 16.0913C1.01479 16.2486 1.01475 16.4059 1.01472 16.5632C1.0147 16.642 1.01468 16.7209 1.01466 16.7997C1.01466 16.8388 1.01465 16.8779 1.01464 16.9182C1.01462 16.9972 1.0146 17.0763 1.01458 17.1554C1.01407 19.3992 1.0138 21.643 1.01405 23.8868C1.01405 23.9283 1.01406 23.9699 1.01406 24.0127C1.01412 24.4762 1.01417 24.9396 1.01423 25.4031C1.01423 25.4449 1.01424 25.4868 1.01424 25.5299C1.01427 25.7837 1.01427 25.7837 1.0143 26.0375C1.01463 28.7143 1.01418 31.391 1.01308 34.0677C1.0128 34.7422 1.01252 35.4167 1.01226 36.0911C1.01225 36.1327 1.01223 36.1742 1.01221 36.217C1.01172 37.4966 1.01145 38.7762 1.0114 40.0558C1.0114 40.0959 1.01139 40.1361 1.01139 40.1775C1.01136 41.0591 1.01138 41.9408 1.01145 42.8224C1.01148 43.1771 1.0115 43.5319 1.01153 43.8866C1.01153 43.9642 1.01154 44.0418 1.01154 44.1217C1.01161 45.295 1.01122 46.4683 1.0106 47.6416C1.00989 48.9754 1.00979 50.3092 1.01052 51.643C1.01092 52.39 1.01082 53.137 1.01002 53.884C1.00953 54.3824 1.00969 54.8808 1.01037 55.3793C1.01074 55.6636 1.01083 55.948 1.01014 56.2323C1.00953 56.4908 1.00972 56.7493 1.01056 57.0078C1.01072 57.1009 1.01059 57.194 1.01012 57.2871C1.00953 57.4133 1.01003 57.5395 1.0108 57.6657C1.0108 57.7357 1.0108 57.8056 1.01079 57.8777C1.04605 58.1953 1.15074 58.477 1.40488 58.6844C1.43747 58.7122 1.47006 58.7399 1.50363 58.7685C1.79566 58.9516 2.08101 58.9757 2.41954 58.9768C2.46252 58.9771 2.5055 58.9775 2.54978 58.9778C2.691 58.9786 2.8322 58.9785 2.97342 58.9784C3.0722 58.9786 3.17097 58.9789 3.26975 58.9792C3.47651 58.9796 3.68326 58.9796 3.89002 58.9793C4.15408 58.9789 4.41812 58.9799 4.68217 58.9813C4.88612 58.9822 5.09006 58.9822 5.29401 58.982C5.39132 58.9821 5.48863 58.9824 5.58594 58.983C5.72243 58.9837 5.85887 58.9833 5.99536 58.9826C6.11154 58.9827 6.11154 58.9827 6.23006 58.9827C6.56596 58.9497 6.83019 58.8625 7.09157 58.6476C7.33264 58.3514 7.41936 58.1125 7.41943 57.7313C7.4198 57.6721 7.4198 57.6721 7.42018 57.6116C7.4208 57.4791 7.42015 57.3467 7.41952 57.2142C7.4197 57.1179 7.41996 57.0217 7.4203 56.9254C7.42099 56.6597 7.42057 56.394 7.41998 56.1283C7.41953 55.8397 7.42011 55.5511 7.42056 55.2624C7.42119 54.7562 7.42117 54.25 7.42072 53.7438C7.42006 52.991 7.4204 52.2382 7.42094 51.4855C7.42187 50.1412 7.42179 48.797 7.42128 47.4527C7.42083 46.2764 7.42072 45.1 7.42093 43.9237C7.42094 43.8449 7.42095 43.7662 7.42097 43.6875C7.42102 43.3711 7.42108 43.0547 7.42114 42.7383C7.4213 41.8539 7.4214 40.9694 7.42145 40.085C7.42146 40.0447 7.42146 40.0044 7.42146 39.9629C7.42153 38.6792 7.42133 37.3956 7.42095 36.1119C7.42093 36.0494 7.42093 36.0494 7.42091 35.9857C7.42071 35.3094 7.42049 34.6331 7.42028 33.9568C7.41942 31.2744 7.41946 28.592 7.42032 25.9097C7.42053 25.2337 7.42075 24.5578 7.42095 23.8818C7.42097 23.8194 7.42097 23.8194 7.42099 23.7557C7.42137 22.4734 7.42153 21.191 7.42145 19.9087C7.42145 19.8483 7.42145 19.8483 7.42145 19.7867C7.42139 18.9033 7.42128 18.0198 7.42112 17.1364C7.42106 16.8203 7.421 16.5042 7.42095 16.1881C7.42093 16.0702 7.42091 15.9523 7.42088 15.8344C7.42068 14.6586 7.42092 13.4828 7.42137 12.307C7.42187 10.9705 7.42175 9.63391 7.42079 8.29736C7.42026 7.54878 7.42023 6.80021 7.4209 6.05163C7.42129 5.55221 7.42105 5.05279 7.42028 4.55337C7.41986 4.26842 7.41972 3.98348 7.42035 3.69852C7.42092 3.43955 7.42068 3.18059 7.41979 2.92162C7.41961 2.82828 7.41973 2.73493 7.42018 2.64158C7.42074 2.51517 7.42022 2.3888 7.41943 2.2624C7.41941 2.15726 7.41941 2.15726 7.41939 2.05C7.38326 1.73648 7.25791 1.50751 7.01423 1.30925C6.96227 1.26584 6.96227 1.26584 6.90926 1.22155C6.68079 1.06214 6.43957 1.08286 6.17315 1.08246C6.12656 1.08216 6.07997 1.08187 6.03197 1.08157C5.87775 1.08071 5.72353 1.08031 5.56931 1.07998C5.46207 1.07964 5.35483 1.0793 5.24759 1.07896C5.02263 1.07834 4.79768 1.078 4.57273 1.07779C4.28481 1.07747 3.9969 1.07606 3.70898 1.07438C3.4874 1.07328 3.26582 1.07297 3.04423 1.07288C2.93811 1.07271 2.83198 1.07223 2.72586 1.07146C2.57719 1.07045 2.42856 1.07056 2.27989 1.07095C2.23625 1.0704 2.19262 1.06986 2.14766 1.0693C1.77143 1.07232 1.5424 1.16733 1.28334 1.43816ZM8.458 4.33307C8.458 9.58368 8.458 14.8343 8.458 20.244C11.3958 20.2475 11.3958 20.2475 14.3336 20.2498C14.7298 20.25 15.1261 20.2502 15.5224 20.2505C15.5721 20.2505 15.6217 20.2506 15.6729 20.2506C16.4741 20.2511 17.2753 20.252 18.0765 20.2531C18.8991 20.2542 19.7217 20.2549 20.5443 20.2551C21.0516 20.2553 21.559 20.2558 22.0663 20.2567C22.4145 20.2574 22.7627 20.2575 23.1109 20.2574C23.3116 20.2573 23.5123 20.2574 23.713 20.2581C23.9311 20.2587 24.1492 20.2585 24.3673 20.2582C24.43 20.2585 24.4928 20.2589 24.5575 20.2592C25.3788 20.256 26.0993 20.0978 26.7093 19.5149C26.86 19.3416 26.9659 19.1596 27.0703 18.9568C27.0905 18.918 27.1108 18.8793 27.1317 18.8393C27.3246 18.4665 27.5003 18.0864 27.6714 17.7032C27.746 17.536 27.8214 17.3692 27.8966 17.2023C27.9366 17.1138 27.9765 17.0253 28.0163 16.9367C28.2198 16.4851 28.4266 16.035 28.6338 15.5851C28.7387 15.3571 28.8436 15.1291 28.9484 14.901C28.9692 14.8558 28.99 14.8106 29.0114 14.764C29.3398 14.0496 29.6674 13.3348 29.9931 12.6192C30.0957 12.3939 30.1992 12.1691 30.3036 11.9446C30.6346 11.2275 30.8719 10.5924 30.6143 9.80721C30.338 9.08135 30.0466 8.36173 29.7532 7.64262C29.6648 7.42577 29.5767 7.20879 29.4887 6.9918C29.432 6.8526 29.3753 6.71341 29.3186 6.57423C29.2925 6.51002 29.2665 6.4458 29.2397 6.37964C28.906 5.56376 28.5743 4.92275 27.7505 4.51907C27.2172 4.33679 26.6838 4.31615 26.1247 4.3189C26.0488 4.3188 25.973 4.3187 25.8948 4.31859C25.686 4.31833 25.4771 4.3188 25.2683 4.31939C25.0424 4.3199 24.8166 4.31973 24.5907 4.31964C24.1999 4.31958 23.8092 4.31995 23.4185 4.32061C22.8535 4.32157 22.2886 4.32187 21.7236 4.32202C20.8069 4.32228 19.8902 4.32306 18.9735 4.32418C18.0833 4.32526 17.1931 4.3261 16.3029 4.3266C16.2474 4.32663 16.1919 4.32666 16.1348 4.32669C15.7008 4.32694 15.2669 4.32717 14.8329 4.32739C12.7079 4.32851 10.583 4.33088 8.458 4.33307ZM8.458 21.2458C8.458 26.9437 8.458 32.6416 8.458 38.5121C12.7168 38.5121 16.9757 38.5121 21.3635 38.5121C21.3635 32.8143 21.3635 27.1164 21.3635 21.2458C17.1047 21.2458 12.8459 21.2458 8.458 21.2458ZM8.458 39.5139C8.458 44.7451 8.458 49.9763 8.458 55.366C11.7819 55.3728 11.7819 55.3728 15.1057 55.3775C15.5541 55.3779 16.0024 55.3784 16.4507 55.3789C16.5069 55.379 16.5631 55.379 16.621 55.3791C17.5275 55.3801 18.434 55.382 19.3405 55.3842C20.2712 55.3864 21.2019 55.3877 22.1325 55.3881C22.7066 55.3885 23.2806 55.3895 23.8546 55.3914C24.2486 55.3927 24.6425 55.393 25.0364 55.3927C25.2635 55.3926 25.4906 55.3928 25.7177 55.3941C25.9644 55.3954 26.2111 55.395 26.4578 55.3943C26.5289 55.395 26.6 55.3957 26.6732 55.3964C27.3173 55.3919 27.8589 55.2492 28.3683 54.8457C28.7042 54.5037 28.9187 54.1338 29.1017 53.6938C29.1254 53.6382 29.1491 53.5826 29.1735 53.5253C29.2625 53.3143 29.3499 53.1027 29.4369 52.8909C29.4561 52.844 29.4754 52.7971 29.4953 52.7488C29.6509 52.3692 29.8056 51.9893 29.9599 51.6092C29.9818 51.5551 30.0038 51.5011 30.0264 51.4454C30.7233 49.8795 30.7233 49.8795 30.5077 48.232C30.362 47.894 30.2029 47.5623 30.0446 47.23C29.994 47.1225 29.9434 47.015 29.8929 46.9074C29.8158 46.7431 29.7387 46.5788 29.6613 46.4146C29.4216 45.9062 29.1873 45.3954 28.9544 44.8839C28.9162 44.8002 28.878 44.7165 28.8398 44.6328C28.7827 44.5075 28.7255 44.3822 28.6684 44.2569C28.5267 43.9462 28.3846 43.6357 28.2424 43.3253C28.2005 43.2338 28.1586 43.1423 28.1168 43.0508C28.0355 42.8733 27.9541 42.6959 27.8727 42.5185C27.6903 42.1205 27.5109 41.7218 27.3392 41.3191C27.164 40.9098 26.9807 40.544 26.6672 40.2211C26.636 40.1883 26.6048 40.1555 26.5726 40.1217C26.0014 39.579 25.3232 39.5049 24.5728 39.5069C24.5039 39.5068 24.435 39.5068 24.364 39.5067C24.1733 39.5066 23.9827 39.5068 23.792 39.5071C23.5861 39.5074 23.3803 39.5073 23.1745 39.5072C22.818 39.5072 22.4616 39.5074 22.1052 39.5077C21.5898 39.5082 21.0745 39.5083 20.5591 39.5084C19.723 39.5086 18.8868 39.5089 18.0507 39.5095C17.2385 39.51 16.4263 39.5105 15.6141 39.5107C15.5635 39.5107 15.513 39.5107 15.4608 39.5108C15.0652 39.5109 14.6696 39.511 14.274 39.5111C12.3353 39.5117 10.3967 39.5129 8.458 39.5139ZM42.9857 0.00880986C43.0417 0.00853526 43.0977 0.00826065 43.1554 0.00797772C43.3424 0.00727552 43.5294 0.00782642 43.7164 0.00837595C43.852 0.00812995 43.9877 0.00780713 44.1234 0.00741423C44.4958 0.00656216 44.8681 0.00681265 45.2405 0.00724727C45.6009 0.00758358 45.9614 0.00691851 46.3218 0.00636877C47.1044 0.00521064 47.8869 0.00507131 48.6695 0.00537848C49.3541 0.00564708 50.0387 0.00561165 50.7233 0.00527003C50.8152 0.00522542 50.907 0.00518087 50.9989 0.00513638C51.1373 0.00506889 51.2757 0.00500113 51.4141 0.00493253C52.7006 0.00430185 53.9871 0.00402308 55.2735 0.0044888C55.322 0.00450631 55.3705 0.00452382 55.4204 0.00454186C55.8141 0.00468618 56.2078 0.00484008 56.6015 0.00499469C58.1381 0.0055904 59.6748 0.00509684 61.2114 0.00372802C62.9378 0.00219265 64.6642 0.00143414 66.3907 0.00185335C66.5746 0.00189554 66.7585 0.00193528 66.9425 0.00197359C66.9878 0.00198359 67.0331 0.0019936 67.0798 0.00200391C67.7642 0.00213976 68.4487 0.00166891 69.1331 0.000895681C69.911 1.84552e-05 70.6889 -3.46896e-05 71.4668 0.00101772C71.8639 0.00153282 72.261 0.00164078 72.6581 0.000743605C73.0213 -6.67157e-05 73.3844 0.000200943 73.7476 0.001347C73.8793 0.00157034 74.011 0.00139137 74.1427 0.000780588C74.3211 1.19208e-05 74.4994 0.000680452 74.6778 0.00172333C74.7554 0.000870282 74.7554 0.000870282 74.8346 0C75.0749 0.00290543 75.1951 0.012284 75.4029 0.143558C75.5425 0.290961 75.5746 0.348719 75.5971 0.550537C75.5743 0.782532 75.5059 0.870021 75.3429 1.03302C75.1071 1.11164 74.8808 1.09999 74.6349 1.0993C74.552 1.09942 74.552 1.09942 74.4674 1.09954C74.2804 1.09974 74.0934 1.09951 73.9064 1.09929C73.7717 1.09935 73.637 1.09944 73.5022 1.09954C73.2084 1.09973 72.9146 1.09972 72.6208 1.09957C72.1838 1.09935 71.7469 1.09946 71.31 1.09965C70.6201 1.09996 69.9301 1.10008 69.2402 1.10009C68.145 1.1001 67.0497 1.10079 65.9544 1.10172C65.7214 1.10191 65.4884 1.1021 65.2554 1.10229C64.9726 1.10252 64.6897 1.10276 64.4068 1.10299C63.3396 1.10387 62.2724 1.10468 61.2052 1.10539C61.1565 1.10542 61.1077 1.10546 61.0574 1.10549C59.4756 1.10655 57.8938 1.1068 56.312 1.1067C54.6862 1.10661 53.0604 1.10748 51.4346 1.10953C51.2051 1.10982 50.9755 1.11009 50.746 1.11036C50.7008 1.11041 50.6556 1.11047 50.6091 1.11052C49.8815 1.11134 49.154 1.11112 48.4265 1.1105C47.6954 1.1099 46.9643 1.11035 46.2333 1.11188C45.8371 1.11268 45.4409 1.11297 45.0447 1.11199C44.6822 1.11111 44.3197 1.11157 43.9572 1.11312C43.8259 1.11344 43.6946 1.11326 43.5633 1.11254C43.385 1.11162 43.2068 1.11252 43.0286 1.11387C42.9518 1.11283 42.9518 1.11283 42.8735 1.11176C42.4383 1.11841 42.1539 1.2805 41.8489 1.58549C41.6024 1.98372 41.6184 2.39325 41.6199 2.8479C41.6197 2.91771 41.6195 2.98751 41.6192 3.05943C41.6187 3.25244 41.6188 3.44544 41.619 3.63845C41.6192 3.8469 41.6186 4.05534 41.6182 4.26379C41.6174 4.67185 41.6173 5.07992 41.6175 5.48799C41.6176 5.8197 41.6175 6.15142 41.6172 6.48314C41.6172 6.53037 41.6171 6.57761 41.6171 6.62628C41.617 6.72225 41.617 6.81822 41.6169 6.91418C41.6163 7.81383 41.6164 8.71348 41.6167 9.61313C41.617 10.4359 41.6164 11.2587 41.6153 12.0814C41.6141 12.9266 41.6136 13.7718 41.6139 14.617C41.614 15.0914 41.6138 15.5657 41.613 16.0401C41.6123 16.4439 41.6122 16.8477 41.6129 17.2515C41.6133 17.4574 41.6133 17.6633 41.6126 17.8693C41.612 18.0927 41.6125 18.3161 41.6132 18.5395C41.6128 18.6044 41.6124 18.6692 41.6119 18.736C41.615 19.1803 41.6726 19.5431 41.9447 19.9089C42.2795 20.2361 42.6275 20.2719 43.0754 20.2845C43.1241 20.2865 43.1728 20.2886 43.223 20.2906C43.342 20.2954 43.461 20.2993 43.5799 20.303C43.5787 20.2492 43.5775 20.1955 43.5762 20.1401C43.5722 19.9377 43.5692 19.7353 43.567 19.5329C43.5658 19.4458 43.5642 19.3588 43.5622 19.2718C43.5443 18.4964 43.6619 17.8529 44.1692 17.2386C44.6269 16.7614 45.1326 16.4507 45.8034 16.3955C45.8844 16.3943 45.9654 16.394 46.0464 16.3946C46.0919 16.3948 46.1374 16.3951 46.1842 16.3953C46.8405 16.4078 47.4887 16.5095 48.1377 16.6003C48.2863 16.6205 48.435 16.6407 48.5836 16.6608C48.9038 16.7043 49.2239 16.7482 49.544 16.7926C50.0155 16.8579 50.487 16.9223 50.9586 16.9866C51.7419 17.0934 52.5251 17.2008 53.3083 17.3086C54.4124 17.4606 55.5165 17.6117 56.6207 17.7626C57.0546 17.8219 57.4885 17.8813 57.9224 17.9406C57.994 17.9504 57.994 17.9504 58.067 17.9604C58.7427 18.0528 59.4183 18.1453 60.094 18.2379C62.3862 18.5522 64.6786 18.8646 66.9714 19.1736C67.1768 19.2012 67.3822 19.2289 67.5876 19.2566C68.7727 19.4164 69.9578 19.5761 71.1429 19.7353C71.5898 19.7953 72.0367 19.8555 72.4836 19.9159C72.7839 19.9565 73.0842 19.9968 73.3846 20.037C73.5642 20.061 73.7437 20.0853 73.9232 20.1096C74.0046 20.1206 74.0861 20.1316 74.1676 20.1424C75.2603 20.2875 75.2603 20.2875 75.4902 20.4945C75.5969 20.6901 75.6152 20.7904 75.5786 21.0101C75.4902 21.1758 75.4902 21.1758 75.3429 21.3048C74.9353 21.3917 74.5635 21.3388 74.1542 21.2811C74.0825 21.2714 74.0109 21.2618 73.9371 21.2519C73.7388 21.2251 73.5407 21.1978 73.3425 21.1703C73.128 21.1406 72.9133 21.1117 72.6987 21.0826C72.3249 21.0319 71.9512 20.9808 71.5775 20.9293C71.0268 20.8535 70.476 20.7784 69.9252 20.7035C69.0177 20.58 68.1102 20.4559 67.2029 20.3315C66.0331 20.1712 64.8633 20.0114 63.6935 19.8519C63.1713 19.7806 62.6491 19.7094 62.1269 19.6381C62.0223 19.6238 61.9176 19.6095 61.813 19.5953C61.6036 19.5667 61.3943 19.5381 61.1849 19.5095C60.9754 19.481 60.7659 19.4524 60.5564 19.4238C59.8725 19.3304 59.1885 19.2371 58.5046 19.1437C58.3991 19.1293 58.2936 19.1148 58.188 19.1004C56.8141 18.9128 55.4402 18.7244 54.0666 18.535C53.1692 18.4112 52.2717 18.2879 51.3742 18.1649C50.79 18.0849 50.2058 18.0044 49.6218 17.9233C49.2266 17.8685 48.8314 17.8142 48.4362 17.7603C48.2088 17.7293 47.9815 17.698 47.7543 17.6662C47.5461 17.637 47.3378 17.6084 47.1295 17.5804C47.0191 17.5654 46.9088 17.5497 46.7985 17.5339C46.1961 17.4539 45.7023 17.439 45.1828 17.7807C44.8444 18.0578 44.7172 18.4071 44.6407 18.8297C44.6241 19.0471 44.6239 19.2636 44.6243 19.4815C44.6239 19.5459 44.6236 19.6103 44.6232 19.6767C44.6222 19.8919 44.6221 20.107 44.6219 20.3222C44.6213 20.4767 44.6207 20.6312 44.6201 20.7857C44.6188 21.118 44.6179 21.4503 44.6173 21.7825C44.6164 22.263 44.6149 22.7434 44.6133 23.2238C44.6106 24.0034 44.6084 24.7829 44.6066 25.5625C44.6048 26.3195 44.6028 27.0766 44.6005 27.8337C44.6003 27.8804 44.6002 27.9271 44.6 27.9752C44.5993 28.2095 44.5985 28.4437 44.5978 28.678C44.5917 30.6203 44.5865 32.5626 44.5817 34.5049C44.6532 34.5143 44.7247 34.5237 44.7984 34.5333C47.0868 34.8333 49.3739 35.1423 51.6609 35.453C52.1858 35.5243 52.7108 35.5955 53.2357 35.6668C54.1809 35.795 55.126 35.9234 56.0711 36.0517C56.9684 36.1735 57.8656 36.2954 58.7628 36.4171C58.8734 36.4321 58.984 36.4471 59.0945 36.4621C59.5349 36.5219 59.9753 36.5817 60.4156 36.6414C61.5537 36.7959 62.6918 36.9504 63.8299 37.1052C64.2522 37.1626 64.6746 37.2201 65.097 37.2775C65.201 37.2916 65.3051 37.3058 65.4092 37.3199C66.7864 37.5072 68.1638 37.6932 69.5414 37.8775C69.8547 37.9195 70.168 37.9615 70.4812 38.0036C70.5242 38.0094 70.5672 38.0152 70.6115 38.0211C70.7818 38.044 70.9521 38.0669 71.1223 38.0899C71.567 38.1497 72.0117 38.2093 72.4564 38.2683C72.823 38.3169 73.1896 38.366 73.5561 38.4155C73.6882 38.4333 73.8203 38.4508 73.9524 38.4681C74.131 38.4916 74.3095 38.5157 74.488 38.5401C74.5649 38.5499 74.5649 38.5499 74.6435 38.5599C75.3315 38.6559 75.3315 38.6559 75.5492 38.9099C75.5935 39.1093 75.569 39.2577 75.5197 39.455C75.4228 39.5978 75.3476 39.6783 75.1744 39.7121C75.0312 39.7211 74.8899 39.7218 74.7464 39.7202C74.6636 39.7206 74.6636 39.7206 74.579 39.7211C74.3925 39.7219 74.206 39.721 74.0194 39.7201C73.8849 39.7203 73.7504 39.7207 73.6158 39.7211C73.245 39.7219 72.8743 39.7213 72.5035 39.7205C72.145 39.7199 71.7865 39.7204 71.4281 39.7209C70.6945 39.7219 69.961 39.7218 69.2274 39.7212C68.2255 39.7203 67.2237 39.7209 66.2218 39.7218C65.7553 39.7223 65.2887 39.7227 64.8221 39.723C64.7754 39.7231 64.7287 39.7231 64.6805 39.7231C63.5683 39.724 62.4561 39.724 61.3438 39.724C61.2708 39.724 61.2708 39.724 61.1963 39.724C60.7526 39.724 60.3088 39.7239 59.8651 39.7239C58.7794 39.7239 57.6937 39.7239 56.608 39.7241C56.5593 39.7241 56.5107 39.7241 56.4607 39.7241C55.3508 39.7243 54.241 39.7246 53.1312 39.7254C53.0613 39.7255 53.0613 39.7255 52.9899 39.7255C52.5242 39.7259 52.0586 39.7262 51.5929 39.7266C50.5922 39.7275 49.5915 39.7279 48.5909 39.7272C47.8613 39.7267 47.1318 39.7268 46.4022 39.7275C46.0069 39.7279 45.6115 39.7279 45.2162 39.7272C44.8544 39.7266 44.4927 39.7267 44.1309 39.7275C43.9999 39.7277 43.8689 39.7275 43.7378 39.727C43.56 39.7264 43.3821 39.7269 43.2043 39.7276C43.1532 39.7272 43.1021 39.7268 43.0495 39.7263C42.6462 39.7299 42.3167 39.7989 41.9999 40.0664C41.7337 40.3858 41.6281 40.6342 41.6275 41.047C41.6273 41.1069 41.6271 41.1668 41.6268 41.2285C41.6269 41.2942 41.6269 41.36 41.627 41.4277C41.6268 41.4976 41.6266 41.5675 41.6265 41.6395C41.626 41.8335 41.6259 42.0276 41.6258 42.2217C41.6257 42.431 41.6253 42.6403 41.6249 42.8496C41.6241 43.3073 41.6237 43.7649 41.6235 44.2226C41.6233 44.5084 41.6231 44.7942 41.6228 45.08C41.6221 45.8714 41.6215 46.6627 41.6213 47.454C41.6213 47.5047 41.6213 47.5553 41.6212 47.6075C41.6212 47.6583 41.6212 47.709 41.6212 47.7614C41.6212 47.8642 41.6211 47.9671 41.6211 48.07C41.6211 48.121 41.6211 48.172 41.6211 48.2246C41.6208 49.0514 41.6198 49.8781 41.6184 50.7049C41.6171 51.5538 41.6163 52.4027 41.6162 53.2517C41.6162 53.7283 41.6159 54.2049 41.6148 54.6815C41.6139 55.0873 41.6136 55.4932 41.6141 55.899C41.6143 56.106 41.6142 56.313 41.6134 56.52C41.6127 56.7446 41.613 56.9692 41.6136 57.1938C41.6131 57.259 41.6127 57.3242 41.6122 57.3914C41.615 57.835 41.6559 58.1864 41.952 58.5371C42.3697 58.8852 42.7165 58.9105 43.2405 58.9094C43.2958 58.9095 43.3511 58.9096 43.4081 58.9098C43.5944 58.9101 43.7807 58.91 43.967 58.9099C44.1015 58.91 44.236 58.9102 44.3705 58.9104C44.741 58.9108 45.1114 58.9109 45.4818 58.911C45.84 58.9111 46.1982 58.9114 46.5564 58.9118C47.2444 58.9125 47.9323 58.913 48.6202 58.9134C49.712 58.914 50.8037 58.9151 51.8954 58.9164C52.3153 58.9169 52.7352 58.9174 53.1552 58.9179C53.2251 58.918 53.2251 58.918 53.2965 58.9181C54.4071 58.9194 55.5178 58.9205 56.6284 58.9216C56.7013 58.9217 56.7013 58.9217 56.7756 58.9218C57.9099 58.9229 59.0442 58.9239 60.1784 58.9246C60.2516 58.9247 60.2516 58.9247 60.3263 58.9247C60.7197 58.925 61.1131 58.9252 61.5065 58.9255C63.1273 58.9265 64.7481 58.9281 66.3688 58.9304C66.5976 58.9307 66.8263 58.931 67.055 58.9313C67.1 58.9314 67.145 58.9314 67.1914 58.9315C67.9169 58.9325 68.6423 58.9328 69.3678 58.9329C70.0964 58.933 70.8249 58.9337 71.5535 58.935C71.9484 58.9358 72.3434 58.9362 72.7383 58.9358C73.0995 58.9355 73.4606 58.936 73.8217 58.9372C73.9528 58.9374 74.0838 58.9374 74.2149 58.937C74.3922 58.9366 74.5695 58.9372 74.7469 58.9382C74.7984 58.9378 74.85 58.9374 74.9032 58.937C75.1081 58.939 75.2476 58.9421 75.432 59.0362C75.5764 59.2029 75.5902 59.3963 75.5786 59.6089C75.4997 59.7856 75.4575 59.8757 75.284 59.9625C75.1076 59.9685 74.9325 59.9708 74.7561 59.9705C74.7004 59.9707 74.6448 59.9709 74.5875 59.971C74.3989 59.9715 74.2103 59.9715 74.0217 59.9715C73.886 59.9718 73.7503 59.972 73.6146 59.9723C73.24 59.973 72.8653 59.9734 72.4907 59.9736C72.1287 59.9739 71.7667 59.9745 71.4046 59.9751C70.4342 59.9766 69.4638 59.9775 68.4933 59.9783C68.1719 59.9785 67.8505 59.9788 67.529 59.9791C65.8203 59.9805 64.1115 59.9818 62.4028 59.9826C62.0067 59.9827 61.6107 59.9829 61.2146 59.9831C61.1408 59.9831 61.1408 59.9831 61.0655 59.9832C59.4707 59.9839 57.8758 59.9857 56.2809 59.9882C54.6416 59.9907 53.0023 59.9922 51.3629 59.9926C51.1313 59.9926 50.8997 59.9927 50.6681 59.9927C50.6226 59.9927 50.577 59.9927 50.53 59.9927C49.7967 59.993 49.0633 59.9942 48.33 59.9957C47.5926 59.9973 46.8553 59.9977 46.1179 59.9971C45.7185 59.9967 45.3191 59.9969 44.9196 59.9984C44.5539 59.9997 44.1881 59.9997 43.8223 59.9985C43.6901 59.9984 43.5579 59.9987 43.4257 59.9996C42.5032 60.0054 41.8143 59.958 41.1167 59.2873C40.7761 58.8935 40.5677 58.4683 40.5666 57.9473C40.5664 57.885 40.5661 57.8227 40.5658 57.7585C40.5659 57.6901 40.5659 57.6217 40.5659 57.5513C40.5657 57.4786 40.5654 57.4059 40.5652 57.331C40.5647 57.129 40.5644 56.9271 40.5643 56.7252C40.564 56.5075 40.5635 56.2898 40.5629 56.072C40.5618 55.5461 40.5612 55.0203 40.5607 54.4944C40.5604 54.2467 40.5601 53.9989 40.5598 53.7512C40.5588 52.9276 40.5579 52.104 40.5575 51.2804C40.5574 51.0667 40.5573 50.853 40.5572 50.6394C40.5571 50.5862 40.5571 50.5331 40.5571 50.4784C40.5566 49.6182 40.5551 48.7579 40.5532 47.8977C40.5512 47.0143 40.5502 46.1309 40.55 45.2475C40.5498 44.7516 40.5493 44.2557 40.5478 43.7598C40.5465 43.3374 40.5461 42.9151 40.5466 42.4927C40.5469 42.2773 40.5468 42.0619 40.5457 41.8465C40.5444 41.6127 40.545 41.3789 40.5458 41.145C40.5448 41.0436 40.5448 41.0436 40.5438 40.9402C40.5492 40.2656 40.7738 39.7431 41.2301 39.2451C41.9105 38.5824 42.6386 38.6889 43.5799 38.6889C43.5799 32.9716 43.5799 27.2543 43.5799 21.3637C43.2299 21.3637 42.8799 21.3637 42.5192 21.3637C41.9915 21.292 41.4681 21.0601 41.1049 20.6565C40.6632 20.0564 40.5569 19.605 40.5584 18.8731C40.5581 18.8003 40.5578 18.7275 40.5575 18.6526C40.5567 18.4513 40.5565 18.25 40.5565 18.0487C40.5565 17.8313 40.5557 17.614 40.555 17.3966C40.5537 16.9216 40.5532 16.4467 40.5529 15.9717C40.5527 15.6749 40.5523 15.3781 40.5519 15.0813C40.5507 14.259 40.5498 13.4366 40.5496 12.6143C40.5496 12.5354 40.5496 12.5354 40.5496 12.4549C40.5495 12.3483 40.5495 12.2417 40.5495 12.1351C40.5495 12.0558 40.5495 12.0558 40.5495 11.9748C40.5495 11.9218 40.5494 11.8688 40.5494 11.8142C40.5492 10.956 40.5476 10.0978 40.5454 9.23953C40.5432 8.35758 40.5421 7.47564 40.542 6.59368C40.542 6.09883 40.5415 5.60398 40.5398 5.10912C40.5383 4.68771 40.5379 4.26631 40.5388 3.8449C40.5392 3.63009 40.5392 3.41531 40.5378 3.20051C40.5364 2.96709 40.5373 2.73372 40.5383 2.50031C40.5375 2.43317 40.5368 2.36604 40.536 2.29687C40.5428 1.636 40.7554 1.09191 41.217 0.614761C41.7252 0.153937 42.3106 0.00355717 42.9857 0.00880986ZM44.5817 35.5657C44.5817 36.5964 44.5817 37.627 44.5817 38.6889C52.0687 38.6889 59.5557 38.6889 67.2696 38.6889C67.2696 38.6695 67.2696 38.65 67.2696 38.63C64.8964 38.3077 62.5232 37.9854 60.1501 37.6631C59.8677 37.6248 59.5854 37.5864 59.3031 37.5481C59.2469 37.5405 59.1907 37.5328 59.1328 37.525C58.2317 37.4026 57.3305 37.2802 56.4293 37.1578C55.4996 37.0316 54.57 36.9053 53.6403 36.779C53.1202 36.7084 52.6001 36.6378 52.08 36.5671C51.93 36.5468 51.7799 36.5264 51.6298 36.506C51.5311 36.4926 51.4324 36.4792 51.3337 36.4658C50.8122 36.395 50.2907 36.3242 49.7693 36.2534C49.5888 36.2289 49.4084 36.2044 49.2279 36.1799C49.184 36.1739 49.1401 36.168 49.0948 36.1618C48.5247 36.0844 47.9545 36.0069 47.3844 35.9293C47.094 35.8897 46.8035 35.8502 46.513 35.8107C46.3205 35.7845 46.128 35.7583 45.9355 35.732C45.728 35.7037 45.5204 35.6754 45.3129 35.6472C45.2518 35.6389 45.1907 35.6305 45.1278 35.6219C45.0726 35.6144 45.0174 35.6069 44.9605 35.5992C44.8887 35.5894 44.8887 35.5894 44.8154 35.5794C44.6995 35.5634 44.6995 35.5634 44.5817 35.5657ZM14.7855 25.2899C14.831 25.287 14.8764 25.2841 14.9232 25.2811C15.1258 25.3274 15.181 25.4366 15.2938 25.6066C15.3236 25.7755 15.3236 25.7755 15.3241 25.9644C15.3249 26.0363 15.3256 26.1082 15.3264 26.1823C15.3261 26.2614 15.3257 26.3406 15.3253 26.4198C15.3257 26.5035 15.3262 26.5873 15.3268 26.671C15.3281 26.8981 15.3279 27.1251 15.3274 27.3522C15.3271 27.5419 15.3275 27.7315 15.328 27.9212C15.329 28.3686 15.3288 28.816 15.3278 29.2634C15.3268 29.7248 15.3277 30.1862 15.3296 30.6477C15.3312 31.0441 15.3316 31.4404 15.3311 31.8368C15.3308 32.0735 15.331 32.3101 15.3322 32.5468C15.3333 32.7693 15.3329 32.9917 15.3315 33.2143C15.3312 33.2959 15.3314 33.3775 15.3321 33.4591C15.338 34.1527 15.338 34.1527 15.1519 34.3472C14.9136 34.5014 14.8077 34.486 14.5277 34.446C14.3845 34.3358 14.3132 34.2526 14.2331 34.0924C14.2272 33.9819 14.2251 33.8711 14.2248 33.7603C14.2245 33.6897 14.2241 33.619 14.2238 33.5463C14.2237 33.4676 14.2236 33.3889 14.2236 33.3102C14.2233 33.2276 14.223 33.145 14.2227 33.0625C14.2219 32.8378 14.2215 32.6132 14.2213 32.3886C14.2211 32.2482 14.2209 32.1079 14.2206 31.9676C14.2198 31.5287 14.2192 31.0898 14.219 30.6509C14.2187 30.1441 14.2177 29.6373 14.216 29.1304C14.2147 28.7388 14.2141 28.3472 14.2141 27.9556C14.214 27.7216 14.2136 27.4877 14.2126 27.2537C14.2116 27.0336 14.2115 26.8135 14.212 26.5933C14.2121 26.4741 14.2113 26.3549 14.2104 26.2357C14.2109 26.129 14.2109 26.129 14.2114 26.0201C14.2113 25.9584 14.2113 25.8967 14.2112 25.8331C14.2366 25.639 14.2948 25.5279 14.4099 25.3709C14.5447 25.3035 14.6355 25.2963 14.7855 25.2899ZM30.144 26.6084C30.2024 26.6084 30.2607 26.6084 30.3208 26.6084C30.3024 26.7778 30.3024 26.7778 30.2619 26.962C30.1744 27.0203 30.1744 27.0203 30.0851 27.0798C30.0826 26.9424 30.0827 26.8048 30.0851 26.6673C30.1046 26.6479 30.124 26.6284 30.144 26.6084ZM28.0815 28.3763C28.1994 28.5531 28.1994 28.5531 28.1773 28.7114C28.1651 28.7564 28.153 28.8014 28.1404 28.8477C28.1015 28.8477 28.0626 28.8477 28.0226 28.8477C27.9857 28.6783 27.9857 28.6783 27.9636 28.4941C28.0025 28.4552 28.0414 28.4164 28.0815 28.3763ZM25.7243 29.5549C25.7827 29.584 25.7827 29.584 25.8422 29.6138C25.8227 29.6721 25.8033 29.7305 25.7833 29.7906C25.7638 29.7128 25.7444 29.635 25.7243 29.5549Z" fill="black"/>
</svg>
