<svg width="68" height="75" viewBox="0 0 68 75" fill="none" xmlns="http://www.w3.org/2000/svg">
<path d="M29.4818 8.26977C29.3913 8.01566 29.2347 7.80507 29.0119 7.63798C28.8065 7.48134 28.7004 7.27422 28.6934 7.01663C28.6656 6.02805 28.6568 4.90718 28.6673 3.65404C28.6725 2.35391 29.5132 1.65424 30.8655 1.94664C31.1092 1.99886 31.2449 1.90139 31.2728 1.65424C31.318 1.21216 31.4973 0.778788 31.8106 0.354113C31.8598 0.287069 31.9231 0.231388 31.9961 0.190848C32.069 0.150308 32.15 0.125855 32.2335 0.119149C33.4971 0.0199426 35.476 -0.121035 36.6456 0.192249C37.2722 0.359334 37.5489 0.804895 37.4758 1.52893C37.4445 1.81785 37.5733 1.94142 37.8622 1.89965C39.1467 1.70124 40.2693 2.34869 40.2902 3.7167C40.3215 5.50765 40.8071 8.43686 38.0293 8.26455C37.9249 8.25759 37.8726 8.30632 37.8726 8.41075V8.58306C37.8726 8.78843 37.9753 8.89982 38.1807 8.91723C41.8983 9.25836 45.4472 10.2765 48.8272 11.9718C57.439 16.2881 63.2783 22.9889 66.345 32.0742C67.5877 35.7448 68.1516 39.9637 67.9689 43.8432C67.572 52.5003 64.3487 60.0018 58.2988 66.3475C58.2426 66.4082 58.2106 66.4874 58.2087 66.5701C58.2067 66.6528 58.2351 66.7333 58.2884 66.7966C59.3466 68.0358 60.3943 69.3464 61.4316 70.7283C61.9903 71.4645 61.9329 72.467 61.2802 73.1301C60.0271 74.4042 58.1265 76.1011 56.5548 74.0282C55.6011 72.7646 54.6978 71.6072 53.8449 70.556C53.7196 70.4028 53.5752 70.3785 53.4116 70.4829L51.6572 71.6159C51.5327 71.6983 51.3804 71.7274 51.2336 71.6971C51.0868 71.6668 50.9575 71.5794 50.874 71.4541L49.2762 69.0627C49.2173 68.9739 49.1278 68.9099 49.0248 68.8829C48.9217 68.856 48.8123 68.8679 48.7175 68.9165C40.6626 73.0379 32.3223 73.6819 23.6965 70.8484C23.4842 70.7788 23.3362 70.8484 23.2527 71.0572L22.1823 73.8037C22.1288 73.9405 22.0236 74.0508 21.8891 74.1112C21.7545 74.1717 21.6012 74.1775 21.4617 74.1274C20.1634 73.654 18.9381 73.0936 17.7859 72.4461C9.66831 67.8757 4.23457 61.2166 1.48462 52.469C-0.63005 45.7438 -0.473407 38.1206 1.87623 31.4476C6.13168 19.3966 16.4126 10.823 29.1163 8.87546C29.4783 8.81976 29.6002 8.61787 29.4818 8.26977ZM36.4837 1.43656C36.4836 1.38034 36.4724 1.32468 36.4508 1.27277C36.4292 1.22086 36.3976 1.17372 36.3578 1.13403C36.3179 1.09434 36.2707 1.06288 36.2187 1.04145C36.1667 1.02002 36.111 1.00904 36.0548 1.00914L32.7862 1.01488C32.73 1.01498 32.6743 1.02615 32.6224 1.04775C32.5705 1.06936 32.5234 1.10098 32.4837 1.1408C32.444 1.18063 32.4125 1.22788 32.3911 1.27987C32.3697 1.33185 32.3587 1.38754 32.3588 1.44377L32.3589 1.48554C32.359 1.54177 32.3701 1.59742 32.3917 1.64933C32.4134 1.70124 32.445 1.74839 32.4848 1.78808C32.5246 1.82777 32.5719 1.85923 32.6239 1.88065C32.6758 1.90208 32.7315 1.91306 32.7878 1.91297L36.0564 1.90722C36.1126 1.90713 36.1683 1.89596 36.2202 1.87435C36.2721 1.85275 36.3192 1.82113 36.3589 1.7813C36.3986 1.74148 36.4301 1.69422 36.4515 1.64224C36.4729 1.59026 36.4839 1.53456 36.4838 1.47833L36.4837 1.43656ZM39.2668 3.70104C39.2668 3.48639 39.1815 3.28054 39.0297 3.12876C38.8779 2.97699 38.6721 2.89172 38.4574 2.89172H30.4165C30.3102 2.89172 30.2049 2.91265 30.1068 2.95332C30.0086 2.994 29.9193 3.05361 29.8442 3.12876C29.769 3.20392 29.7094 3.29313 29.6687 3.39132C29.6281 3.48952 29.6071 3.59476 29.6071 3.70104V6.47883C29.6071 6.69347 29.6924 6.89933 29.8442 7.0511C29.996 7.20288 30.2018 7.28815 30.4165 7.28815H38.4574C38.6721 7.28815 38.8779 7.20288 39.0297 7.0511C39.1815 6.89933 39.2668 6.69347 39.2668 6.47883V3.70104ZM36.6456 8.48938C36.6453 8.45338 36.4135 8.42047 36.0011 8.39789C35.5886 8.37531 35.0294 8.36491 34.4465 8.36898C34.1578 8.37099 33.8719 8.3765 33.6053 8.38519C33.3386 8.39387 33.0964 8.40556 32.8923 8.41959C32.6883 8.43363 32.5265 8.44972 32.4162 8.46697C32.3058 8.48421 32.2491 8.50226 32.2492 8.52009C32.2495 8.55609 32.4813 8.589 32.8937 8.61158C33.3061 8.63416 33.8654 8.64456 34.4483 8.64049C34.737 8.63848 35.0228 8.63297 35.2895 8.62429C35.5561 8.6156 35.7984 8.60391 36.0024 8.58988C36.2065 8.57585 36.3683 8.55975 36.4786 8.54251C36.589 8.52526 36.6457 8.50721 36.6456 8.48938ZM38.3426 18.3001C45.3497 19.5898 51.8086 24.0228 55.2338 30.1423C59.4562 37.6889 59.7556 45.4271 56.1319 53.3567C55.5123 54.7177 54.656 56.0735 53.563 57.4241C53.4446 57.5703 53.2949 57.6678 53.1139 57.7165L44.7701 59.9356C44.7375 59.9444 44.7076 59.961 44.6828 59.9839C44.6579 60.0068 44.6389 60.0355 44.6272 60.0676C44.6155 60.0996 44.6114 60.1342 44.6154 60.1684C44.6194 60.2027 44.6312 60.2356 44.65 60.2646L51.3021 70.3106C51.3356 70.3609 51.3858 70.3976 51.4434 70.4139C51.501 70.4302 51.562 70.4251 51.6154 70.3993C53.1766 69.6631 54.1791 68.3787 55.5471 67.3761C56.9569 66.3388 58.2744 65.0526 59.4997 63.5175C76.3388 42.4439 63.0242 11.4914 36.1235 9.66389C31.8941 9.37497 27.9137 9.84316 24.1821 11.0684C14.2266 14.3371 7.26298 20.8238 3.29123 30.5286C0.168826 38.1676 0.278476 47.5922 3.57319 55.3095C7.01584 63.3678 12.8656 69.2541 21.1224 72.9683C21.1558 72.9836 21.1921 72.992 21.2289 72.993C21.2657 72.9939 21.3023 72.9873 21.3365 72.9736C21.3707 72.9599 21.4017 72.9395 21.4277 72.9134C21.4538 72.8874 21.4742 72.8563 21.4878 72.8221L24.3335 65.5591C24.3619 65.4869 24.3614 65.4065 24.3323 65.3346C24.3031 65.2628 24.2475 65.2048 24.1769 65.1727C18.4055 62.4228 14.2562 58.3727 11.729 53.0225C7.99572 45.1225 8.76327 35.9119 13.661 28.7429C19.1226 20.7594 28.7404 16.5353 38.3426 18.3001ZM25.5606 65.1466L25.4144 65.7784C25.3801 65.9345 25.4063 66.0979 25.4877 66.2355C25.5691 66.373 25.6996 66.4747 25.8529 66.5198C32.8427 68.6014 39.5592 68.0741 46.0024 64.9377C46.0519 64.9133 46.0956 64.8786 46.1307 64.836C46.1658 64.7935 46.1914 64.7441 46.2057 64.6911C46.2201 64.6382 46.2229 64.5829 46.2139 64.5291C46.205 64.4753 46.1845 64.4241 46.1538 64.3791L43.3395 60.1549C43.2795 60.0642 43.2419 59.9606 43.23 59.8525C43.2181 59.7444 43.2321 59.635 43.2709 59.5334C43.3097 59.4319 43.3721 59.341 43.4531 59.2684C43.534 59.1957 43.6311 59.1435 43.7363 59.1159L52.6075 56.7819C52.7815 56.7366 52.9225 56.6444 53.0304 56.5052C54.6386 54.434 55.8326 52.0304 56.6123 49.2944C57.8306 45.0198 57.9333 40.8862 56.9203 36.8935C54.3566 26.8006 45.3654 19.146 34.7346 19.0154C32.7539 18.9911 31.0169 19.1233 29.5236 19.4123C22.969 20.6898 17.8607 24.1272 14.1988 29.7245C12.4235 32.4397 11.3148 35.2505 10.8727 38.1571C10.3158 41.8191 10.361 45.0651 11.0085 47.8951C12.5401 54.5994 16.5467 59.7981 23.0282 63.4914C23.7313 63.8917 24.471 64.245 25.2473 64.5514C25.5188 64.6593 25.6232 64.8577 25.5606 65.1466ZM46.5036 65.7888C39.9821 69.2245 32.1761 69.7362 25.1846 67.3553C24.8852 67.2543 24.6781 67.35 24.5633 67.6424L23.8845 69.329C23.7661 69.6214 23.8566 69.8163 24.156 69.9137C32.2561 72.5767 40.2171 71.9901 48.0387 68.1541C48.3833 67.9871 48.4495 67.7434 48.2371 67.4231L47.2816 65.9872C47.1993 65.864 47.0743 65.7755 46.9307 65.7389C46.787 65.7023 46.6349 65.7201 46.5036 65.7888ZM57.9606 67.8929C57.8797 67.7898 57.7794 67.7037 57.6653 67.6394C57.5512 67.5751 57.4256 67.5339 57.2956 67.5182C57.1655 67.5025 57.0337 67.5125 56.9076 67.5477C56.7814 67.5829 56.6634 67.6427 56.5604 67.7235L55.073 68.8897C54.9699 68.9705 54.8838 69.0709 54.8195 69.185C54.7552 69.2991 54.714 69.4247 54.6983 69.5547C54.6825 69.6847 54.6926 69.8166 54.7278 69.9427C54.763 70.0689 54.8227 70.1868 54.9035 70.2899L57.5197 73.6263C57.6005 73.7294 57.7008 73.8155 57.8149 73.8798C57.929 73.9441 58.0546 73.9853 58.1847 74.001C58.3147 74.0168 58.4465 74.0067 58.5727 73.9715C58.6988 73.9363 58.8168 73.8766 58.9198 73.7958L60.4073 72.6295C60.5103 72.5487 60.5965 72.4484 60.6608 72.3343C60.725 72.2202 60.7662 72.0945 60.782 71.9645C60.7977 71.8345 60.7877 71.7027 60.7524 71.5765C60.7172 71.4504 60.6575 71.3324 60.5767 71.2293L57.9606 67.8929Z" fill="black"/>
</svg>
