<svg width="12" height="13" viewBox="0 0 12 13" fill="none" xmlns="http://www.w3.org/2000/svg">
<path id="tiktok" d="M11.5069 5.57327V3.30401C10.4442 3.30401 9.63315 3.02035 9.10978 2.46902C8.57263 1.8398 8.27169 1.04296 8.25881 0.21574V0.0519373L6.1134 0V9.21687C6.03981 9.61901 5.8446 9.98888 5.55413 10.2766C5.26367 10.5642 4.89193 10.7559 4.4891 10.8256C4.08627 10.8953 3.67175 10.8398 3.3015 10.6664C2.93124 10.4931 2.62309 10.2103 2.41863 9.85631C2.21417 9.50229 2.12325 9.09406 2.15815 8.68674C2.19305 8.27942 2.35209 7.89261 2.61379 7.57853C2.87549 7.26445 3.22725 7.03823 3.6216 6.93041C4.01594 6.82259 4.43387 6.83835 4.81897 6.97558V4.77823C3.96136 4.6354 3.08055 4.76626 2.3015 5.15223C1.52245 5.53821 0.884733 6.15971 0.478813 6.92856C0.072893 7.6974 -0.0806117 8.57455 0.0400768 9.43555C0.160765 10.2966 0.549518 11.0977 1.15118 11.7253C1.75285 12.3529 2.53687 12.7751 3.39201 12.932C4.24715 13.0889 5.13 12.9726 5.91528 12.5995C6.70057 12.2263 7.34842 11.6154 7.76693 10.8534C8.18544 10.0913 8.35334 9.21678 8.24683 8.35391V4.69833C9.22237 5.30757 10.3574 5.61218 11.5069 5.57327Z" fill="black"/>
</svg>
