<svg width="18" height="13" viewBox="0 0 18 13" fill="none" xmlns="http://www.w3.org/2000/svg">
<path id="twitter" d="M17.2208 1.55778C16.5903 1.81866 15.9265 1.99054 15.2486 2.06849C15.957 1.66954 16.4951 1.02517 16.7612 0.256875C16.0832 0.641707 15.3462 0.911547 14.58 1.05543C14.0569 0.517644 13.3738 0.163561 12.6328 0.0460923C11.8862 -0.0751287 11.1204 0.0442152 10.4461 0.386872C9.78486 0.720689 9.25339 1.26489 8.93533 1.93384C8.62486 2.59148 8.55232 3.3365 8.73012 4.04166C7.37236 3.97691 6.0417 3.63833 4.81812 3.04625C3.61064 2.4637 2.53768 1.63613 1.66753 0.616225C1.36712 1.11523 1.20823 1.6866 1.20789 2.26905C1.20697 2.80761 1.34532 3.33689 1.61089 3.81231C1.87553 4.28773 2.26088 4.69258 2.72887 4.99158C2.18617 4.97783 1.65407 4.83829 1.17447 4.58394V4.62387C1.17818 5.37878 1.45489 6.10863 1.95817 6.69083C2.4704 7.27827 3.16603 7.67549 3.93228 7.8181C3.63344 7.90485 3.32417 7.95046 3.01301 7.95367C2.79741 7.95134 2.5823 7.93271 2.36952 7.89795C2.59051 8.54701 3.01672 9.11436 3.59057 9.52014C4.16441 9.92684 4.85619 10.1516 5.57025 10.1655C4.11851 11.2496 2.3062 11.7355 0.506836 11.523C2.08815 12.4932 3.90818 13.0044 5.76339 12.9994C7.04711 13.013 8.32162 12.7814 9.51846 12.3169C10.7098 11.8527 11.7934 11.1665 12.7034 10.2983C13.6083 9.43917 14.3298 8.40564 14.8242 7.26004C15.3118 6.12784 15.5588 4.90665 15.5494 3.67396V3.25054C16.2007 2.78776 16.7664 2.21493 17.2208 1.55778Z" fill="black"/>
</svg>
