<svg width="19" height="13" viewBox="0 0 19 13" fill="none" xmlns="http://www.w3.org/2000/svg">
<path id="youtube" d="M18.7885 4.58124C18.8304 3.37801 18.5665 2.18381 18.0215 1.11025C17.6508 0.669133 17.1373 0.3718 16.5702 0.269895C14.2228 0.0578986 11.8659 -0.0288906 9.50931 0.00989598C7.16125 -0.0306366 4.8127 0.053362 2.47353 0.261538C2.01111 0.34511 1.58211 0.561466 1.24132 0.88368C0.48268 1.58104 0.398181 2.77425 0.312752 3.78268C0.190346 5.59597 0.190346 7.41545 0.312752 9.22874C0.337823 9.79609 0.423252 10.3597 0.566252 10.9094C0.668394 11.3338 0.874537 11.7266 1.16518 12.0516C1.50875 12.3914 1.94703 12.6199 2.42246 12.7081C4.24153 12.9309 6.0736 13.0238 7.90567 12.9857C10.8585 13.0275 13.4492 12.9857 16.5107 12.7499C16.9975 12.6674 17.4477 12.4387 17.8014 12.0943C18.0382 11.8594 18.2146 11.5706 18.3168 11.2539C18.6183 10.332 18.7663 9.36671 18.7551 8.39674C18.7885 7.92595 18.7885 5.08546 18.7885 4.58124ZM7.60203 8.90095V3.6991L12.5968 6.3121C11.1965 7.0856 9.34867 7.95938 7.60203 8.90095Z" fill="black"/>
</svg>
